G04 #@! TF.FileFunction,Copper,L2,Bot,Signal*
%FSLAX46Y46*%
G04 Gerber Fmt 4.6, Leading zero omitted, Abs format (unit mm)*
G04 Created by KiCad (PCBNEW 4.0.1-stable) date 2/25/2017 10:13:21 AM*
%MOMM*%
G01*
G04 APERTURE LIST*
%ADD10C,0.100000*%
%ADD11C,0.150000*%
%ADD12C,2.400000*%
%ADD13R,2.400000X2.400000*%
%ADD14C,2.540000*%
%ADD15R,2.540000X2.540000*%
%ADD16C,1.524000*%
%ADD17C,0.254000*%
G04 APERTURE END LIST*
D10*
D11*
X191770000Y-149860000D02*
X191770000Y-48260000D01*
X115570000Y-48260000D02*
X115570000Y-149860000D01*
X115570000Y-149860000D02*
X191770000Y-149860000D01*
X191770000Y-48260000D02*
X115570000Y-48260000D01*
D12*
X121920000Y-65420000D03*
X121920000Y-61920000D03*
X121920000Y-68920000D03*
X121920000Y-72420000D03*
X121920000Y-75920000D03*
X121920000Y-79420000D03*
D13*
X121920000Y-58420000D03*
D12*
X121920000Y-82920000D03*
X121920000Y-86420000D03*
X121920000Y-89920000D03*
X121920000Y-93420000D03*
X121920000Y-96920000D03*
X121920000Y-100420000D03*
X121920000Y-103920000D03*
X121920000Y-107420000D03*
X121920000Y-110920000D03*
X173300000Y-53400000D03*
X176800000Y-53400000D03*
X169800000Y-53400000D03*
X166300000Y-53400000D03*
X162800000Y-53400000D03*
X159300000Y-53400000D03*
D13*
X180300000Y-53400000D03*
D12*
X155800000Y-53400000D03*
X152300000Y-53400000D03*
X148800000Y-53400000D03*
X145300000Y-53400000D03*
X141800000Y-53400000D03*
X138300000Y-53400000D03*
X134800000Y-53400000D03*
X131300000Y-53400000D03*
X127800000Y-53400000D03*
X185420000Y-104125000D03*
X185420000Y-107625000D03*
X185420000Y-100625000D03*
X185420000Y-97125000D03*
X185420000Y-93625000D03*
X185420000Y-90125000D03*
D13*
X185420000Y-111125000D03*
D12*
X185420000Y-86625000D03*
X185420000Y-83125000D03*
X185420000Y-79625000D03*
X185420000Y-76125000D03*
X185420000Y-72625000D03*
X185420000Y-69125000D03*
X185420000Y-65625000D03*
X185420000Y-62125000D03*
X185420000Y-58625000D03*
X134000000Y-144780000D03*
X130500000Y-144780000D03*
X137500000Y-144780000D03*
X141000000Y-144780000D03*
X144500000Y-144780000D03*
X148000000Y-144780000D03*
D13*
X127000000Y-144780000D03*
D12*
X151500000Y-144780000D03*
X155000000Y-144780000D03*
X158500000Y-144780000D03*
X162000000Y-144780000D03*
X165500000Y-144780000D03*
X169000000Y-144780000D03*
X172500000Y-144780000D03*
X176000000Y-144780000D03*
X179500000Y-144780000D03*
X121920000Y-127960000D03*
D13*
X121920000Y-124460000D03*
D12*
X121920000Y-120340000D03*
D13*
X121920000Y-116840000D03*
D12*
X185420000Y-115626000D03*
D13*
X185420000Y-119126000D03*
D12*
X185420000Y-123754000D03*
D13*
X185420000Y-127254000D03*
D12*
X185420000Y-131882000D03*
D13*
X185420000Y-135382000D03*
D14*
X166625220Y-105407040D03*
D15*
X151385220Y-105407040D03*
D16*
X133100000Y-60300000D03*
X138400000Y-61100000D03*
X171958000Y-59944000D03*
X174400000Y-62200000D03*
X147574000Y-79248000D03*
X163068000Y-131572000D03*
X143764000Y-116840000D03*
X141224000Y-116840000D03*
X146050000Y-116840000D03*
X179070000Y-68072000D03*
X128016000Y-138430000D03*
X135128000Y-138430000D03*
X142240000Y-138430000D03*
X148590000Y-138430000D03*
X155702000Y-138430000D03*
X162814000Y-138430000D03*
X169418000Y-138176000D03*
X176784000Y-138176000D03*
X171500000Y-76500000D03*
X142494000Y-66040000D03*
X134366000Y-96012000D03*
X178816000Y-110744000D03*
X178816000Y-103632000D03*
X178816000Y-96774000D03*
X179070000Y-89916000D03*
X179070000Y-82296000D03*
X179070000Y-75184000D03*
X179070000Y-62484000D03*
X165608000Y-59690000D03*
X158750000Y-59690000D03*
X151384000Y-59690000D03*
X145034000Y-59690000D03*
X128270000Y-59182000D03*
X128524000Y-67056000D03*
X128524000Y-73152000D03*
X128270000Y-79756000D03*
X128270000Y-87122000D03*
X128270000Y-93726000D03*
X128524000Y-100584000D03*
X128778000Y-107696000D03*
X159512000Y-81026000D03*
D17*
G36*
X191060000Y-149150000D02*
X116280000Y-149150000D01*
X116280000Y-143580000D01*
X125152560Y-143580000D01*
X125152560Y-145980000D01*
X125196838Y-146215317D01*
X125335910Y-146431441D01*
X125548110Y-146576431D01*
X125800000Y-146627440D01*
X128200000Y-146627440D01*
X128435317Y-146583162D01*
X128651441Y-146444090D01*
X128796431Y-146231890D01*
X128847440Y-145980000D01*
X128847440Y-145585712D01*
X128943455Y-145818086D01*
X129459199Y-146334730D01*
X130133395Y-146614681D01*
X130863403Y-146615318D01*
X131538086Y-146336545D01*
X132054730Y-145820801D01*
X132250135Y-145350215D01*
X132443455Y-145818086D01*
X132959199Y-146334730D01*
X133633395Y-146614681D01*
X134363403Y-146615318D01*
X135038086Y-146336545D01*
X135554730Y-145820801D01*
X135750135Y-145350215D01*
X135943455Y-145818086D01*
X136459199Y-146334730D01*
X137133395Y-146614681D01*
X137863403Y-146615318D01*
X138538086Y-146336545D01*
X139054730Y-145820801D01*
X139250135Y-145350215D01*
X139443455Y-145818086D01*
X139959199Y-146334730D01*
X140633395Y-146614681D01*
X141363403Y-146615318D01*
X142038086Y-146336545D01*
X142554730Y-145820801D01*
X142750135Y-145350215D01*
X142943455Y-145818086D01*
X143459199Y-146334730D01*
X144133395Y-146614681D01*
X144863403Y-146615318D01*
X145538086Y-146336545D01*
X146054730Y-145820801D01*
X146250135Y-145350215D01*
X146443455Y-145818086D01*
X146959199Y-146334730D01*
X147633395Y-146614681D01*
X148363403Y-146615318D01*
X149038086Y-146336545D01*
X149554730Y-145820801D01*
X149750135Y-145350215D01*
X149943455Y-145818086D01*
X150459199Y-146334730D01*
X151133395Y-146614681D01*
X151863403Y-146615318D01*
X152538086Y-146336545D01*
X153054730Y-145820801D01*
X153250135Y-145350215D01*
X153443455Y-145818086D01*
X153959199Y-146334730D01*
X154633395Y-146614681D01*
X155363403Y-146615318D01*
X156038086Y-146336545D01*
X156554730Y-145820801D01*
X156750135Y-145350215D01*
X156943455Y-145818086D01*
X157459199Y-146334730D01*
X158133395Y-146614681D01*
X158863403Y-146615318D01*
X159538086Y-146336545D01*
X160054730Y-145820801D01*
X160250135Y-145350215D01*
X160443455Y-145818086D01*
X160959199Y-146334730D01*
X161633395Y-146614681D01*
X162363403Y-146615318D01*
X163038086Y-146336545D01*
X163554730Y-145820801D01*
X163750135Y-145350215D01*
X163943455Y-145818086D01*
X164459199Y-146334730D01*
X165133395Y-146614681D01*
X165863403Y-146615318D01*
X166538086Y-146336545D01*
X167054730Y-145820801D01*
X167250135Y-145350215D01*
X167443455Y-145818086D01*
X167959199Y-146334730D01*
X168633395Y-146614681D01*
X169363403Y-146615318D01*
X170038086Y-146336545D01*
X170554730Y-145820801D01*
X170750135Y-145350215D01*
X170943455Y-145818086D01*
X171459199Y-146334730D01*
X172133395Y-146614681D01*
X172863403Y-146615318D01*
X173538086Y-146336545D01*
X174054730Y-145820801D01*
X174250135Y-145350215D01*
X174443455Y-145818086D01*
X174959199Y-146334730D01*
X175633395Y-146614681D01*
X176363403Y-146615318D01*
X177038086Y-146336545D01*
X177554730Y-145820801D01*
X177750135Y-145350215D01*
X177943455Y-145818086D01*
X178459199Y-146334730D01*
X179133395Y-146614681D01*
X179863403Y-146615318D01*
X180538086Y-146336545D01*
X181054730Y-145820801D01*
X181334681Y-145146605D01*
X181335318Y-144416597D01*
X181056545Y-143741914D01*
X180540801Y-143225270D01*
X179866605Y-142945319D01*
X179136597Y-142944682D01*
X178461914Y-143223455D01*
X177945270Y-143739199D01*
X177749865Y-144209785D01*
X177556545Y-143741914D01*
X177040801Y-143225270D01*
X176366605Y-142945319D01*
X175636597Y-142944682D01*
X174961914Y-143223455D01*
X174445270Y-143739199D01*
X174249865Y-144209785D01*
X174056545Y-143741914D01*
X173540801Y-143225270D01*
X172866605Y-142945319D01*
X172136597Y-142944682D01*
X171461914Y-143223455D01*
X170945270Y-143739199D01*
X170749865Y-144209785D01*
X170556545Y-143741914D01*
X170040801Y-143225270D01*
X169366605Y-142945319D01*
X168636597Y-142944682D01*
X167961914Y-143223455D01*
X167445270Y-143739199D01*
X167249865Y-144209785D01*
X167056545Y-143741914D01*
X166540801Y-143225270D01*
X165866605Y-142945319D01*
X165136597Y-142944682D01*
X164461914Y-143223455D01*
X163945270Y-143739199D01*
X163749865Y-144209785D01*
X163556545Y-143741914D01*
X163040801Y-143225270D01*
X162366605Y-142945319D01*
X161636597Y-142944682D01*
X160961914Y-143223455D01*
X160445270Y-143739199D01*
X160249865Y-144209785D01*
X160056545Y-143741914D01*
X159540801Y-143225270D01*
X158866605Y-142945319D01*
X158136597Y-142944682D01*
X157461914Y-143223455D01*
X156945270Y-143739199D01*
X156749865Y-144209785D01*
X156556545Y-143741914D01*
X156040801Y-143225270D01*
X155366605Y-142945319D01*
X154636597Y-142944682D01*
X153961914Y-143223455D01*
X153445270Y-143739199D01*
X153249865Y-144209785D01*
X153056545Y-143741914D01*
X152540801Y-143225270D01*
X151866605Y-142945319D01*
X151136597Y-142944682D01*
X150461914Y-143223455D01*
X149945270Y-143739199D01*
X149749865Y-144209785D01*
X149556545Y-143741914D01*
X149040801Y-143225270D01*
X148366605Y-142945319D01*
X147636597Y-142944682D01*
X146961914Y-143223455D01*
X146445270Y-143739199D01*
X146249865Y-144209785D01*
X146056545Y-143741914D01*
X145540801Y-143225270D01*
X144866605Y-142945319D01*
X144136597Y-142944682D01*
X143461914Y-143223455D01*
X142945270Y-143739199D01*
X142749865Y-144209785D01*
X142556545Y-143741914D01*
X142040801Y-143225270D01*
X141366605Y-142945319D01*
X140636597Y-142944682D01*
X139961914Y-143223455D01*
X139445270Y-143739199D01*
X139249865Y-144209785D01*
X139056545Y-143741914D01*
X138540801Y-143225270D01*
X137866605Y-142945319D01*
X137136597Y-142944682D01*
X136461914Y-143223455D01*
X135945270Y-143739199D01*
X135749865Y-144209785D01*
X135556545Y-143741914D01*
X135040801Y-143225270D01*
X134366605Y-142945319D01*
X133636597Y-142944682D01*
X132961914Y-143223455D01*
X132445270Y-143739199D01*
X132249865Y-144209785D01*
X132056545Y-143741914D01*
X131540801Y-143225270D01*
X130866605Y-142945319D01*
X130136597Y-142944682D01*
X129461914Y-143223455D01*
X128945270Y-143739199D01*
X128847440Y-143974799D01*
X128847440Y-143580000D01*
X128803162Y-143344683D01*
X128664090Y-143128559D01*
X128451890Y-142983569D01*
X128200000Y-142932560D01*
X125800000Y-142932560D01*
X125564683Y-142976838D01*
X125348559Y-143115910D01*
X125203569Y-143328110D01*
X125152560Y-143580000D01*
X116280000Y-143580000D01*
X116280000Y-134182000D01*
X183572560Y-134182000D01*
X183572560Y-136582000D01*
X183616838Y-136817317D01*
X183755910Y-137033441D01*
X183968110Y-137178431D01*
X184220000Y-137229440D01*
X186620000Y-137229440D01*
X186855317Y-137185162D01*
X187071441Y-137046090D01*
X187216431Y-136833890D01*
X187267440Y-136582000D01*
X187267440Y-134182000D01*
X187223162Y-133946683D01*
X187084090Y-133730559D01*
X186871890Y-133585569D01*
X186620000Y-133534560D01*
X186250819Y-133534560D01*
X186414435Y-133466788D01*
X186537570Y-133179175D01*
X185420000Y-132061605D01*
X184302430Y-133179175D01*
X184425565Y-133466788D01*
X184603436Y-133534560D01*
X184220000Y-133534560D01*
X183984683Y-133578838D01*
X183768559Y-133717910D01*
X183623569Y-133930110D01*
X183572560Y-134182000D01*
X116280000Y-134182000D01*
X116280000Y-131569734D01*
X183575293Y-131569734D01*
X183596214Y-132299443D01*
X183835212Y-132876435D01*
X184122825Y-132999570D01*
X185240395Y-131882000D01*
X185599605Y-131882000D01*
X186717175Y-132999570D01*
X187004788Y-132876435D01*
X187264707Y-132194266D01*
X187243786Y-131464557D01*
X187004788Y-130887565D01*
X186717175Y-130764430D01*
X185599605Y-131882000D01*
X185240395Y-131882000D01*
X184122825Y-130764430D01*
X183835212Y-130887565D01*
X183575293Y-131569734D01*
X116280000Y-131569734D01*
X116280000Y-130584825D01*
X184302430Y-130584825D01*
X185420000Y-131702395D01*
X186537570Y-130584825D01*
X186414435Y-130297212D01*
X185732266Y-130037293D01*
X185002557Y-130058214D01*
X184425565Y-130297212D01*
X184302430Y-130584825D01*
X116280000Y-130584825D01*
X116280000Y-123260000D01*
X120072560Y-123260000D01*
X120072560Y-125660000D01*
X120116838Y-125895317D01*
X120255910Y-126111441D01*
X120468110Y-126256431D01*
X120720000Y-126307440D01*
X121114288Y-126307440D01*
X120881914Y-126403455D01*
X120365270Y-126919199D01*
X120085319Y-127593395D01*
X120084682Y-128323403D01*
X120363455Y-128998086D01*
X120879199Y-129514730D01*
X121553395Y-129794681D01*
X122283403Y-129795318D01*
X122958086Y-129516545D01*
X123474730Y-129000801D01*
X123754681Y-128326605D01*
X123755318Y-127596597D01*
X123476545Y-126921914D01*
X122960801Y-126405270D01*
X122725201Y-126307440D01*
X123120000Y-126307440D01*
X123355317Y-126263162D01*
X123571441Y-126124090D01*
X123619331Y-126054000D01*
X183572560Y-126054000D01*
X183572560Y-128454000D01*
X183616838Y-128689317D01*
X183755910Y-128905441D01*
X183968110Y-129050431D01*
X184220000Y-129101440D01*
X186620000Y-129101440D01*
X186855317Y-129057162D01*
X187071441Y-128918090D01*
X187216431Y-128705890D01*
X187267440Y-128454000D01*
X187267440Y-126054000D01*
X187223162Y-125818683D01*
X187084090Y-125602559D01*
X186871890Y-125457569D01*
X186620000Y-125406560D01*
X186250819Y-125406560D01*
X186414435Y-125338788D01*
X186537570Y-125051175D01*
X185420000Y-123933605D01*
X184302430Y-125051175D01*
X184425565Y-125338788D01*
X184603436Y-125406560D01*
X184220000Y-125406560D01*
X183984683Y-125450838D01*
X183768559Y-125589910D01*
X183623569Y-125802110D01*
X183572560Y-126054000D01*
X123619331Y-126054000D01*
X123716431Y-125911890D01*
X123767440Y-125660000D01*
X123767440Y-123441734D01*
X183575293Y-123441734D01*
X183596214Y-124171443D01*
X183835212Y-124748435D01*
X184122825Y-124871570D01*
X185240395Y-123754000D01*
X185599605Y-123754000D01*
X186717175Y-124871570D01*
X187004788Y-124748435D01*
X187264707Y-124066266D01*
X187243786Y-123336557D01*
X187004788Y-122759565D01*
X186717175Y-122636430D01*
X185599605Y-123754000D01*
X185240395Y-123754000D01*
X184122825Y-122636430D01*
X183835212Y-122759565D01*
X183575293Y-123441734D01*
X123767440Y-123441734D01*
X123767440Y-123260000D01*
X123723162Y-123024683D01*
X123584090Y-122808559D01*
X123371890Y-122663569D01*
X123120000Y-122612560D01*
X120720000Y-122612560D01*
X120484683Y-122656838D01*
X120268559Y-122795910D01*
X120123569Y-123008110D01*
X120072560Y-123260000D01*
X116280000Y-123260000D01*
X116280000Y-122456825D01*
X184302430Y-122456825D01*
X185420000Y-123574395D01*
X186537570Y-122456825D01*
X186414435Y-122169212D01*
X185732266Y-121909293D01*
X185002557Y-121930214D01*
X184425565Y-122169212D01*
X184302430Y-122456825D01*
X116280000Y-122456825D01*
X116280000Y-121637175D01*
X120802430Y-121637175D01*
X120925565Y-121924788D01*
X121607734Y-122184707D01*
X122337443Y-122163786D01*
X122914435Y-121924788D01*
X123037570Y-121637175D01*
X121920000Y-120519605D01*
X120802430Y-121637175D01*
X116280000Y-121637175D01*
X116280000Y-120027734D01*
X120075293Y-120027734D01*
X120096214Y-120757443D01*
X120335212Y-121334435D01*
X120622825Y-121457570D01*
X121740395Y-120340000D01*
X122099605Y-120340000D01*
X123217175Y-121457570D01*
X123504788Y-121334435D01*
X123764707Y-120652266D01*
X123743786Y-119922557D01*
X123504788Y-119345565D01*
X123217175Y-119222430D01*
X122099605Y-120340000D01*
X121740395Y-120340000D01*
X120622825Y-119222430D01*
X120335212Y-119345565D01*
X120075293Y-120027734D01*
X116280000Y-120027734D01*
X116280000Y-115640000D01*
X120072560Y-115640000D01*
X120072560Y-118040000D01*
X120116838Y-118275317D01*
X120255910Y-118491441D01*
X120468110Y-118636431D01*
X120720000Y-118687440D01*
X121089181Y-118687440D01*
X120925565Y-118755212D01*
X120802430Y-119042825D01*
X121920000Y-120160395D01*
X123037570Y-119042825D01*
X122914435Y-118755212D01*
X122736564Y-118687440D01*
X123120000Y-118687440D01*
X123355317Y-118643162D01*
X123571441Y-118504090D01*
X123716431Y-118291890D01*
X123767440Y-118040000D01*
X123767440Y-117926000D01*
X183572560Y-117926000D01*
X183572560Y-120326000D01*
X183616838Y-120561317D01*
X183755910Y-120777441D01*
X183968110Y-120922431D01*
X184220000Y-120973440D01*
X186620000Y-120973440D01*
X186855317Y-120929162D01*
X187071441Y-120790090D01*
X187216431Y-120577890D01*
X187267440Y-120326000D01*
X187267440Y-117926000D01*
X187223162Y-117690683D01*
X187084090Y-117474559D01*
X186871890Y-117329569D01*
X186620000Y-117278560D01*
X186225712Y-117278560D01*
X186458086Y-117182545D01*
X186974730Y-116666801D01*
X187254681Y-115992605D01*
X187255318Y-115262597D01*
X186976545Y-114587914D01*
X186460801Y-114071270D01*
X185786605Y-113791319D01*
X185056597Y-113790682D01*
X184381914Y-114069455D01*
X183865270Y-114585199D01*
X183585319Y-115259395D01*
X183584682Y-115989403D01*
X183863455Y-116664086D01*
X184379199Y-117180730D01*
X184614799Y-117278560D01*
X184220000Y-117278560D01*
X183984683Y-117322838D01*
X183768559Y-117461910D01*
X183623569Y-117674110D01*
X183572560Y-117926000D01*
X123767440Y-117926000D01*
X123767440Y-115640000D01*
X123723162Y-115404683D01*
X123584090Y-115188559D01*
X123371890Y-115043569D01*
X123120000Y-114992560D01*
X120720000Y-114992560D01*
X120484683Y-115036838D01*
X120268559Y-115175910D01*
X120123569Y-115388110D01*
X120072560Y-115640000D01*
X116280000Y-115640000D01*
X116280000Y-57220000D01*
X120072560Y-57220000D01*
X120072560Y-59620000D01*
X120116838Y-59855317D01*
X120255910Y-60071441D01*
X120468110Y-60216431D01*
X120720000Y-60267440D01*
X121114288Y-60267440D01*
X120881914Y-60363455D01*
X120365270Y-60879199D01*
X120085319Y-61553395D01*
X120084682Y-62283403D01*
X120363455Y-62958086D01*
X120879199Y-63474730D01*
X121349785Y-63670135D01*
X120881914Y-63863455D01*
X120365270Y-64379199D01*
X120085319Y-65053395D01*
X120084682Y-65783403D01*
X120363455Y-66458086D01*
X120879199Y-66974730D01*
X121349785Y-67170135D01*
X120881914Y-67363455D01*
X120365270Y-67879199D01*
X120085319Y-68553395D01*
X120084682Y-69283403D01*
X120363455Y-69958086D01*
X120879199Y-70474730D01*
X121349785Y-70670135D01*
X120881914Y-70863455D01*
X120365270Y-71379199D01*
X120085319Y-72053395D01*
X120084682Y-72783403D01*
X120363455Y-73458086D01*
X120879199Y-73974730D01*
X121349785Y-74170135D01*
X120881914Y-74363455D01*
X120365270Y-74879199D01*
X120085319Y-75553395D01*
X120084682Y-76283403D01*
X120363455Y-76958086D01*
X120879199Y-77474730D01*
X121349785Y-77670135D01*
X120881914Y-77863455D01*
X120365270Y-78379199D01*
X120085319Y-79053395D01*
X120084682Y-79783403D01*
X120363455Y-80458086D01*
X120879199Y-80974730D01*
X121349785Y-81170135D01*
X120881914Y-81363455D01*
X120365270Y-81879199D01*
X120085319Y-82553395D01*
X120084682Y-83283403D01*
X120363455Y-83958086D01*
X120879199Y-84474730D01*
X121349785Y-84670135D01*
X120881914Y-84863455D01*
X120365270Y-85379199D01*
X120085319Y-86053395D01*
X120084682Y-86783403D01*
X120363455Y-87458086D01*
X120879199Y-87974730D01*
X121349785Y-88170135D01*
X120881914Y-88363455D01*
X120365270Y-88879199D01*
X120085319Y-89553395D01*
X120084682Y-90283403D01*
X120363455Y-90958086D01*
X120879199Y-91474730D01*
X121349785Y-91670135D01*
X120881914Y-91863455D01*
X120365270Y-92379199D01*
X120085319Y-93053395D01*
X120084682Y-93783403D01*
X120363455Y-94458086D01*
X120879199Y-94974730D01*
X121349785Y-95170135D01*
X120881914Y-95363455D01*
X120365270Y-95879199D01*
X120085319Y-96553395D01*
X120084682Y-97283403D01*
X120363455Y-97958086D01*
X120879199Y-98474730D01*
X121349785Y-98670135D01*
X120881914Y-98863455D01*
X120365270Y-99379199D01*
X120085319Y-100053395D01*
X120084682Y-100783403D01*
X120363455Y-101458086D01*
X120879199Y-101974730D01*
X121349785Y-102170135D01*
X120881914Y-102363455D01*
X120365270Y-102879199D01*
X120085319Y-103553395D01*
X120084682Y-104283403D01*
X120363455Y-104958086D01*
X120879199Y-105474730D01*
X121349785Y-105670135D01*
X120881914Y-105863455D01*
X120365270Y-106379199D01*
X120085319Y-107053395D01*
X120084682Y-107783403D01*
X120363455Y-108458086D01*
X120879199Y-108974730D01*
X121349785Y-109170135D01*
X120881914Y-109363455D01*
X120365270Y-109879199D01*
X120085319Y-110553395D01*
X120084682Y-111283403D01*
X120363455Y-111958086D01*
X120879199Y-112474730D01*
X121553395Y-112754681D01*
X122283403Y-112755318D01*
X122958086Y-112476545D01*
X123474730Y-111960801D01*
X123754681Y-111286605D01*
X123755318Y-110556597D01*
X123494348Y-109925000D01*
X183572560Y-109925000D01*
X183572560Y-112325000D01*
X183616838Y-112560317D01*
X183755910Y-112776441D01*
X183968110Y-112921431D01*
X184220000Y-112972440D01*
X186620000Y-112972440D01*
X186855317Y-112928162D01*
X187071441Y-112789090D01*
X187216431Y-112576890D01*
X187267440Y-112325000D01*
X187267440Y-109925000D01*
X187223162Y-109689683D01*
X187084090Y-109473559D01*
X186871890Y-109328569D01*
X186620000Y-109277560D01*
X186225712Y-109277560D01*
X186458086Y-109181545D01*
X186974730Y-108665801D01*
X187254681Y-107991605D01*
X187255318Y-107261597D01*
X186976545Y-106586914D01*
X186460801Y-106070270D01*
X185990215Y-105874865D01*
X186458086Y-105681545D01*
X186974730Y-105165801D01*
X187254681Y-104491605D01*
X187255318Y-103761597D01*
X186976545Y-103086914D01*
X186460801Y-102570270D01*
X185990215Y-102374865D01*
X186458086Y-102181545D01*
X186974730Y-101665801D01*
X187254681Y-100991605D01*
X187255318Y-100261597D01*
X186976545Y-99586914D01*
X186460801Y-99070270D01*
X185990215Y-98874865D01*
X186458086Y-98681545D01*
X186974730Y-98165801D01*
X187254681Y-97491605D01*
X187255318Y-96761597D01*
X186976545Y-96086914D01*
X186460801Y-95570270D01*
X185990215Y-95374865D01*
X186458086Y-95181545D01*
X186974730Y-94665801D01*
X187254681Y-93991605D01*
X187255318Y-93261597D01*
X186976545Y-92586914D01*
X186460801Y-92070270D01*
X185990215Y-91874865D01*
X186458086Y-91681545D01*
X186974730Y-91165801D01*
X187254681Y-90491605D01*
X187255318Y-89761597D01*
X186976545Y-89086914D01*
X186460801Y-88570270D01*
X185990215Y-88374865D01*
X186458086Y-88181545D01*
X186974730Y-87665801D01*
X187254681Y-86991605D01*
X187255318Y-86261597D01*
X186976545Y-85586914D01*
X186460801Y-85070270D01*
X185990215Y-84874865D01*
X186458086Y-84681545D01*
X186974730Y-84165801D01*
X187254681Y-83491605D01*
X187255318Y-82761597D01*
X186976545Y-82086914D01*
X186460801Y-81570270D01*
X185990215Y-81374865D01*
X186458086Y-81181545D01*
X186974730Y-80665801D01*
X187254681Y-79991605D01*
X187255318Y-79261597D01*
X186976545Y-78586914D01*
X186460801Y-78070270D01*
X185990215Y-77874865D01*
X186458086Y-77681545D01*
X186974730Y-77165801D01*
X187254681Y-76491605D01*
X187255318Y-75761597D01*
X186976545Y-75086914D01*
X186460801Y-74570270D01*
X185990215Y-74374865D01*
X186458086Y-74181545D01*
X186974730Y-73665801D01*
X187254681Y-72991605D01*
X187255318Y-72261597D01*
X186976545Y-71586914D01*
X186460801Y-71070270D01*
X185990215Y-70874865D01*
X186458086Y-70681545D01*
X186974730Y-70165801D01*
X187254681Y-69491605D01*
X187255318Y-68761597D01*
X186976545Y-68086914D01*
X186460801Y-67570270D01*
X185990215Y-67374865D01*
X186458086Y-67181545D01*
X186974730Y-66665801D01*
X187254681Y-65991605D01*
X187255318Y-65261597D01*
X186976545Y-64586914D01*
X186460801Y-64070270D01*
X185990215Y-63874865D01*
X186458086Y-63681545D01*
X186974730Y-63165801D01*
X187254681Y-62491605D01*
X187255318Y-61761597D01*
X186976545Y-61086914D01*
X186460801Y-60570270D01*
X185990215Y-60374865D01*
X186458086Y-60181545D01*
X186974730Y-59665801D01*
X187254681Y-58991605D01*
X187255318Y-58261597D01*
X186976545Y-57586914D01*
X186460801Y-57070270D01*
X185786605Y-56790319D01*
X185056597Y-56789682D01*
X184381914Y-57068455D01*
X183865270Y-57584199D01*
X183585319Y-58258395D01*
X183584682Y-58988403D01*
X183863455Y-59663086D01*
X184379199Y-60179730D01*
X184849785Y-60375135D01*
X184381914Y-60568455D01*
X183865270Y-61084199D01*
X183585319Y-61758395D01*
X183584682Y-62488403D01*
X183863455Y-63163086D01*
X184379199Y-63679730D01*
X184849785Y-63875135D01*
X184381914Y-64068455D01*
X183865270Y-64584199D01*
X183585319Y-65258395D01*
X183584682Y-65988403D01*
X183863455Y-66663086D01*
X184379199Y-67179730D01*
X184849785Y-67375135D01*
X184381914Y-67568455D01*
X183865270Y-68084199D01*
X183585319Y-68758395D01*
X183584682Y-69488403D01*
X183863455Y-70163086D01*
X184379199Y-70679730D01*
X184849785Y-70875135D01*
X184381914Y-71068455D01*
X183865270Y-71584199D01*
X183585319Y-72258395D01*
X183584682Y-72988403D01*
X183863455Y-73663086D01*
X184379199Y-74179730D01*
X184849785Y-74375135D01*
X184381914Y-74568455D01*
X183865270Y-75084199D01*
X183585319Y-75758395D01*
X183584682Y-76488403D01*
X183863455Y-77163086D01*
X184379199Y-77679730D01*
X184849785Y-77875135D01*
X184381914Y-78068455D01*
X183865270Y-78584199D01*
X183585319Y-79258395D01*
X183584682Y-79988403D01*
X183863455Y-80663086D01*
X184379199Y-81179730D01*
X184849785Y-81375135D01*
X184381914Y-81568455D01*
X183865270Y-82084199D01*
X183585319Y-82758395D01*
X183584682Y-83488403D01*
X183863455Y-84163086D01*
X184379199Y-84679730D01*
X184849785Y-84875135D01*
X184381914Y-85068455D01*
X183865270Y-85584199D01*
X183585319Y-86258395D01*
X183584682Y-86988403D01*
X183863455Y-87663086D01*
X184379199Y-88179730D01*
X184849785Y-88375135D01*
X184381914Y-88568455D01*
X183865270Y-89084199D01*
X183585319Y-89758395D01*
X183584682Y-90488403D01*
X183863455Y-91163086D01*
X184379199Y-91679730D01*
X184849785Y-91875135D01*
X184381914Y-92068455D01*
X183865270Y-92584199D01*
X183585319Y-93258395D01*
X183584682Y-93988403D01*
X183863455Y-94663086D01*
X184379199Y-95179730D01*
X184849785Y-95375135D01*
X184381914Y-95568455D01*
X183865270Y-96084199D01*
X183585319Y-96758395D01*
X183584682Y-97488403D01*
X183863455Y-98163086D01*
X184379199Y-98679730D01*
X184849785Y-98875135D01*
X184381914Y-99068455D01*
X183865270Y-99584199D01*
X183585319Y-100258395D01*
X183584682Y-100988403D01*
X183863455Y-101663086D01*
X184379199Y-102179730D01*
X184849785Y-102375135D01*
X184381914Y-102568455D01*
X183865270Y-103084199D01*
X183585319Y-103758395D01*
X183584682Y-104488403D01*
X183863455Y-105163086D01*
X184379199Y-105679730D01*
X184849785Y-105875135D01*
X184381914Y-106068455D01*
X183865270Y-106584199D01*
X183585319Y-107258395D01*
X183584682Y-107988403D01*
X183863455Y-108663086D01*
X184379199Y-109179730D01*
X184614799Y-109277560D01*
X184220000Y-109277560D01*
X183984683Y-109321838D01*
X183768559Y-109460910D01*
X183623569Y-109673110D01*
X183572560Y-109925000D01*
X123494348Y-109925000D01*
X123476545Y-109881914D01*
X122960801Y-109365270D01*
X122490215Y-109169865D01*
X122958086Y-108976545D01*
X123474730Y-108460801D01*
X123754681Y-107786605D01*
X123755318Y-107056597D01*
X123476545Y-106381914D01*
X122960801Y-105865270D01*
X122490215Y-105669865D01*
X122958086Y-105476545D01*
X123474730Y-104960801D01*
X123754681Y-104286605D01*
X123754811Y-104137040D01*
X149467780Y-104137040D01*
X149467780Y-106677040D01*
X149512058Y-106912357D01*
X149651130Y-107128481D01*
X149863330Y-107273471D01*
X150115220Y-107324480D01*
X152655220Y-107324480D01*
X152890537Y-107280202D01*
X153106661Y-107141130D01*
X153251651Y-106928930D01*
X153286909Y-106754817D01*
X165457048Y-106754817D01*
X165588740Y-107049697D01*
X166296256Y-107321301D01*
X167053852Y-107301476D01*
X167661700Y-107049697D01*
X167793392Y-106754817D01*
X166625220Y-105586645D01*
X165457048Y-106754817D01*
X153286909Y-106754817D01*
X153302660Y-106677040D01*
X153302660Y-105078076D01*
X164710959Y-105078076D01*
X164730784Y-105835672D01*
X164982563Y-106443520D01*
X165277443Y-106575212D01*
X166445615Y-105407040D01*
X166804825Y-105407040D01*
X167972997Y-106575212D01*
X168267877Y-106443520D01*
X168539481Y-105736004D01*
X168519656Y-104978408D01*
X168267877Y-104370560D01*
X167972997Y-104238868D01*
X166804825Y-105407040D01*
X166445615Y-105407040D01*
X165277443Y-104238868D01*
X164982563Y-104370560D01*
X164710959Y-105078076D01*
X153302660Y-105078076D01*
X153302660Y-104137040D01*
X153288026Y-104059263D01*
X165457048Y-104059263D01*
X166625220Y-105227435D01*
X167793392Y-104059263D01*
X167661700Y-103764383D01*
X166954184Y-103492779D01*
X166196588Y-103512604D01*
X165588740Y-103764383D01*
X165457048Y-104059263D01*
X153288026Y-104059263D01*
X153258382Y-103901723D01*
X153119310Y-103685599D01*
X152907110Y-103540609D01*
X152655220Y-103489600D01*
X150115220Y-103489600D01*
X149879903Y-103533878D01*
X149663779Y-103672950D01*
X149518789Y-103885150D01*
X149467780Y-104137040D01*
X123754811Y-104137040D01*
X123755318Y-103556597D01*
X123476545Y-102881914D01*
X122960801Y-102365270D01*
X122490215Y-102169865D01*
X122958086Y-101976545D01*
X123474730Y-101460801D01*
X123754681Y-100786605D01*
X123755318Y-100056597D01*
X123476545Y-99381914D01*
X122960801Y-98865270D01*
X122490215Y-98669865D01*
X122958086Y-98476545D01*
X123474730Y-97960801D01*
X123754681Y-97286605D01*
X123755318Y-96556597D01*
X123476545Y-95881914D01*
X122960801Y-95365270D01*
X122490215Y-95169865D01*
X122958086Y-94976545D01*
X123474730Y-94460801D01*
X123754681Y-93786605D01*
X123755318Y-93056597D01*
X123476545Y-92381914D01*
X122960801Y-91865270D01*
X122490215Y-91669865D01*
X122958086Y-91476545D01*
X123474730Y-90960801D01*
X123754681Y-90286605D01*
X123755318Y-89556597D01*
X123476545Y-88881914D01*
X122960801Y-88365270D01*
X122490215Y-88169865D01*
X122958086Y-87976545D01*
X123474730Y-87460801D01*
X123754681Y-86786605D01*
X123755318Y-86056597D01*
X123476545Y-85381914D01*
X122960801Y-84865270D01*
X122490215Y-84669865D01*
X122958086Y-84476545D01*
X123474730Y-83960801D01*
X123754681Y-83286605D01*
X123755318Y-82556597D01*
X123476545Y-81881914D01*
X122960801Y-81365270D01*
X122490215Y-81169865D01*
X122958086Y-80976545D01*
X123474730Y-80460801D01*
X123754681Y-79786605D01*
X123755318Y-79056597D01*
X123476545Y-78381914D01*
X122960801Y-77865270D01*
X122490215Y-77669865D01*
X122958086Y-77476545D01*
X123474730Y-76960801D01*
X123754681Y-76286605D01*
X123755318Y-75556597D01*
X123476545Y-74881914D01*
X122960801Y-74365270D01*
X122490215Y-74169865D01*
X122958086Y-73976545D01*
X123474730Y-73460801D01*
X123754681Y-72786605D01*
X123755318Y-72056597D01*
X123476545Y-71381914D01*
X122960801Y-70865270D01*
X122490215Y-70669865D01*
X122958086Y-70476545D01*
X123474730Y-69960801D01*
X123754681Y-69286605D01*
X123755318Y-68556597D01*
X123476545Y-67881914D01*
X122960801Y-67365270D01*
X122490215Y-67169865D01*
X122958086Y-66976545D01*
X123474730Y-66460801D01*
X123754681Y-65786605D01*
X123755318Y-65056597D01*
X123476545Y-64381914D01*
X122960801Y-63865270D01*
X122490215Y-63669865D01*
X122958086Y-63476545D01*
X123474730Y-62960801D01*
X123754681Y-62286605D01*
X123755318Y-61556597D01*
X123476545Y-60881914D01*
X122960801Y-60365270D01*
X122725201Y-60267440D01*
X123120000Y-60267440D01*
X123355317Y-60223162D01*
X123571441Y-60084090D01*
X123716431Y-59871890D01*
X123767440Y-59620000D01*
X123767440Y-57220000D01*
X123723162Y-56984683D01*
X123584090Y-56768559D01*
X123371890Y-56623569D01*
X123120000Y-56572560D01*
X120720000Y-56572560D01*
X120484683Y-56616838D01*
X120268559Y-56755910D01*
X120123569Y-56968110D01*
X120072560Y-57220000D01*
X116280000Y-57220000D01*
X116280000Y-53703403D01*
X126004682Y-53703403D01*
X126283455Y-54378086D01*
X126799199Y-54894730D01*
X127473395Y-55174681D01*
X128203403Y-55175318D01*
X128878086Y-54896545D01*
X129394730Y-54380801D01*
X129590135Y-53910215D01*
X129783455Y-54378086D01*
X130299199Y-54894730D01*
X130973395Y-55174681D01*
X131703403Y-55175318D01*
X132378086Y-54896545D01*
X132894730Y-54380801D01*
X133090135Y-53910215D01*
X133283455Y-54378086D01*
X133799199Y-54894730D01*
X134473395Y-55174681D01*
X135203403Y-55175318D01*
X135878086Y-54896545D01*
X136394730Y-54380801D01*
X136590135Y-53910215D01*
X136783455Y-54378086D01*
X137299199Y-54894730D01*
X137973395Y-55174681D01*
X138703403Y-55175318D01*
X139378086Y-54896545D01*
X139894730Y-54380801D01*
X140090135Y-53910215D01*
X140283455Y-54378086D01*
X140799199Y-54894730D01*
X141473395Y-55174681D01*
X142203403Y-55175318D01*
X142878086Y-54896545D01*
X143394730Y-54380801D01*
X143590135Y-53910215D01*
X143783455Y-54378086D01*
X144299199Y-54894730D01*
X144973395Y-55174681D01*
X145703403Y-55175318D01*
X146378086Y-54896545D01*
X146894730Y-54380801D01*
X147090135Y-53910215D01*
X147283455Y-54378086D01*
X147799199Y-54894730D01*
X148473395Y-55174681D01*
X149203403Y-55175318D01*
X149878086Y-54896545D01*
X150394730Y-54380801D01*
X150590135Y-53910215D01*
X150783455Y-54378086D01*
X151299199Y-54894730D01*
X151973395Y-55174681D01*
X152703403Y-55175318D01*
X153378086Y-54896545D01*
X153894730Y-54380801D01*
X154090135Y-53910215D01*
X154283455Y-54378086D01*
X154799199Y-54894730D01*
X155473395Y-55174681D01*
X156203403Y-55175318D01*
X156878086Y-54896545D01*
X157394730Y-54380801D01*
X157590135Y-53910215D01*
X157783455Y-54378086D01*
X158299199Y-54894730D01*
X158973395Y-55174681D01*
X159703403Y-55175318D01*
X160378086Y-54896545D01*
X160894730Y-54380801D01*
X161090135Y-53910215D01*
X161283455Y-54378086D01*
X161799199Y-54894730D01*
X162473395Y-55174681D01*
X163203403Y-55175318D01*
X163878086Y-54896545D01*
X164394730Y-54380801D01*
X164590135Y-53910215D01*
X164783455Y-54378086D01*
X165299199Y-54894730D01*
X165973395Y-55174681D01*
X166703403Y-55175318D01*
X167378086Y-54896545D01*
X167894730Y-54380801D01*
X168090135Y-53910215D01*
X168283455Y-54378086D01*
X168799199Y-54894730D01*
X169473395Y-55174681D01*
X170203403Y-55175318D01*
X170878086Y-54896545D01*
X171394730Y-54380801D01*
X171590135Y-53910215D01*
X171783455Y-54378086D01*
X172299199Y-54894730D01*
X172973395Y-55174681D01*
X173703403Y-55175318D01*
X174378086Y-54896545D01*
X174894730Y-54380801D01*
X175090135Y-53910215D01*
X175283455Y-54378086D01*
X175799199Y-54894730D01*
X176473395Y-55174681D01*
X177203403Y-55175318D01*
X177878086Y-54896545D01*
X178394730Y-54380801D01*
X178492560Y-54145201D01*
X178492560Y-54540000D01*
X178536838Y-54775317D01*
X178675910Y-54991441D01*
X178888110Y-55136431D01*
X179140000Y-55187440D01*
X181540000Y-55187440D01*
X181775317Y-55143162D01*
X181991441Y-55004090D01*
X182136431Y-54791890D01*
X182187440Y-54540000D01*
X182187440Y-52140000D01*
X182143162Y-51904683D01*
X182004090Y-51688559D01*
X181791890Y-51543569D01*
X181540000Y-51492560D01*
X179140000Y-51492560D01*
X178904683Y-51536838D01*
X178688559Y-51675910D01*
X178543569Y-51888110D01*
X178492560Y-52140000D01*
X178492560Y-52534288D01*
X178396545Y-52301914D01*
X177880801Y-51785270D01*
X177206605Y-51505319D01*
X176476597Y-51504682D01*
X175801914Y-51783455D01*
X175285270Y-52299199D01*
X175089865Y-52769785D01*
X174896545Y-52301914D01*
X174380801Y-51785270D01*
X173706605Y-51505319D01*
X172976597Y-51504682D01*
X172301914Y-51783455D01*
X171785270Y-52299199D01*
X171589865Y-52769785D01*
X171396545Y-52301914D01*
X170880801Y-51785270D01*
X170206605Y-51505319D01*
X169476597Y-51504682D01*
X168801914Y-51783455D01*
X168285270Y-52299199D01*
X168089865Y-52769785D01*
X167896545Y-52301914D01*
X167380801Y-51785270D01*
X166706605Y-51505319D01*
X165976597Y-51504682D01*
X165301914Y-51783455D01*
X164785270Y-52299199D01*
X164589865Y-52769785D01*
X164396545Y-52301914D01*
X163880801Y-51785270D01*
X163206605Y-51505319D01*
X162476597Y-51504682D01*
X161801914Y-51783455D01*
X161285270Y-52299199D01*
X161089865Y-52769785D01*
X160896545Y-52301914D01*
X160380801Y-51785270D01*
X159706605Y-51505319D01*
X158976597Y-51504682D01*
X158301914Y-51783455D01*
X157785270Y-52299199D01*
X157589865Y-52769785D01*
X157396545Y-52301914D01*
X156880801Y-51785270D01*
X156206605Y-51505319D01*
X155476597Y-51504682D01*
X154801914Y-51783455D01*
X154285270Y-52299199D01*
X154089865Y-52769785D01*
X153896545Y-52301914D01*
X153380801Y-51785270D01*
X152706605Y-51505319D01*
X151976597Y-51504682D01*
X151301914Y-51783455D01*
X150785270Y-52299199D01*
X150589865Y-52769785D01*
X150396545Y-52301914D01*
X149880801Y-51785270D01*
X149206605Y-51505319D01*
X148476597Y-51504682D01*
X147801914Y-51783455D01*
X147285270Y-52299199D01*
X147089865Y-52769785D01*
X146896545Y-52301914D01*
X146380801Y-51785270D01*
X145706605Y-51505319D01*
X144976597Y-51504682D01*
X144301914Y-51783455D01*
X143785270Y-52299199D01*
X143589865Y-52769785D01*
X143396545Y-52301914D01*
X142880801Y-51785270D01*
X142206605Y-51505319D01*
X141476597Y-51504682D01*
X140801914Y-51783455D01*
X140285270Y-52299199D01*
X140089865Y-52769785D01*
X139896545Y-52301914D01*
X139380801Y-51785270D01*
X138706605Y-51505319D01*
X137976597Y-51504682D01*
X137301914Y-51783455D01*
X136785270Y-52299199D01*
X136589865Y-52769785D01*
X136396545Y-52301914D01*
X135880801Y-51785270D01*
X135206605Y-51505319D01*
X134476597Y-51504682D01*
X133801914Y-51783455D01*
X133285270Y-52299199D01*
X133089865Y-52769785D01*
X132896545Y-52301914D01*
X132380801Y-51785270D01*
X131706605Y-51505319D01*
X130976597Y-51504682D01*
X130301914Y-51783455D01*
X129785270Y-52299199D01*
X129589865Y-52769785D01*
X129396545Y-52301914D01*
X128880801Y-51785270D01*
X128206605Y-51505319D01*
X127476597Y-51504682D01*
X126801914Y-51783455D01*
X126285270Y-52299199D01*
X126005319Y-52973395D01*
X126004682Y-53703403D01*
X116280000Y-53703403D01*
X116280000Y-48970000D01*
X191060000Y-48970000D01*
X191060000Y-149150000D01*
X191060000Y-149150000D01*
G37*
X191060000Y-149150000D02*
X116280000Y-149150000D01*
X116280000Y-143580000D01*
X125152560Y-143580000D01*
X125152560Y-145980000D01*
X125196838Y-146215317D01*
X125335910Y-146431441D01*
X125548110Y-146576431D01*
X125800000Y-146627440D01*
X128200000Y-146627440D01*
X128435317Y-146583162D01*
X128651441Y-146444090D01*
X128796431Y-146231890D01*
X128847440Y-145980000D01*
X128847440Y-145585712D01*
X128943455Y-145818086D01*
X129459199Y-146334730D01*
X130133395Y-146614681D01*
X130863403Y-146615318D01*
X131538086Y-146336545D01*
X132054730Y-145820801D01*
X132250135Y-145350215D01*
X132443455Y-145818086D01*
X132959199Y-146334730D01*
X133633395Y-146614681D01*
X134363403Y-146615318D01*
X135038086Y-146336545D01*
X135554730Y-145820801D01*
X135750135Y-145350215D01*
X135943455Y-145818086D01*
X136459199Y-146334730D01*
X137133395Y-146614681D01*
X137863403Y-146615318D01*
X138538086Y-146336545D01*
X139054730Y-145820801D01*
X139250135Y-145350215D01*
X139443455Y-145818086D01*
X139959199Y-146334730D01*
X140633395Y-146614681D01*
X141363403Y-146615318D01*
X142038086Y-146336545D01*
X142554730Y-145820801D01*
X142750135Y-145350215D01*
X142943455Y-145818086D01*
X143459199Y-146334730D01*
X144133395Y-146614681D01*
X144863403Y-146615318D01*
X145538086Y-146336545D01*
X146054730Y-145820801D01*
X146250135Y-145350215D01*
X146443455Y-145818086D01*
X146959199Y-146334730D01*
X147633395Y-146614681D01*
X148363403Y-146615318D01*
X149038086Y-146336545D01*
X149554730Y-145820801D01*
X149750135Y-145350215D01*
X149943455Y-145818086D01*
X150459199Y-146334730D01*
X151133395Y-146614681D01*
X151863403Y-146615318D01*
X152538086Y-146336545D01*
X153054730Y-145820801D01*
X153250135Y-145350215D01*
X153443455Y-145818086D01*
X153959199Y-146334730D01*
X154633395Y-146614681D01*
X155363403Y-146615318D01*
X156038086Y-146336545D01*
X156554730Y-145820801D01*
X156750135Y-145350215D01*
X156943455Y-145818086D01*
X157459199Y-146334730D01*
X158133395Y-146614681D01*
X158863403Y-146615318D01*
X159538086Y-146336545D01*
X160054730Y-145820801D01*
X160250135Y-145350215D01*
X160443455Y-145818086D01*
X160959199Y-146334730D01*
X161633395Y-146614681D01*
X162363403Y-146615318D01*
X163038086Y-146336545D01*
X163554730Y-145820801D01*
X163750135Y-145350215D01*
X163943455Y-145818086D01*
X164459199Y-146334730D01*
X165133395Y-146614681D01*
X165863403Y-146615318D01*
X166538086Y-146336545D01*
X167054730Y-145820801D01*
X167250135Y-145350215D01*
X167443455Y-145818086D01*
X167959199Y-146334730D01*
X168633395Y-146614681D01*
X169363403Y-146615318D01*
X170038086Y-146336545D01*
X170554730Y-145820801D01*
X170750135Y-145350215D01*
X170943455Y-145818086D01*
X171459199Y-146334730D01*
X172133395Y-146614681D01*
X172863403Y-146615318D01*
X173538086Y-146336545D01*
X174054730Y-145820801D01*
X174250135Y-145350215D01*
X174443455Y-145818086D01*
X174959199Y-146334730D01*
X175633395Y-146614681D01*
X176363403Y-146615318D01*
X177038086Y-146336545D01*
X177554730Y-145820801D01*
X177750135Y-145350215D01*
X177943455Y-145818086D01*
X178459199Y-146334730D01*
X179133395Y-146614681D01*
X179863403Y-146615318D01*
X180538086Y-146336545D01*
X181054730Y-145820801D01*
X181334681Y-145146605D01*
X181335318Y-144416597D01*
X181056545Y-143741914D01*
X180540801Y-143225270D01*
X179866605Y-142945319D01*
X179136597Y-142944682D01*
X178461914Y-143223455D01*
X177945270Y-143739199D01*
X177749865Y-144209785D01*
X177556545Y-143741914D01*
X177040801Y-143225270D01*
X176366605Y-142945319D01*
X175636597Y-142944682D01*
X174961914Y-143223455D01*
X174445270Y-143739199D01*
X174249865Y-144209785D01*
X174056545Y-143741914D01*
X173540801Y-143225270D01*
X172866605Y-142945319D01*
X172136597Y-142944682D01*
X171461914Y-143223455D01*
X170945270Y-143739199D01*
X170749865Y-144209785D01*
X170556545Y-143741914D01*
X170040801Y-143225270D01*
X169366605Y-142945319D01*
X168636597Y-142944682D01*
X167961914Y-143223455D01*
X167445270Y-143739199D01*
X167249865Y-144209785D01*
X167056545Y-143741914D01*
X166540801Y-143225270D01*
X165866605Y-142945319D01*
X165136597Y-142944682D01*
X164461914Y-143223455D01*
X163945270Y-143739199D01*
X163749865Y-144209785D01*
X163556545Y-143741914D01*
X163040801Y-143225270D01*
X162366605Y-142945319D01*
X161636597Y-142944682D01*
X160961914Y-143223455D01*
X160445270Y-143739199D01*
X160249865Y-144209785D01*
X160056545Y-143741914D01*
X159540801Y-143225270D01*
X158866605Y-142945319D01*
X158136597Y-142944682D01*
X157461914Y-143223455D01*
X156945270Y-143739199D01*
X156749865Y-144209785D01*
X156556545Y-143741914D01*
X156040801Y-143225270D01*
X155366605Y-142945319D01*
X154636597Y-142944682D01*
X153961914Y-143223455D01*
X153445270Y-143739199D01*
X153249865Y-144209785D01*
X153056545Y-143741914D01*
X152540801Y-143225270D01*
X151866605Y-142945319D01*
X151136597Y-142944682D01*
X150461914Y-143223455D01*
X149945270Y-143739199D01*
X149749865Y-144209785D01*
X149556545Y-143741914D01*
X149040801Y-143225270D01*
X148366605Y-142945319D01*
X147636597Y-142944682D01*
X146961914Y-143223455D01*
X146445270Y-143739199D01*
X146249865Y-144209785D01*
X146056545Y-143741914D01*
X145540801Y-143225270D01*
X144866605Y-142945319D01*
X144136597Y-142944682D01*
X143461914Y-143223455D01*
X142945270Y-143739199D01*
X142749865Y-144209785D01*
X142556545Y-143741914D01*
X142040801Y-143225270D01*
X141366605Y-142945319D01*
X140636597Y-142944682D01*
X139961914Y-143223455D01*
X139445270Y-143739199D01*
X139249865Y-144209785D01*
X139056545Y-143741914D01*
X138540801Y-143225270D01*
X137866605Y-142945319D01*
X137136597Y-142944682D01*
X136461914Y-143223455D01*
X135945270Y-143739199D01*
X135749865Y-144209785D01*
X135556545Y-143741914D01*
X135040801Y-143225270D01*
X134366605Y-142945319D01*
X133636597Y-142944682D01*
X132961914Y-143223455D01*
X132445270Y-143739199D01*
X132249865Y-144209785D01*
X132056545Y-143741914D01*
X131540801Y-143225270D01*
X130866605Y-142945319D01*
X130136597Y-142944682D01*
X129461914Y-143223455D01*
X128945270Y-143739199D01*
X128847440Y-143974799D01*
X128847440Y-143580000D01*
X128803162Y-143344683D01*
X128664090Y-143128559D01*
X128451890Y-142983569D01*
X128200000Y-142932560D01*
X125800000Y-142932560D01*
X125564683Y-142976838D01*
X125348559Y-143115910D01*
X125203569Y-143328110D01*
X125152560Y-143580000D01*
X116280000Y-143580000D01*
X116280000Y-134182000D01*
X183572560Y-134182000D01*
X183572560Y-136582000D01*
X183616838Y-136817317D01*
X183755910Y-137033441D01*
X183968110Y-137178431D01*
X184220000Y-137229440D01*
X186620000Y-137229440D01*
X186855317Y-137185162D01*
X187071441Y-137046090D01*
X187216431Y-136833890D01*
X187267440Y-136582000D01*
X187267440Y-134182000D01*
X187223162Y-133946683D01*
X187084090Y-133730559D01*
X186871890Y-133585569D01*
X186620000Y-133534560D01*
X186250819Y-133534560D01*
X186414435Y-133466788D01*
X186537570Y-133179175D01*
X185420000Y-132061605D01*
X184302430Y-133179175D01*
X184425565Y-133466788D01*
X184603436Y-133534560D01*
X184220000Y-133534560D01*
X183984683Y-133578838D01*
X183768559Y-133717910D01*
X183623569Y-133930110D01*
X183572560Y-134182000D01*
X116280000Y-134182000D01*
X116280000Y-131569734D01*
X183575293Y-131569734D01*
X183596214Y-132299443D01*
X183835212Y-132876435D01*
X184122825Y-132999570D01*
X185240395Y-131882000D01*
X185599605Y-131882000D01*
X186717175Y-132999570D01*
X187004788Y-132876435D01*
X187264707Y-132194266D01*
X187243786Y-131464557D01*
X187004788Y-130887565D01*
X186717175Y-130764430D01*
X185599605Y-131882000D01*
X185240395Y-131882000D01*
X184122825Y-130764430D01*
X183835212Y-130887565D01*
X183575293Y-131569734D01*
X116280000Y-131569734D01*
X116280000Y-130584825D01*
X184302430Y-130584825D01*
X185420000Y-131702395D01*
X186537570Y-130584825D01*
X186414435Y-130297212D01*
X185732266Y-130037293D01*
X185002557Y-130058214D01*
X184425565Y-130297212D01*
X184302430Y-130584825D01*
X116280000Y-130584825D01*
X116280000Y-123260000D01*
X120072560Y-123260000D01*
X120072560Y-125660000D01*
X120116838Y-125895317D01*
X120255910Y-126111441D01*
X120468110Y-126256431D01*
X120720000Y-126307440D01*
X121114288Y-126307440D01*
X120881914Y-126403455D01*
X120365270Y-126919199D01*
X120085319Y-127593395D01*
X120084682Y-128323403D01*
X120363455Y-128998086D01*
X120879199Y-129514730D01*
X121553395Y-129794681D01*
X122283403Y-129795318D01*
X122958086Y-129516545D01*
X123474730Y-129000801D01*
X123754681Y-128326605D01*
X123755318Y-127596597D01*
X123476545Y-126921914D01*
X122960801Y-126405270D01*
X122725201Y-126307440D01*
X123120000Y-126307440D01*
X123355317Y-126263162D01*
X123571441Y-126124090D01*
X123619331Y-126054000D01*
X183572560Y-126054000D01*
X183572560Y-128454000D01*
X183616838Y-128689317D01*
X183755910Y-128905441D01*
X183968110Y-129050431D01*
X184220000Y-129101440D01*
X186620000Y-129101440D01*
X186855317Y-129057162D01*
X187071441Y-128918090D01*
X187216431Y-128705890D01*
X187267440Y-128454000D01*
X187267440Y-126054000D01*
X187223162Y-125818683D01*
X187084090Y-125602559D01*
X186871890Y-125457569D01*
X186620000Y-125406560D01*
X186250819Y-125406560D01*
X186414435Y-125338788D01*
X186537570Y-125051175D01*
X185420000Y-123933605D01*
X184302430Y-125051175D01*
X184425565Y-125338788D01*
X184603436Y-125406560D01*
X184220000Y-125406560D01*
X183984683Y-125450838D01*
X183768559Y-125589910D01*
X183623569Y-125802110D01*
X183572560Y-126054000D01*
X123619331Y-126054000D01*
X123716431Y-125911890D01*
X123767440Y-125660000D01*
X123767440Y-123441734D01*
X183575293Y-123441734D01*
X183596214Y-124171443D01*
X183835212Y-124748435D01*
X184122825Y-124871570D01*
X185240395Y-123754000D01*
X185599605Y-123754000D01*
X186717175Y-124871570D01*
X187004788Y-124748435D01*
X187264707Y-124066266D01*
X187243786Y-123336557D01*
X187004788Y-122759565D01*
X186717175Y-122636430D01*
X185599605Y-123754000D01*
X185240395Y-123754000D01*
X184122825Y-122636430D01*
X183835212Y-122759565D01*
X183575293Y-123441734D01*
X123767440Y-123441734D01*
X123767440Y-123260000D01*
X123723162Y-123024683D01*
X123584090Y-122808559D01*
X123371890Y-122663569D01*
X123120000Y-122612560D01*
X120720000Y-122612560D01*
X120484683Y-122656838D01*
X120268559Y-122795910D01*
X120123569Y-123008110D01*
X120072560Y-123260000D01*
X116280000Y-123260000D01*
X116280000Y-122456825D01*
X184302430Y-122456825D01*
X185420000Y-123574395D01*
X186537570Y-122456825D01*
X186414435Y-122169212D01*
X185732266Y-121909293D01*
X185002557Y-121930214D01*
X184425565Y-122169212D01*
X184302430Y-122456825D01*
X116280000Y-122456825D01*
X116280000Y-121637175D01*
X120802430Y-121637175D01*
X120925565Y-121924788D01*
X121607734Y-122184707D01*
X122337443Y-122163786D01*
X122914435Y-121924788D01*
X123037570Y-121637175D01*
X121920000Y-120519605D01*
X120802430Y-121637175D01*
X116280000Y-121637175D01*
X116280000Y-120027734D01*
X120075293Y-120027734D01*
X120096214Y-120757443D01*
X120335212Y-121334435D01*
X120622825Y-121457570D01*
X121740395Y-120340000D01*
X122099605Y-120340000D01*
X123217175Y-121457570D01*
X123504788Y-121334435D01*
X123764707Y-120652266D01*
X123743786Y-119922557D01*
X123504788Y-119345565D01*
X123217175Y-119222430D01*
X122099605Y-120340000D01*
X121740395Y-120340000D01*
X120622825Y-119222430D01*
X120335212Y-119345565D01*
X120075293Y-120027734D01*
X116280000Y-120027734D01*
X116280000Y-115640000D01*
X120072560Y-115640000D01*
X120072560Y-118040000D01*
X120116838Y-118275317D01*
X120255910Y-118491441D01*
X120468110Y-118636431D01*
X120720000Y-118687440D01*
X121089181Y-118687440D01*
X120925565Y-118755212D01*
X120802430Y-119042825D01*
X121920000Y-120160395D01*
X123037570Y-119042825D01*
X122914435Y-118755212D01*
X122736564Y-118687440D01*
X123120000Y-118687440D01*
X123355317Y-118643162D01*
X123571441Y-118504090D01*
X123716431Y-118291890D01*
X123767440Y-118040000D01*
X123767440Y-117926000D01*
X183572560Y-117926000D01*
X183572560Y-120326000D01*
X183616838Y-120561317D01*
X183755910Y-120777441D01*
X183968110Y-120922431D01*
X184220000Y-120973440D01*
X186620000Y-120973440D01*
X186855317Y-120929162D01*
X187071441Y-120790090D01*
X187216431Y-120577890D01*
X187267440Y-120326000D01*
X187267440Y-117926000D01*
X187223162Y-117690683D01*
X187084090Y-117474559D01*
X186871890Y-117329569D01*
X186620000Y-117278560D01*
X186225712Y-117278560D01*
X186458086Y-117182545D01*
X186974730Y-116666801D01*
X187254681Y-115992605D01*
X187255318Y-115262597D01*
X186976545Y-114587914D01*
X186460801Y-114071270D01*
X185786605Y-113791319D01*
X185056597Y-113790682D01*
X184381914Y-114069455D01*
X183865270Y-114585199D01*
X183585319Y-115259395D01*
X183584682Y-115989403D01*
X183863455Y-116664086D01*
X184379199Y-117180730D01*
X184614799Y-117278560D01*
X184220000Y-117278560D01*
X183984683Y-117322838D01*
X183768559Y-117461910D01*
X183623569Y-117674110D01*
X183572560Y-117926000D01*
X123767440Y-117926000D01*
X123767440Y-115640000D01*
X123723162Y-115404683D01*
X123584090Y-115188559D01*
X123371890Y-115043569D01*
X123120000Y-114992560D01*
X120720000Y-114992560D01*
X120484683Y-115036838D01*
X120268559Y-115175910D01*
X120123569Y-115388110D01*
X120072560Y-115640000D01*
X116280000Y-115640000D01*
X116280000Y-57220000D01*
X120072560Y-57220000D01*
X120072560Y-59620000D01*
X120116838Y-59855317D01*
X120255910Y-60071441D01*
X120468110Y-60216431D01*
X120720000Y-60267440D01*
X121114288Y-60267440D01*
X120881914Y-60363455D01*
X120365270Y-60879199D01*
X120085319Y-61553395D01*
X120084682Y-62283403D01*
X120363455Y-62958086D01*
X120879199Y-63474730D01*
X121349785Y-63670135D01*
X120881914Y-63863455D01*
X120365270Y-64379199D01*
X120085319Y-65053395D01*
X120084682Y-65783403D01*
X120363455Y-66458086D01*
X120879199Y-66974730D01*
X121349785Y-67170135D01*
X120881914Y-67363455D01*
X120365270Y-67879199D01*
X120085319Y-68553395D01*
X120084682Y-69283403D01*
X120363455Y-69958086D01*
X120879199Y-70474730D01*
X121349785Y-70670135D01*
X120881914Y-70863455D01*
X120365270Y-71379199D01*
X120085319Y-72053395D01*
X120084682Y-72783403D01*
X120363455Y-73458086D01*
X120879199Y-73974730D01*
X121349785Y-74170135D01*
X120881914Y-74363455D01*
X120365270Y-74879199D01*
X120085319Y-75553395D01*
X120084682Y-76283403D01*
X120363455Y-76958086D01*
X120879199Y-77474730D01*
X121349785Y-77670135D01*
X120881914Y-77863455D01*
X120365270Y-78379199D01*
X120085319Y-79053395D01*
X120084682Y-79783403D01*
X120363455Y-80458086D01*
X120879199Y-80974730D01*
X121349785Y-81170135D01*
X120881914Y-81363455D01*
X120365270Y-81879199D01*
X120085319Y-82553395D01*
X120084682Y-83283403D01*
X120363455Y-83958086D01*
X120879199Y-84474730D01*
X121349785Y-84670135D01*
X120881914Y-84863455D01*
X120365270Y-85379199D01*
X120085319Y-86053395D01*
X120084682Y-86783403D01*
X120363455Y-87458086D01*
X120879199Y-87974730D01*
X121349785Y-88170135D01*
X120881914Y-88363455D01*
X120365270Y-88879199D01*
X120085319Y-89553395D01*
X120084682Y-90283403D01*
X120363455Y-90958086D01*
X120879199Y-91474730D01*
X121349785Y-91670135D01*
X120881914Y-91863455D01*
X120365270Y-92379199D01*
X120085319Y-93053395D01*
X120084682Y-93783403D01*
X120363455Y-94458086D01*
X120879199Y-94974730D01*
X121349785Y-95170135D01*
X120881914Y-95363455D01*
X120365270Y-95879199D01*
X120085319Y-96553395D01*
X120084682Y-97283403D01*
X120363455Y-97958086D01*
X120879199Y-98474730D01*
X121349785Y-98670135D01*
X120881914Y-98863455D01*
X120365270Y-99379199D01*
X120085319Y-100053395D01*
X120084682Y-100783403D01*
X120363455Y-101458086D01*
X120879199Y-101974730D01*
X121349785Y-102170135D01*
X120881914Y-102363455D01*
X120365270Y-102879199D01*
X120085319Y-103553395D01*
X120084682Y-104283403D01*
X120363455Y-104958086D01*
X120879199Y-105474730D01*
X121349785Y-105670135D01*
X120881914Y-105863455D01*
X120365270Y-106379199D01*
X120085319Y-107053395D01*
X120084682Y-107783403D01*
X120363455Y-108458086D01*
X120879199Y-108974730D01*
X121349785Y-109170135D01*
X120881914Y-109363455D01*
X120365270Y-109879199D01*
X120085319Y-110553395D01*
X120084682Y-111283403D01*
X120363455Y-111958086D01*
X120879199Y-112474730D01*
X121553395Y-112754681D01*
X122283403Y-112755318D01*
X122958086Y-112476545D01*
X123474730Y-111960801D01*
X123754681Y-111286605D01*
X123755318Y-110556597D01*
X123494348Y-109925000D01*
X183572560Y-109925000D01*
X183572560Y-112325000D01*
X183616838Y-112560317D01*
X183755910Y-112776441D01*
X183968110Y-112921431D01*
X184220000Y-112972440D01*
X186620000Y-112972440D01*
X186855317Y-112928162D01*
X187071441Y-112789090D01*
X187216431Y-112576890D01*
X187267440Y-112325000D01*
X187267440Y-109925000D01*
X187223162Y-109689683D01*
X187084090Y-109473559D01*
X186871890Y-109328569D01*
X186620000Y-109277560D01*
X186225712Y-109277560D01*
X186458086Y-109181545D01*
X186974730Y-108665801D01*
X187254681Y-107991605D01*
X187255318Y-107261597D01*
X186976545Y-106586914D01*
X186460801Y-106070270D01*
X185990215Y-105874865D01*
X186458086Y-105681545D01*
X186974730Y-105165801D01*
X187254681Y-104491605D01*
X187255318Y-103761597D01*
X186976545Y-103086914D01*
X186460801Y-102570270D01*
X185990215Y-102374865D01*
X186458086Y-102181545D01*
X186974730Y-101665801D01*
X187254681Y-100991605D01*
X187255318Y-100261597D01*
X186976545Y-99586914D01*
X186460801Y-99070270D01*
X185990215Y-98874865D01*
X186458086Y-98681545D01*
X186974730Y-98165801D01*
X187254681Y-97491605D01*
X187255318Y-96761597D01*
X186976545Y-96086914D01*
X186460801Y-95570270D01*
X185990215Y-95374865D01*
X186458086Y-95181545D01*
X186974730Y-94665801D01*
X187254681Y-93991605D01*
X187255318Y-93261597D01*
X186976545Y-92586914D01*
X186460801Y-92070270D01*
X185990215Y-91874865D01*
X186458086Y-91681545D01*
X186974730Y-91165801D01*
X187254681Y-90491605D01*
X187255318Y-89761597D01*
X186976545Y-89086914D01*
X186460801Y-88570270D01*
X185990215Y-88374865D01*
X186458086Y-88181545D01*
X186974730Y-87665801D01*
X187254681Y-86991605D01*
X187255318Y-86261597D01*
X186976545Y-85586914D01*
X186460801Y-85070270D01*
X185990215Y-84874865D01*
X186458086Y-84681545D01*
X186974730Y-84165801D01*
X187254681Y-83491605D01*
X187255318Y-82761597D01*
X186976545Y-82086914D01*
X186460801Y-81570270D01*
X185990215Y-81374865D01*
X186458086Y-81181545D01*
X186974730Y-80665801D01*
X187254681Y-79991605D01*
X187255318Y-79261597D01*
X186976545Y-78586914D01*
X186460801Y-78070270D01*
X185990215Y-77874865D01*
X186458086Y-77681545D01*
X186974730Y-77165801D01*
X187254681Y-76491605D01*
X187255318Y-75761597D01*
X186976545Y-75086914D01*
X186460801Y-74570270D01*
X185990215Y-74374865D01*
X186458086Y-74181545D01*
X186974730Y-73665801D01*
X187254681Y-72991605D01*
X187255318Y-72261597D01*
X186976545Y-71586914D01*
X186460801Y-71070270D01*
X185990215Y-70874865D01*
X186458086Y-70681545D01*
X186974730Y-70165801D01*
X187254681Y-69491605D01*
X187255318Y-68761597D01*
X186976545Y-68086914D01*
X186460801Y-67570270D01*
X185990215Y-67374865D01*
X186458086Y-67181545D01*
X186974730Y-66665801D01*
X187254681Y-65991605D01*
X187255318Y-65261597D01*
X186976545Y-64586914D01*
X186460801Y-64070270D01*
X185990215Y-63874865D01*
X186458086Y-63681545D01*
X186974730Y-63165801D01*
X187254681Y-62491605D01*
X187255318Y-61761597D01*
X186976545Y-61086914D01*
X186460801Y-60570270D01*
X185990215Y-60374865D01*
X186458086Y-60181545D01*
X186974730Y-59665801D01*
X187254681Y-58991605D01*
X187255318Y-58261597D01*
X186976545Y-57586914D01*
X186460801Y-57070270D01*
X185786605Y-56790319D01*
X185056597Y-56789682D01*
X184381914Y-57068455D01*
X183865270Y-57584199D01*
X183585319Y-58258395D01*
X183584682Y-58988403D01*
X183863455Y-59663086D01*
X184379199Y-60179730D01*
X184849785Y-60375135D01*
X184381914Y-60568455D01*
X183865270Y-61084199D01*
X183585319Y-61758395D01*
X183584682Y-62488403D01*
X183863455Y-63163086D01*
X184379199Y-63679730D01*
X184849785Y-63875135D01*
X184381914Y-64068455D01*
X183865270Y-64584199D01*
X183585319Y-65258395D01*
X183584682Y-65988403D01*
X183863455Y-66663086D01*
X184379199Y-67179730D01*
X184849785Y-67375135D01*
X184381914Y-67568455D01*
X183865270Y-68084199D01*
X183585319Y-68758395D01*
X183584682Y-69488403D01*
X183863455Y-70163086D01*
X184379199Y-70679730D01*
X184849785Y-70875135D01*
X184381914Y-71068455D01*
X183865270Y-71584199D01*
X183585319Y-72258395D01*
X183584682Y-72988403D01*
X183863455Y-73663086D01*
X184379199Y-74179730D01*
X184849785Y-74375135D01*
X184381914Y-74568455D01*
X183865270Y-75084199D01*
X183585319Y-75758395D01*
X183584682Y-76488403D01*
X183863455Y-77163086D01*
X184379199Y-77679730D01*
X184849785Y-77875135D01*
X184381914Y-78068455D01*
X183865270Y-78584199D01*
X183585319Y-79258395D01*
X183584682Y-79988403D01*
X183863455Y-80663086D01*
X184379199Y-81179730D01*
X184849785Y-81375135D01*
X184381914Y-81568455D01*
X183865270Y-82084199D01*
X183585319Y-82758395D01*
X183584682Y-83488403D01*
X183863455Y-84163086D01*
X184379199Y-84679730D01*
X184849785Y-84875135D01*
X184381914Y-85068455D01*
X183865270Y-85584199D01*
X183585319Y-86258395D01*
X183584682Y-86988403D01*
X183863455Y-87663086D01*
X184379199Y-88179730D01*
X184849785Y-88375135D01*
X184381914Y-88568455D01*
X183865270Y-89084199D01*
X183585319Y-89758395D01*
X183584682Y-90488403D01*
X183863455Y-91163086D01*
X184379199Y-91679730D01*
X184849785Y-91875135D01*
X184381914Y-92068455D01*
X183865270Y-92584199D01*
X183585319Y-93258395D01*
X183584682Y-93988403D01*
X183863455Y-94663086D01*
X184379199Y-95179730D01*
X184849785Y-95375135D01*
X184381914Y-95568455D01*
X183865270Y-96084199D01*
X183585319Y-96758395D01*
X183584682Y-97488403D01*
X183863455Y-98163086D01*
X184379199Y-98679730D01*
X184849785Y-98875135D01*
X184381914Y-99068455D01*
X183865270Y-99584199D01*
X183585319Y-100258395D01*
X183584682Y-100988403D01*
X183863455Y-101663086D01*
X184379199Y-102179730D01*
X184849785Y-102375135D01*
X184381914Y-102568455D01*
X183865270Y-103084199D01*
X183585319Y-103758395D01*
X183584682Y-104488403D01*
X183863455Y-105163086D01*
X184379199Y-105679730D01*
X184849785Y-105875135D01*
X184381914Y-106068455D01*
X183865270Y-106584199D01*
X183585319Y-107258395D01*
X183584682Y-107988403D01*
X183863455Y-108663086D01*
X184379199Y-109179730D01*
X184614799Y-109277560D01*
X184220000Y-109277560D01*
X183984683Y-109321838D01*
X183768559Y-109460910D01*
X183623569Y-109673110D01*
X183572560Y-109925000D01*
X123494348Y-109925000D01*
X123476545Y-109881914D01*
X122960801Y-109365270D01*
X122490215Y-109169865D01*
X122958086Y-108976545D01*
X123474730Y-108460801D01*
X123754681Y-107786605D01*
X123755318Y-107056597D01*
X123476545Y-106381914D01*
X122960801Y-105865270D01*
X122490215Y-105669865D01*
X122958086Y-105476545D01*
X123474730Y-104960801D01*
X123754681Y-104286605D01*
X123754811Y-104137040D01*
X149467780Y-104137040D01*
X149467780Y-106677040D01*
X149512058Y-106912357D01*
X149651130Y-107128481D01*
X149863330Y-107273471D01*
X150115220Y-107324480D01*
X152655220Y-107324480D01*
X152890537Y-107280202D01*
X153106661Y-107141130D01*
X153251651Y-106928930D01*
X153286909Y-106754817D01*
X165457048Y-106754817D01*
X165588740Y-107049697D01*
X166296256Y-107321301D01*
X167053852Y-107301476D01*
X167661700Y-107049697D01*
X167793392Y-106754817D01*
X166625220Y-105586645D01*
X165457048Y-106754817D01*
X153286909Y-106754817D01*
X153302660Y-106677040D01*
X153302660Y-105078076D01*
X164710959Y-105078076D01*
X164730784Y-105835672D01*
X164982563Y-106443520D01*
X165277443Y-106575212D01*
X166445615Y-105407040D01*
X166804825Y-105407040D01*
X167972997Y-106575212D01*
X168267877Y-106443520D01*
X168539481Y-105736004D01*
X168519656Y-104978408D01*
X168267877Y-104370560D01*
X167972997Y-104238868D01*
X166804825Y-105407040D01*
X166445615Y-105407040D01*
X165277443Y-104238868D01*
X164982563Y-104370560D01*
X164710959Y-105078076D01*
X153302660Y-105078076D01*
X153302660Y-104137040D01*
X153288026Y-104059263D01*
X165457048Y-104059263D01*
X166625220Y-105227435D01*
X167793392Y-104059263D01*
X167661700Y-103764383D01*
X166954184Y-103492779D01*
X166196588Y-103512604D01*
X165588740Y-103764383D01*
X165457048Y-104059263D01*
X153288026Y-104059263D01*
X153258382Y-103901723D01*
X153119310Y-103685599D01*
X152907110Y-103540609D01*
X152655220Y-103489600D01*
X150115220Y-103489600D01*
X149879903Y-103533878D01*
X149663779Y-103672950D01*
X149518789Y-103885150D01*
X149467780Y-104137040D01*
X123754811Y-104137040D01*
X123755318Y-103556597D01*
X123476545Y-102881914D01*
X122960801Y-102365270D01*
X122490215Y-102169865D01*
X122958086Y-101976545D01*
X123474730Y-101460801D01*
X123754681Y-100786605D01*
X123755318Y-100056597D01*
X123476545Y-99381914D01*
X122960801Y-98865270D01*
X122490215Y-98669865D01*
X122958086Y-98476545D01*
X123474730Y-97960801D01*
X123754681Y-97286605D01*
X123755318Y-96556597D01*
X123476545Y-95881914D01*
X122960801Y-95365270D01*
X122490215Y-95169865D01*
X122958086Y-94976545D01*
X123474730Y-94460801D01*
X123754681Y-93786605D01*
X123755318Y-93056597D01*
X123476545Y-92381914D01*
X122960801Y-91865270D01*
X122490215Y-91669865D01*
X122958086Y-91476545D01*
X123474730Y-90960801D01*
X123754681Y-90286605D01*
X123755318Y-89556597D01*
X123476545Y-88881914D01*
X122960801Y-88365270D01*
X122490215Y-88169865D01*
X122958086Y-87976545D01*
X123474730Y-87460801D01*
X123754681Y-86786605D01*
X123755318Y-86056597D01*
X123476545Y-85381914D01*
X122960801Y-84865270D01*
X122490215Y-84669865D01*
X122958086Y-84476545D01*
X123474730Y-83960801D01*
X123754681Y-83286605D01*
X123755318Y-82556597D01*
X123476545Y-81881914D01*
X122960801Y-81365270D01*
X122490215Y-81169865D01*
X122958086Y-80976545D01*
X123474730Y-80460801D01*
X123754681Y-79786605D01*
X123755318Y-79056597D01*
X123476545Y-78381914D01*
X122960801Y-77865270D01*
X122490215Y-77669865D01*
X122958086Y-77476545D01*
X123474730Y-76960801D01*
X123754681Y-76286605D01*
X123755318Y-75556597D01*
X123476545Y-74881914D01*
X122960801Y-74365270D01*
X122490215Y-74169865D01*
X122958086Y-73976545D01*
X123474730Y-73460801D01*
X123754681Y-72786605D01*
X123755318Y-72056597D01*
X123476545Y-71381914D01*
X122960801Y-70865270D01*
X122490215Y-70669865D01*
X122958086Y-70476545D01*
X123474730Y-69960801D01*
X123754681Y-69286605D01*
X123755318Y-68556597D01*
X123476545Y-67881914D01*
X122960801Y-67365270D01*
X122490215Y-67169865D01*
X122958086Y-66976545D01*
X123474730Y-66460801D01*
X123754681Y-65786605D01*
X123755318Y-65056597D01*
X123476545Y-64381914D01*
X122960801Y-63865270D01*
X122490215Y-63669865D01*
X122958086Y-63476545D01*
X123474730Y-62960801D01*
X123754681Y-62286605D01*
X123755318Y-61556597D01*
X123476545Y-60881914D01*
X122960801Y-60365270D01*
X122725201Y-60267440D01*
X123120000Y-60267440D01*
X123355317Y-60223162D01*
X123571441Y-60084090D01*
X123716431Y-59871890D01*
X123767440Y-59620000D01*
X123767440Y-57220000D01*
X123723162Y-56984683D01*
X123584090Y-56768559D01*
X123371890Y-56623569D01*
X123120000Y-56572560D01*
X120720000Y-56572560D01*
X120484683Y-56616838D01*
X120268559Y-56755910D01*
X120123569Y-56968110D01*
X120072560Y-57220000D01*
X116280000Y-57220000D01*
X116280000Y-53703403D01*
X126004682Y-53703403D01*
X126283455Y-54378086D01*
X126799199Y-54894730D01*
X127473395Y-55174681D01*
X128203403Y-55175318D01*
X128878086Y-54896545D01*
X129394730Y-54380801D01*
X129590135Y-53910215D01*
X129783455Y-54378086D01*
X130299199Y-54894730D01*
X130973395Y-55174681D01*
X131703403Y-55175318D01*
X132378086Y-54896545D01*
X132894730Y-54380801D01*
X133090135Y-53910215D01*
X133283455Y-54378086D01*
X133799199Y-54894730D01*
X134473395Y-55174681D01*
X135203403Y-55175318D01*
X135878086Y-54896545D01*
X136394730Y-54380801D01*
X136590135Y-53910215D01*
X136783455Y-54378086D01*
X137299199Y-54894730D01*
X137973395Y-55174681D01*
X138703403Y-55175318D01*
X139378086Y-54896545D01*
X139894730Y-54380801D01*
X140090135Y-53910215D01*
X140283455Y-54378086D01*
X140799199Y-54894730D01*
X141473395Y-55174681D01*
X142203403Y-55175318D01*
X142878086Y-54896545D01*
X143394730Y-54380801D01*
X143590135Y-53910215D01*
X143783455Y-54378086D01*
X144299199Y-54894730D01*
X144973395Y-55174681D01*
X145703403Y-55175318D01*
X146378086Y-54896545D01*
X146894730Y-54380801D01*
X147090135Y-53910215D01*
X147283455Y-54378086D01*
X147799199Y-54894730D01*
X148473395Y-55174681D01*
X149203403Y-55175318D01*
X149878086Y-54896545D01*
X150394730Y-54380801D01*
X150590135Y-53910215D01*
X150783455Y-54378086D01*
X151299199Y-54894730D01*
X151973395Y-55174681D01*
X152703403Y-55175318D01*
X153378086Y-54896545D01*
X153894730Y-54380801D01*
X154090135Y-53910215D01*
X154283455Y-54378086D01*
X154799199Y-54894730D01*
X155473395Y-55174681D01*
X156203403Y-55175318D01*
X156878086Y-54896545D01*
X157394730Y-54380801D01*
X157590135Y-53910215D01*
X157783455Y-54378086D01*
X158299199Y-54894730D01*
X158973395Y-55174681D01*
X159703403Y-55175318D01*
X160378086Y-54896545D01*
X160894730Y-54380801D01*
X161090135Y-53910215D01*
X161283455Y-54378086D01*
X161799199Y-54894730D01*
X162473395Y-55174681D01*
X163203403Y-55175318D01*
X163878086Y-54896545D01*
X164394730Y-54380801D01*
X164590135Y-53910215D01*
X164783455Y-54378086D01*
X165299199Y-54894730D01*
X165973395Y-55174681D01*
X166703403Y-55175318D01*
X167378086Y-54896545D01*
X167894730Y-54380801D01*
X168090135Y-53910215D01*
X168283455Y-54378086D01*
X168799199Y-54894730D01*
X169473395Y-55174681D01*
X170203403Y-55175318D01*
X170878086Y-54896545D01*
X171394730Y-54380801D01*
X171590135Y-53910215D01*
X171783455Y-54378086D01*
X172299199Y-54894730D01*
X172973395Y-55174681D01*
X173703403Y-55175318D01*
X174378086Y-54896545D01*
X174894730Y-54380801D01*
X175090135Y-53910215D01*
X175283455Y-54378086D01*
X175799199Y-54894730D01*
X176473395Y-55174681D01*
X177203403Y-55175318D01*
X177878086Y-54896545D01*
X178394730Y-54380801D01*
X178492560Y-54145201D01*
X178492560Y-54540000D01*
X178536838Y-54775317D01*
X178675910Y-54991441D01*
X178888110Y-55136431D01*
X179140000Y-55187440D01*
X181540000Y-55187440D01*
X181775317Y-55143162D01*
X181991441Y-55004090D01*
X182136431Y-54791890D01*
X182187440Y-54540000D01*
X182187440Y-52140000D01*
X182143162Y-51904683D01*
X182004090Y-51688559D01*
X181791890Y-51543569D01*
X181540000Y-51492560D01*
X179140000Y-51492560D01*
X178904683Y-51536838D01*
X178688559Y-51675910D01*
X178543569Y-51888110D01*
X178492560Y-52140000D01*
X178492560Y-52534288D01*
X178396545Y-52301914D01*
X177880801Y-51785270D01*
X177206605Y-51505319D01*
X176476597Y-51504682D01*
X175801914Y-51783455D01*
X175285270Y-52299199D01*
X175089865Y-52769785D01*
X174896545Y-52301914D01*
X174380801Y-51785270D01*
X173706605Y-51505319D01*
X172976597Y-51504682D01*
X172301914Y-51783455D01*
X171785270Y-52299199D01*
X171589865Y-52769785D01*
X171396545Y-52301914D01*
X170880801Y-51785270D01*
X170206605Y-51505319D01*
X169476597Y-51504682D01*
X168801914Y-51783455D01*
X168285270Y-52299199D01*
X168089865Y-52769785D01*
X167896545Y-52301914D01*
X167380801Y-51785270D01*
X166706605Y-51505319D01*
X165976597Y-51504682D01*
X165301914Y-51783455D01*
X164785270Y-52299199D01*
X164589865Y-52769785D01*
X164396545Y-52301914D01*
X163880801Y-51785270D01*
X163206605Y-51505319D01*
X162476597Y-51504682D01*
X161801914Y-51783455D01*
X161285270Y-52299199D01*
X161089865Y-52769785D01*
X160896545Y-52301914D01*
X160380801Y-51785270D01*
X159706605Y-51505319D01*
X158976597Y-51504682D01*
X158301914Y-51783455D01*
X157785270Y-52299199D01*
X157589865Y-52769785D01*
X157396545Y-52301914D01*
X156880801Y-51785270D01*
X156206605Y-51505319D01*
X155476597Y-51504682D01*
X154801914Y-51783455D01*
X154285270Y-52299199D01*
X154089865Y-52769785D01*
X153896545Y-52301914D01*
X153380801Y-51785270D01*
X152706605Y-51505319D01*
X151976597Y-51504682D01*
X151301914Y-51783455D01*
X150785270Y-52299199D01*
X150589865Y-52769785D01*
X150396545Y-52301914D01*
X149880801Y-51785270D01*
X149206605Y-51505319D01*
X148476597Y-51504682D01*
X147801914Y-51783455D01*
X147285270Y-52299199D01*
X147089865Y-52769785D01*
X146896545Y-52301914D01*
X146380801Y-51785270D01*
X145706605Y-51505319D01*
X144976597Y-51504682D01*
X144301914Y-51783455D01*
X143785270Y-52299199D01*
X143589865Y-52769785D01*
X143396545Y-52301914D01*
X142880801Y-51785270D01*
X142206605Y-51505319D01*
X141476597Y-51504682D01*
X140801914Y-51783455D01*
X140285270Y-52299199D01*
X140089865Y-52769785D01*
X139896545Y-52301914D01*
X139380801Y-51785270D01*
X138706605Y-51505319D01*
X137976597Y-51504682D01*
X137301914Y-51783455D01*
X136785270Y-52299199D01*
X136589865Y-52769785D01*
X136396545Y-52301914D01*
X135880801Y-51785270D01*
X135206605Y-51505319D01*
X134476597Y-51504682D01*
X133801914Y-51783455D01*
X133285270Y-52299199D01*
X133089865Y-52769785D01*
X132896545Y-52301914D01*
X132380801Y-51785270D01*
X131706605Y-51505319D01*
X130976597Y-51504682D01*
X130301914Y-51783455D01*
X129785270Y-52299199D01*
X129589865Y-52769785D01*
X129396545Y-52301914D01*
X128880801Y-51785270D01*
X128206605Y-51505319D01*
X127476597Y-51504682D01*
X126801914Y-51783455D01*
X126285270Y-52299199D01*
X126005319Y-52973395D01*
X126004682Y-53703403D01*
X116280000Y-53703403D01*
X116280000Y-48970000D01*
X191060000Y-48970000D01*
X191060000Y-149150000D01*
M02*
