M48
;DRILL file {KiCad 4.0.1-stable} date 2/25/2017 10:13:36 AM
;FORMAT={-:-/ absolute / metric / decimal}
FMAT,2
METRIC,TZ
T1C0.762
T2C1.200
T3C1.501
%
G90
G05
M71
T1
X128.016Y-138.43
X128.27Y-59.182
X128.27Y-79.756
X128.27Y-87.122
X128.27Y-93.726
X128.524Y-67.056
X128.524Y-73.152
X128.524Y-100.584
X128.778Y-107.696
X133.1Y-60.3
X134.366Y-96.012
X135.128Y-138.43
X138.4Y-61.1
X141.224Y-116.84
X142.24Y-138.43
X142.494Y-66.04
X143.764Y-116.84
X145.034Y-59.69
X146.05Y-116.84
X147.574Y-79.248
X148.59Y-138.43
X151.384Y-59.69
X155.702Y-138.43
X158.75Y-59.69
X159.512Y-81.026
X162.814Y-138.43
X163.068Y-131.572
X165.608Y-59.69
X169.418Y-138.176
X171.5Y-76.5
X171.958Y-59.944
X174.4Y-62.2
X176.784Y-138.176
X178.816Y-96.774
X178.816Y-103.632
X178.816Y-110.744
X179.07Y-62.484
X179.07Y-68.072
X179.07Y-75.184
X179.07Y-82.296
X179.07Y-89.916
T2
X121.92Y-58.42
X121.92Y-61.92
X121.92Y-65.42
X121.92Y-68.92
X121.92Y-72.42
X121.92Y-75.92
X121.92Y-79.42
X121.92Y-82.92
X121.92Y-86.42
X121.92Y-89.92
X121.92Y-93.42
X121.92Y-96.92
X121.92Y-100.42
X121.92Y-103.92
X121.92Y-107.42
X121.92Y-110.92
X121.92Y-116.84
X121.92Y-120.34
X121.92Y-124.46
X121.92Y-127.96
X127.Y-144.78
X127.8Y-53.4
X130.5Y-144.78
X131.3Y-53.4
X134.Y-144.78
X134.8Y-53.4
X137.5Y-144.78
X138.3Y-53.4
X141.Y-144.78
X141.8Y-53.4
X144.5Y-144.78
X145.3Y-53.4
X148.Y-144.78
X148.8Y-53.4
X151.5Y-144.78
X152.3Y-53.4
X155.Y-144.78
X155.8Y-53.4
X158.5Y-144.78
X159.3Y-53.4
X162.Y-144.78
X162.8Y-53.4
X165.5Y-144.78
X166.3Y-53.4
X169.Y-144.78
X169.8Y-53.4
X172.5Y-144.78
X173.3Y-53.4
X176.Y-144.78
X176.8Y-53.4
X179.5Y-144.78
X180.3Y-53.4
X185.42Y-58.625
X185.42Y-62.125
X185.42Y-65.625
X185.42Y-69.125
X185.42Y-72.625
X185.42Y-76.125
X185.42Y-79.625
X185.42Y-83.125
X185.42Y-86.625
X185.42Y-90.125
X185.42Y-93.625
X185.42Y-97.125
X185.42Y-100.625
X185.42Y-104.125
X185.42Y-107.625
X185.42Y-111.125
X185.42Y-115.626
X185.42Y-119.126
X185.42Y-123.754
X185.42Y-127.254
X185.42Y-131.882
X185.42Y-135.382
T3
X151.385Y-105.407
X166.625Y-105.407
T0
M30
