G04 #@! TF.FileFunction,Soldermask,Bot*
%FSLAX46Y46*%
G04 Gerber Fmt 4.6, Leading zero omitted, Abs format (unit mm)*
G04 Created by KiCad (PCBNEW 4.0.1-stable) date 3/21/2017 11:52:48 AM*
%MOMM*%
G01*
G04 APERTURE LIST*
%ADD10C,0.100000*%
%ADD11C,0.150000*%
%ADD12C,2.800000*%
%ADD13R,2.800000X2.800000*%
%ADD14C,2.940000*%
%ADD15R,2.940000X2.940000*%
G04 APERTURE END LIST*
D10*
D11*
X191770000Y-149860000D02*
X191770000Y-48260000D01*
X115570000Y-48260000D02*
X115570000Y-149860000D01*
X115570000Y-149860000D02*
X191770000Y-149860000D01*
X191770000Y-48260000D02*
X115570000Y-48260000D01*
D12*
X185420000Y-131882000D03*
D13*
X185420000Y-135382000D03*
D12*
X185420000Y-123754000D03*
D13*
X185420000Y-127254000D03*
D12*
X185420000Y-115626000D03*
D13*
X185420000Y-119126000D03*
D12*
X121920000Y-120340000D03*
D13*
X121920000Y-116840000D03*
D12*
X121920000Y-127960000D03*
D13*
X121920000Y-124460000D03*
D12*
X134000000Y-144780000D03*
X130500000Y-144780000D03*
X137500000Y-144780000D03*
X141000000Y-144780000D03*
X144500000Y-144780000D03*
X148000000Y-144780000D03*
D13*
X127000000Y-144780000D03*
D12*
X151500000Y-144780000D03*
X155000000Y-144780000D03*
X158500000Y-144780000D03*
X162000000Y-144780000D03*
X165500000Y-144780000D03*
X169000000Y-144780000D03*
X172500000Y-144780000D03*
X176000000Y-144780000D03*
X179500000Y-144780000D03*
X185420000Y-104125000D03*
X185420000Y-107625000D03*
X185420000Y-100625000D03*
X185420000Y-97125000D03*
X185420000Y-93625000D03*
X185420000Y-90125000D03*
D13*
X185420000Y-111125000D03*
D12*
X185420000Y-86625000D03*
X185420000Y-83125000D03*
X185420000Y-79625000D03*
X185420000Y-76125000D03*
X185420000Y-72625000D03*
X185420000Y-69125000D03*
X185420000Y-65625000D03*
X185420000Y-62125000D03*
X185420000Y-58625000D03*
X173300000Y-53400000D03*
X176800000Y-53400000D03*
X169800000Y-53400000D03*
X166300000Y-53400000D03*
X162800000Y-53400000D03*
X159300000Y-53400000D03*
D13*
X180300000Y-53400000D03*
D12*
X155800000Y-53400000D03*
X152300000Y-53400000D03*
X148800000Y-53400000D03*
X145300000Y-53400000D03*
X141800000Y-53400000D03*
X138300000Y-53400000D03*
X134800000Y-53400000D03*
X131300000Y-53400000D03*
X127800000Y-53400000D03*
X121920000Y-65420000D03*
X121920000Y-61920000D03*
X121920000Y-68920000D03*
X121920000Y-72420000D03*
X121920000Y-75920000D03*
X121920000Y-79420000D03*
D13*
X121920000Y-58420000D03*
D12*
X121920000Y-82920000D03*
X121920000Y-86420000D03*
X121920000Y-89920000D03*
X121920000Y-93420000D03*
X121920000Y-96920000D03*
X121920000Y-100420000D03*
X121920000Y-103920000D03*
X121920000Y-107420000D03*
X121920000Y-110920000D03*
D14*
X166625220Y-105407040D03*
D15*
X151385220Y-105407040D03*
M02*
