G04 #@! TF.FileFunction,Soldermask,Bot*
%FSLAX46Y46*%
G04 Gerber Fmt 4.6, Leading zero omitted, Abs format (unit mm)*
G04 Created by KiCad (PCBNEW 4.0.1-stable) date 8/4/2016 1:38:13 PM*
%MOMM*%
G01*
G04 APERTURE LIST*
%ADD10C,0.100000*%
%ADD11C,0.150000*%
%ADD12C,2.800000*%
%ADD13R,2.800000X2.800000*%
%ADD14C,2.940000*%
%ADD15R,2.940000X2.940000*%
%ADD16C,1.924000*%
G04 APERTURE END LIST*
D10*
D11*
X191770000Y-149860000D02*
X191770000Y-48260000D01*
X115570000Y-48260000D02*
X115570000Y-149860000D01*
X115570000Y-149860000D02*
X191770000Y-149860000D01*
X191770000Y-48260000D02*
X115570000Y-48260000D01*
D12*
X185420000Y-131882000D03*
D13*
X185420000Y-135382000D03*
D12*
X185420000Y-123754000D03*
D13*
X185420000Y-127254000D03*
D14*
X166625220Y-105407040D03*
D15*
X151385220Y-105407040D03*
D12*
X185420000Y-115626000D03*
D13*
X185420000Y-119126000D03*
D12*
X121920000Y-120340000D03*
D13*
X121920000Y-116840000D03*
D12*
X121920000Y-127960000D03*
D13*
X121920000Y-124460000D03*
D12*
X134000000Y-144780000D03*
X130500000Y-144780000D03*
X137500000Y-144780000D03*
X141000000Y-144780000D03*
X144500000Y-144780000D03*
X148000000Y-144780000D03*
D13*
X127000000Y-144780000D03*
D12*
X151500000Y-144780000D03*
X155000000Y-144780000D03*
X158500000Y-144780000D03*
X162000000Y-144780000D03*
X165500000Y-144780000D03*
X169000000Y-144780000D03*
X172500000Y-144780000D03*
X176000000Y-144780000D03*
X179500000Y-144780000D03*
X185420000Y-104125000D03*
X185420000Y-107625000D03*
X185420000Y-100625000D03*
X185420000Y-97125000D03*
X185420000Y-93625000D03*
X185420000Y-90125000D03*
D13*
X185420000Y-111125000D03*
D12*
X185420000Y-86625000D03*
X185420000Y-83125000D03*
X185420000Y-79625000D03*
X185420000Y-76125000D03*
X185420000Y-72625000D03*
X185420000Y-69125000D03*
X185420000Y-65625000D03*
X185420000Y-62125000D03*
X185420000Y-58625000D03*
X173340000Y-53340000D03*
X176840000Y-53340000D03*
X169840000Y-53340000D03*
X166340000Y-53340000D03*
X162840000Y-53340000D03*
X159340000Y-53340000D03*
D13*
X180340000Y-53340000D03*
D12*
X155840000Y-53340000D03*
X152340000Y-53340000D03*
X148840000Y-53340000D03*
X145340000Y-53340000D03*
X141840000Y-53340000D03*
X138340000Y-53340000D03*
X134840000Y-53340000D03*
X131340000Y-53340000D03*
X127840000Y-53340000D03*
X121920000Y-65420000D03*
X121920000Y-61920000D03*
X121920000Y-68920000D03*
X121920000Y-72420000D03*
X121920000Y-75920000D03*
X121920000Y-79420000D03*
D13*
X121920000Y-58420000D03*
D12*
X121920000Y-82920000D03*
X121920000Y-86420000D03*
X121920000Y-89920000D03*
X121920000Y-93420000D03*
X121920000Y-96920000D03*
X121920000Y-100420000D03*
X121920000Y-103920000D03*
X121920000Y-107420000D03*
X121920000Y-110920000D03*
D16*
X147574000Y-79248000D03*
X163068000Y-131572000D03*
X143764000Y-116840000D03*
X141224000Y-116840000D03*
X146050000Y-116840000D03*
X179070000Y-68072000D03*
X128016000Y-138430000D03*
X135128000Y-138430000D03*
X142240000Y-138430000D03*
X148590000Y-138430000D03*
X155702000Y-138430000D03*
X162814000Y-138430000D03*
X169418000Y-138176000D03*
X176784000Y-138176000D03*
X172974000Y-75438000D03*
X142494000Y-66040000D03*
X134366000Y-96012000D03*
X178816000Y-110744000D03*
X178816000Y-103632000D03*
X178816000Y-96774000D03*
X179070000Y-89916000D03*
X179070000Y-82296000D03*
X179070000Y-75184000D03*
X179070000Y-62484000D03*
X177038000Y-57912000D03*
X171958000Y-59944000D03*
X165608000Y-59690000D03*
X158750000Y-59690000D03*
X151384000Y-59690000D03*
X145034000Y-59690000D03*
X139446000Y-59690000D03*
X134366000Y-59690000D03*
X128270000Y-59182000D03*
X128524000Y-67056000D03*
X128524000Y-73152000D03*
X128270000Y-79756000D03*
X128270000Y-87122000D03*
X128270000Y-93726000D03*
X128524000Y-100584000D03*
X128778000Y-107696000D03*
X159512000Y-81026000D03*
M02*
