G04 #@! TF.FileFunction,Legend,Top*
%FSLAX46Y46*%
G04 Gerber Fmt 4.6, Leading zero omitted, Abs format (unit mm)*
G04 Created by KiCad (PCBNEW 4.0.1-stable) date 2/25/2017 10:13:21 AM*
%MOMM*%
G01*
G04 APERTURE LIST*
%ADD10C,0.100000*%
%ADD11C,0.300000*%
%ADD12C,0.150000*%
G04 APERTURE END LIST*
D10*
D11*
X169498571Y-111846858D02*
X169498571Y-111561144D01*
X169570000Y-111418286D01*
X169712857Y-111275429D01*
X169998571Y-111204001D01*
X170498571Y-111204001D01*
X170784286Y-111275429D01*
X170927143Y-111418286D01*
X170998571Y-111561144D01*
X170998571Y-111846858D01*
X170927143Y-111989715D01*
X170784286Y-112132572D01*
X170498571Y-112204001D01*
X169998571Y-112204001D01*
X169712857Y-112132572D01*
X169570000Y-111989715D01*
X169498571Y-111846858D01*
X169998571Y-109918286D02*
X170998571Y-109918286D01*
X169998571Y-110561143D02*
X170784286Y-110561143D01*
X170927143Y-110489715D01*
X170998571Y-110346857D01*
X170998571Y-110132572D01*
X170927143Y-109989715D01*
X170855714Y-109918286D01*
X169998571Y-109418286D02*
X169998571Y-108846857D01*
X169498571Y-109204000D02*
X170784286Y-109204000D01*
X170927143Y-109132572D01*
X170998571Y-108989714D01*
X170998571Y-108846857D01*
X169998571Y-108346857D02*
X171498571Y-108346857D01*
X170070000Y-108346857D02*
X169998571Y-108204000D01*
X169998571Y-107918286D01*
X170070000Y-107775429D01*
X170141429Y-107704000D01*
X170284286Y-107632571D01*
X170712857Y-107632571D01*
X170855714Y-107704000D01*
X170927143Y-107775429D01*
X170998571Y-107918286D01*
X170998571Y-108204000D01*
X170927143Y-108346857D01*
X169998571Y-106346857D02*
X170998571Y-106346857D01*
X169998571Y-106989714D02*
X170784286Y-106989714D01*
X170927143Y-106918286D01*
X170998571Y-106775428D01*
X170998571Y-106561143D01*
X170927143Y-106418286D01*
X170855714Y-106346857D01*
X169998571Y-105846857D02*
X169998571Y-105275428D01*
X169498571Y-105632571D02*
X170784286Y-105632571D01*
X170927143Y-105561143D01*
X170998571Y-105418285D01*
X170998571Y-105275428D01*
X170927143Y-104846857D02*
X170998571Y-104704000D01*
X170998571Y-104418285D01*
X170927143Y-104275428D01*
X170784286Y-104204000D01*
X170712857Y-104204000D01*
X170570000Y-104275428D01*
X170498571Y-104418285D01*
X170498571Y-104632571D01*
X170427143Y-104775428D01*
X170284286Y-104846857D01*
X170212857Y-104846857D01*
X170070000Y-104775428D01*
X169998571Y-104632571D01*
X169998571Y-104418285D01*
X170070000Y-104275428D01*
X173398571Y-110846857D02*
X173398571Y-110561142D01*
X173327143Y-110418285D01*
X173255714Y-110346857D01*
X173041429Y-110203999D01*
X172755714Y-110132571D01*
X172184286Y-110132571D01*
X172041429Y-110203999D01*
X171970000Y-110275428D01*
X171898571Y-110418285D01*
X171898571Y-110703999D01*
X171970000Y-110846857D01*
X172041429Y-110918285D01*
X172184286Y-110989714D01*
X172541429Y-110989714D01*
X172684286Y-110918285D01*
X172755714Y-110846857D01*
X172827143Y-110703999D01*
X172827143Y-110418285D01*
X172755714Y-110275428D01*
X172684286Y-110203999D01*
X172541429Y-110132571D01*
X172827143Y-109489714D02*
X172827143Y-108346857D01*
X173398571Y-106846857D02*
X173398571Y-107704000D01*
X173398571Y-107275428D02*
X171898571Y-107275428D01*
X172112857Y-107418285D01*
X172255714Y-107561143D01*
X172327143Y-107704000D01*
X171898571Y-105561143D02*
X171898571Y-105846857D01*
X171970000Y-105989714D01*
X172041429Y-106061143D01*
X172255714Y-106204000D01*
X172541429Y-106275429D01*
X173112857Y-106275429D01*
X173255714Y-106204000D01*
X173327143Y-106132572D01*
X173398571Y-105989714D01*
X173398571Y-105704000D01*
X173327143Y-105561143D01*
X173255714Y-105489714D01*
X173112857Y-105418286D01*
X172755714Y-105418286D01*
X172612857Y-105489714D01*
X172541429Y-105561143D01*
X172470000Y-105704000D01*
X172470000Y-105989714D01*
X172541429Y-106132572D01*
X172612857Y-106204000D01*
X172755714Y-106275429D01*
X175227143Y-110275428D02*
X175227143Y-109132571D01*
X175798571Y-109704000D02*
X174655714Y-109704000D01*
X175227143Y-107275428D02*
X175227143Y-106132571D01*
X122855429Y-49189142D02*
X122855429Y-49474856D01*
X122784000Y-49617714D01*
X122641143Y-49760571D01*
X122355429Y-49831999D01*
X121855429Y-49831999D01*
X121569714Y-49760571D01*
X121426857Y-49617714D01*
X121355429Y-49474856D01*
X121355429Y-49189142D01*
X121426857Y-49046285D01*
X121569714Y-48903428D01*
X121855429Y-48831999D01*
X122355429Y-48831999D01*
X122641143Y-48903428D01*
X122784000Y-49046285D01*
X122855429Y-49189142D01*
X122355429Y-51117714D02*
X121355429Y-51117714D01*
X122355429Y-50474857D02*
X121569714Y-50474857D01*
X121426857Y-50546285D01*
X121355429Y-50689143D01*
X121355429Y-50903428D01*
X121426857Y-51046285D01*
X121498286Y-51117714D01*
X122355429Y-51617714D02*
X122355429Y-52189143D01*
X122855429Y-51832000D02*
X121569714Y-51832000D01*
X121426857Y-51903428D01*
X121355429Y-52046286D01*
X121355429Y-52189143D01*
X122355429Y-52689143D02*
X120855429Y-52689143D01*
X122284000Y-52689143D02*
X122355429Y-52832000D01*
X122355429Y-53117714D01*
X122284000Y-53260571D01*
X122212571Y-53332000D01*
X122069714Y-53403429D01*
X121641143Y-53403429D01*
X121498286Y-53332000D01*
X121426857Y-53260571D01*
X121355429Y-53117714D01*
X121355429Y-52832000D01*
X121426857Y-52689143D01*
X122355429Y-54689143D02*
X121355429Y-54689143D01*
X122355429Y-54046286D02*
X121569714Y-54046286D01*
X121426857Y-54117714D01*
X121355429Y-54260572D01*
X121355429Y-54474857D01*
X121426857Y-54617714D01*
X121498286Y-54689143D01*
X122355429Y-55189143D02*
X122355429Y-55760572D01*
X122855429Y-55403429D02*
X121569714Y-55403429D01*
X121426857Y-55474857D01*
X121355429Y-55617715D01*
X121355429Y-55760572D01*
X121426857Y-56189143D02*
X121355429Y-56332000D01*
X121355429Y-56617715D01*
X121426857Y-56760572D01*
X121569714Y-56832000D01*
X121641143Y-56832000D01*
X121784000Y-56760572D01*
X121855429Y-56617715D01*
X121855429Y-56403429D01*
X121926857Y-56260572D01*
X122069714Y-56189143D01*
X122141143Y-56189143D01*
X122284000Y-56260572D01*
X122355429Y-56403429D01*
X122355429Y-56617715D01*
X122284000Y-56760572D01*
X120312571Y-49332001D02*
X120384000Y-49403430D01*
X120455429Y-49546287D01*
X120455429Y-49903430D01*
X120384000Y-50046287D01*
X120312571Y-50117716D01*
X120169714Y-50189144D01*
X120026857Y-50189144D01*
X119812571Y-50117716D01*
X118955429Y-49260573D01*
X118955429Y-50189144D01*
X120455429Y-51546287D02*
X120455429Y-50832001D01*
X119741143Y-50760572D01*
X119812571Y-50832001D01*
X119884000Y-50974858D01*
X119884000Y-51332001D01*
X119812571Y-51474858D01*
X119741143Y-51546287D01*
X119598286Y-51617715D01*
X119241143Y-51617715D01*
X119098286Y-51546287D01*
X119026857Y-51474858D01*
X118955429Y-51332001D01*
X118955429Y-50974858D01*
X119026857Y-50832001D01*
X119098286Y-50760572D01*
X119526857Y-52260572D02*
X119526857Y-53403429D01*
X120455429Y-53974858D02*
X120455429Y-54903429D01*
X119884000Y-54403429D01*
X119884000Y-54617715D01*
X119812571Y-54760572D01*
X119741143Y-54832001D01*
X119598286Y-54903429D01*
X119241143Y-54903429D01*
X119098286Y-54832001D01*
X119026857Y-54760572D01*
X118955429Y-54617715D01*
X118955429Y-54189143D01*
X119026857Y-54046286D01*
X119098286Y-53974858D01*
X120312571Y-55474857D02*
X120384000Y-55546286D01*
X120455429Y-55689143D01*
X120455429Y-56046286D01*
X120384000Y-56189143D01*
X120312571Y-56260572D01*
X120169714Y-56332000D01*
X120026857Y-56332000D01*
X119812571Y-56260572D01*
X118955429Y-55403429D01*
X118955429Y-56332000D01*
X117126857Y-50760572D02*
X117126857Y-51903429D01*
X116555429Y-51332000D02*
X117698286Y-51332000D01*
X117126857Y-53760572D02*
X117126857Y-54903429D01*
X190840858Y-56053429D02*
X190555144Y-56053429D01*
X190412286Y-55982000D01*
X190269429Y-55839143D01*
X190198001Y-55553429D01*
X190198001Y-55053429D01*
X190269429Y-54767714D01*
X190412286Y-54624857D01*
X190555144Y-54553429D01*
X190840858Y-54553429D01*
X190983715Y-54624857D01*
X191126572Y-54767714D01*
X191198001Y-55053429D01*
X191198001Y-55553429D01*
X191126572Y-55839143D01*
X190983715Y-55982000D01*
X190840858Y-56053429D01*
X188912286Y-55553429D02*
X188912286Y-54553429D01*
X189555143Y-55553429D02*
X189555143Y-54767714D01*
X189483715Y-54624857D01*
X189340857Y-54553429D01*
X189126572Y-54553429D01*
X188983715Y-54624857D01*
X188912286Y-54696286D01*
X188412286Y-55553429D02*
X187840857Y-55553429D01*
X188198000Y-56053429D02*
X188198000Y-54767714D01*
X188126572Y-54624857D01*
X187983714Y-54553429D01*
X187840857Y-54553429D01*
X187340857Y-55553429D02*
X187340857Y-54053429D01*
X187340857Y-55482000D02*
X187198000Y-55553429D01*
X186912286Y-55553429D01*
X186769429Y-55482000D01*
X186698000Y-55410571D01*
X186626571Y-55267714D01*
X186626571Y-54839143D01*
X186698000Y-54696286D01*
X186769429Y-54624857D01*
X186912286Y-54553429D01*
X187198000Y-54553429D01*
X187340857Y-54624857D01*
X185340857Y-55553429D02*
X185340857Y-54553429D01*
X185983714Y-55553429D02*
X185983714Y-54767714D01*
X185912286Y-54624857D01*
X185769428Y-54553429D01*
X185555143Y-54553429D01*
X185412286Y-54624857D01*
X185340857Y-54696286D01*
X184840857Y-55553429D02*
X184269428Y-55553429D01*
X184626571Y-56053429D02*
X184626571Y-54767714D01*
X184555143Y-54624857D01*
X184412285Y-54553429D01*
X184269428Y-54553429D01*
X183840857Y-54624857D02*
X183698000Y-54553429D01*
X183412285Y-54553429D01*
X183269428Y-54624857D01*
X183198000Y-54767714D01*
X183198000Y-54839143D01*
X183269428Y-54982000D01*
X183412285Y-55053429D01*
X183626571Y-55053429D01*
X183769428Y-55124857D01*
X183840857Y-55267714D01*
X183840857Y-55339143D01*
X183769428Y-55482000D01*
X183626571Y-55553429D01*
X183412285Y-55553429D01*
X183269428Y-55482000D01*
X189840856Y-52153429D02*
X190697999Y-52153429D01*
X190269427Y-52153429D02*
X190269427Y-53653429D01*
X190412284Y-53439143D01*
X190555142Y-53296286D01*
X190697999Y-53224857D01*
X189340856Y-53653429D02*
X188340856Y-53653429D01*
X188983713Y-52153429D01*
X187769428Y-52724857D02*
X186626571Y-52724857D01*
X185983714Y-53510571D02*
X185912285Y-53582000D01*
X185769428Y-53653429D01*
X185412285Y-53653429D01*
X185269428Y-53582000D01*
X185197999Y-53510571D01*
X185126571Y-53367714D01*
X185126571Y-53224857D01*
X185197999Y-53010571D01*
X186055142Y-52153429D01*
X185126571Y-52153429D01*
X183840857Y-53153429D02*
X183840857Y-52153429D01*
X184198000Y-53724857D02*
X184555143Y-52653429D01*
X183626571Y-52653429D01*
X189269428Y-50324857D02*
X188126571Y-50324857D01*
X188698000Y-49753429D02*
X188698000Y-50896286D01*
X186269428Y-50324857D02*
X185126571Y-50324857D01*
X117261142Y-142066571D02*
X117546856Y-142066571D01*
X117689714Y-142138000D01*
X117832571Y-142280857D01*
X117903999Y-142566571D01*
X117903999Y-143066571D01*
X117832571Y-143352286D01*
X117689714Y-143495143D01*
X117546856Y-143566571D01*
X117261142Y-143566571D01*
X117118285Y-143495143D01*
X116975428Y-143352286D01*
X116903999Y-143066571D01*
X116903999Y-142566571D01*
X116975428Y-142280857D01*
X117118285Y-142138000D01*
X117261142Y-142066571D01*
X119189714Y-142566571D02*
X119189714Y-143566571D01*
X118546857Y-142566571D02*
X118546857Y-143352286D01*
X118618285Y-143495143D01*
X118761143Y-143566571D01*
X118975428Y-143566571D01*
X119118285Y-143495143D01*
X119189714Y-143423714D01*
X119689714Y-142566571D02*
X120261143Y-142566571D01*
X119904000Y-142066571D02*
X119904000Y-143352286D01*
X119975428Y-143495143D01*
X120118286Y-143566571D01*
X120261143Y-143566571D01*
X120761143Y-142566571D02*
X120761143Y-144066571D01*
X120761143Y-142638000D02*
X120904000Y-142566571D01*
X121189714Y-142566571D01*
X121332571Y-142638000D01*
X121404000Y-142709429D01*
X121475429Y-142852286D01*
X121475429Y-143280857D01*
X121404000Y-143423714D01*
X121332571Y-143495143D01*
X121189714Y-143566571D01*
X120904000Y-143566571D01*
X120761143Y-143495143D01*
X122761143Y-142566571D02*
X122761143Y-143566571D01*
X122118286Y-142566571D02*
X122118286Y-143352286D01*
X122189714Y-143495143D01*
X122332572Y-143566571D01*
X122546857Y-143566571D01*
X122689714Y-143495143D01*
X122761143Y-143423714D01*
X123261143Y-142566571D02*
X123832572Y-142566571D01*
X123475429Y-142066571D02*
X123475429Y-143352286D01*
X123546857Y-143495143D01*
X123689715Y-143566571D01*
X123832572Y-143566571D01*
X124261143Y-143495143D02*
X124404000Y-143566571D01*
X124689715Y-143566571D01*
X124832572Y-143495143D01*
X124904000Y-143352286D01*
X124904000Y-143280857D01*
X124832572Y-143138000D01*
X124689715Y-143066571D01*
X124475429Y-143066571D01*
X124332572Y-142995143D01*
X124261143Y-142852286D01*
X124261143Y-142780857D01*
X124332572Y-142638000D01*
X124475429Y-142566571D01*
X124689715Y-142566571D01*
X124832572Y-142638000D01*
X119689715Y-145966571D02*
X118832572Y-145966571D01*
X119261144Y-145966571D02*
X119261144Y-144466571D01*
X119118287Y-144680857D01*
X118975429Y-144823714D01*
X118832572Y-144895143D01*
X120332572Y-145395143D02*
X121475429Y-145395143D01*
X122404001Y-145109429D02*
X122261143Y-145038000D01*
X122189715Y-144966571D01*
X122118286Y-144823714D01*
X122118286Y-144752286D01*
X122189715Y-144609429D01*
X122261143Y-144538000D01*
X122404001Y-144466571D01*
X122689715Y-144466571D01*
X122832572Y-144538000D01*
X122904001Y-144609429D01*
X122975429Y-144752286D01*
X122975429Y-144823714D01*
X122904001Y-144966571D01*
X122832572Y-145038000D01*
X122689715Y-145109429D01*
X122404001Y-145109429D01*
X122261143Y-145180857D01*
X122189715Y-145252286D01*
X122118286Y-145395143D01*
X122118286Y-145680857D01*
X122189715Y-145823714D01*
X122261143Y-145895143D01*
X122404001Y-145966571D01*
X122689715Y-145966571D01*
X122832572Y-145895143D01*
X122904001Y-145823714D01*
X122975429Y-145680857D01*
X122975429Y-145395143D01*
X122904001Y-145252286D01*
X122832572Y-145180857D01*
X122689715Y-145109429D01*
X118832572Y-147795143D02*
X119975429Y-147795143D01*
X119404000Y-148366571D02*
X119404000Y-147223714D01*
X121832572Y-147795143D02*
X122975429Y-147795143D01*
X176268286Y-115923143D02*
X176482572Y-115994571D01*
X176839715Y-115994571D01*
X176982572Y-115923143D01*
X177054001Y-115851714D01*
X177125429Y-115708857D01*
X177125429Y-115566000D01*
X177054001Y-115423143D01*
X176982572Y-115351714D01*
X176839715Y-115280286D01*
X176554001Y-115208857D01*
X176411143Y-115137429D01*
X176339715Y-115066000D01*
X176268286Y-114923143D01*
X176268286Y-114780286D01*
X176339715Y-114637429D01*
X176411143Y-114566000D01*
X176554001Y-114494571D01*
X176911143Y-114494571D01*
X177125429Y-114566000D01*
X178625429Y-115851714D02*
X178554000Y-115923143D01*
X178339714Y-115994571D01*
X178196857Y-115994571D01*
X177982572Y-115923143D01*
X177839714Y-115780286D01*
X177768286Y-115637429D01*
X177696857Y-115351714D01*
X177696857Y-115137429D01*
X177768286Y-114851714D01*
X177839714Y-114708857D01*
X177982572Y-114566000D01*
X178196857Y-114494571D01*
X178339714Y-114494571D01*
X178554000Y-114566000D01*
X178625429Y-114637429D01*
X179982572Y-115994571D02*
X179268286Y-115994571D01*
X179268286Y-114494571D01*
X176278572Y-120107143D02*
X176492858Y-120178571D01*
X176850001Y-120178571D01*
X176992858Y-120107143D01*
X177064287Y-120035714D01*
X177135715Y-119892857D01*
X177135715Y-119750000D01*
X177064287Y-119607143D01*
X176992858Y-119535714D01*
X176850001Y-119464286D01*
X176564287Y-119392857D01*
X176421429Y-119321429D01*
X176350001Y-119250000D01*
X176278572Y-119107143D01*
X176278572Y-118964286D01*
X176350001Y-118821429D01*
X176421429Y-118750000D01*
X176564287Y-118678571D01*
X176921429Y-118678571D01*
X177135715Y-118750000D01*
X177778572Y-120178571D02*
X177778572Y-118678571D01*
X178135715Y-118678571D01*
X178350000Y-118750000D01*
X178492858Y-118892857D01*
X178564286Y-119035714D01*
X178635715Y-119321429D01*
X178635715Y-119535714D01*
X178564286Y-119821429D01*
X178492858Y-119964286D01*
X178350000Y-120107143D01*
X178135715Y-120178571D01*
X177778572Y-120178571D01*
X179207143Y-119750000D02*
X179921429Y-119750000D01*
X179064286Y-120178571D02*
X179564286Y-118678571D01*
X180064286Y-120178571D01*
X181673428Y-134696857D02*
X180530571Y-134696857D01*
X181102000Y-134125429D02*
X181102000Y-135268286D01*
X181673428Y-132296857D02*
X180530571Y-132296857D01*
X181673428Y-126314857D02*
X180530571Y-126314857D01*
X181102000Y-125743429D02*
X181102000Y-126886286D01*
X181673428Y-123914857D02*
X180530571Y-123914857D01*
X125920572Y-117271143D02*
X127063429Y-117271143D01*
X126492000Y-117842571D02*
X126492000Y-116699714D01*
X125920572Y-119671143D02*
X127063429Y-119671143D01*
X168275715Y-133203143D02*
X169418572Y-133203143D01*
X168847143Y-133774571D02*
X168847143Y-132631714D01*
X169990001Y-132274571D02*
X170918572Y-132274571D01*
X170418572Y-132846000D01*
X170632858Y-132846000D01*
X170775715Y-132917429D01*
X170847144Y-132988857D01*
X170918572Y-133131714D01*
X170918572Y-133488857D01*
X170847144Y-133631714D01*
X170775715Y-133703143D01*
X170632858Y-133774571D01*
X170204286Y-133774571D01*
X170061429Y-133703143D01*
X169990001Y-133631714D01*
X171561429Y-133631714D02*
X171632857Y-133703143D01*
X171561429Y-133774571D01*
X171490000Y-133703143D01*
X171561429Y-133631714D01*
X171561429Y-133774571D01*
X172132858Y-132274571D02*
X173061429Y-132274571D01*
X172561429Y-132846000D01*
X172775715Y-132846000D01*
X172918572Y-132917429D01*
X172990001Y-132988857D01*
X173061429Y-133131714D01*
X173061429Y-133488857D01*
X172990001Y-133631714D01*
X172918572Y-133703143D01*
X172775715Y-133774571D01*
X172347143Y-133774571D01*
X172204286Y-133703143D01*
X172132858Y-133631714D01*
X173490000Y-132274571D02*
X173990000Y-133774571D01*
X174490000Y-132274571D01*
X176418571Y-132274571D02*
X176704285Y-132274571D01*
X176847143Y-132346000D01*
X176990000Y-132488857D01*
X177061428Y-132774571D01*
X177061428Y-133274571D01*
X176990000Y-133560286D01*
X176847143Y-133703143D01*
X176704285Y-133774571D01*
X176418571Y-133774571D01*
X176275714Y-133703143D01*
X176132857Y-133560286D01*
X176061428Y-133274571D01*
X176061428Y-132774571D01*
X176132857Y-132488857D01*
X176275714Y-132346000D01*
X176418571Y-132274571D01*
X177704286Y-132274571D02*
X177704286Y-133488857D01*
X177775714Y-133631714D01*
X177847143Y-133703143D01*
X177990000Y-133774571D01*
X178275714Y-133774571D01*
X178418572Y-133703143D01*
X178490000Y-133631714D01*
X178561429Y-133488857D01*
X178561429Y-132274571D01*
X179061429Y-132274571D02*
X179918572Y-132274571D01*
X179490001Y-133774571D02*
X179490001Y-132274571D01*
X169093143Y-125583143D02*
X170236000Y-125583143D01*
X169664571Y-126154571D02*
X169664571Y-125011714D01*
X171664572Y-124654571D02*
X170950286Y-124654571D01*
X170878857Y-125368857D01*
X170950286Y-125297429D01*
X171093143Y-125226000D01*
X171450286Y-125226000D01*
X171593143Y-125297429D01*
X171664572Y-125368857D01*
X171736000Y-125511714D01*
X171736000Y-125868857D01*
X171664572Y-126011714D01*
X171593143Y-126083143D01*
X171450286Y-126154571D01*
X171093143Y-126154571D01*
X170950286Y-126083143D01*
X170878857Y-126011714D01*
X172164571Y-124654571D02*
X172664571Y-126154571D01*
X173164571Y-124654571D01*
X175093142Y-124654571D02*
X175378856Y-124654571D01*
X175521714Y-124726000D01*
X175664571Y-124868857D01*
X175735999Y-125154571D01*
X175735999Y-125654571D01*
X175664571Y-125940286D01*
X175521714Y-126083143D01*
X175378856Y-126154571D01*
X175093142Y-126154571D01*
X174950285Y-126083143D01*
X174807428Y-125940286D01*
X174735999Y-125654571D01*
X174735999Y-125154571D01*
X174807428Y-124868857D01*
X174950285Y-124726000D01*
X175093142Y-124654571D01*
X176378857Y-124654571D02*
X176378857Y-125868857D01*
X176450285Y-126011714D01*
X176521714Y-126083143D01*
X176664571Y-126154571D01*
X176950285Y-126154571D01*
X177093143Y-126083143D01*
X177164571Y-126011714D01*
X177236000Y-125868857D01*
X177236000Y-124654571D01*
X177736000Y-124654571D02*
X178593143Y-124654571D01*
X178164572Y-126154571D02*
X178164572Y-124654571D01*
X172525715Y-118026571D02*
X172525715Y-116526571D01*
X173168572Y-116669429D02*
X173240001Y-116598000D01*
X173382858Y-116526571D01*
X173740001Y-116526571D01*
X173882858Y-116598000D01*
X173954287Y-116669429D01*
X174025715Y-116812286D01*
X174025715Y-116955143D01*
X173954287Y-117169429D01*
X173097144Y-118026571D01*
X174025715Y-118026571D01*
X175525715Y-117883714D02*
X175454286Y-117955143D01*
X175240000Y-118026571D01*
X175097143Y-118026571D01*
X174882858Y-117955143D01*
X174740000Y-117812286D01*
X174668572Y-117669429D01*
X174597143Y-117383714D01*
X174597143Y-117169429D01*
X174668572Y-116883714D01*
X174740000Y-116740857D01*
X174882858Y-116598000D01*
X175097143Y-116526571D01*
X175240000Y-116526571D01*
X175454286Y-116598000D01*
X175525715Y-116669429D01*
X127488571Y-126591143D02*
X127702857Y-126662571D01*
X128060000Y-126662571D01*
X128202857Y-126591143D01*
X128274286Y-126519714D01*
X128345714Y-126376857D01*
X128345714Y-126234000D01*
X128274286Y-126091143D01*
X128202857Y-126019714D01*
X128060000Y-125948286D01*
X127774286Y-125876857D01*
X127631428Y-125805429D01*
X127560000Y-125734000D01*
X127488571Y-125591143D01*
X127488571Y-125448286D01*
X127560000Y-125305429D01*
X127631428Y-125234000D01*
X127774286Y-125162571D01*
X128131428Y-125162571D01*
X128345714Y-125234000D01*
X128845714Y-125662571D02*
X129131428Y-126662571D01*
X129417142Y-125948286D01*
X129702857Y-126662571D01*
X129988571Y-125662571D01*
X130560000Y-126662571D02*
X130560000Y-125662571D01*
X130560000Y-125162571D02*
X130488571Y-125234000D01*
X130560000Y-125305429D01*
X130631428Y-125234000D01*
X130560000Y-125162571D01*
X130560000Y-125305429D01*
X131060000Y-125662571D02*
X131631429Y-125662571D01*
X131274286Y-125162571D02*
X131274286Y-126448286D01*
X131345714Y-126591143D01*
X131488572Y-126662571D01*
X131631429Y-126662571D01*
X132774286Y-126591143D02*
X132631429Y-126662571D01*
X132345715Y-126662571D01*
X132202857Y-126591143D01*
X132131429Y-126519714D01*
X132060000Y-126376857D01*
X132060000Y-125948286D01*
X132131429Y-125805429D01*
X132202857Y-125734000D01*
X132345715Y-125662571D01*
X132631429Y-125662571D01*
X132774286Y-125734000D01*
X133417143Y-126662571D02*
X133417143Y-125162571D01*
X134060000Y-126662571D02*
X134060000Y-125876857D01*
X133988571Y-125734000D01*
X133845714Y-125662571D01*
X133631429Y-125662571D01*
X133488571Y-125734000D01*
X133417143Y-125805429D01*
X127722858Y-118725143D02*
X128865715Y-118725143D01*
X128294286Y-119296571D02*
X128294286Y-118153714D01*
X130365715Y-119296571D02*
X129508572Y-119296571D01*
X129937144Y-119296571D02*
X129937144Y-117796571D01*
X129794287Y-118010857D01*
X129651429Y-118153714D01*
X129508572Y-118225143D01*
X130937143Y-117939429D02*
X131008572Y-117868000D01*
X131151429Y-117796571D01*
X131508572Y-117796571D01*
X131651429Y-117868000D01*
X131722858Y-117939429D01*
X131794286Y-118082286D01*
X131794286Y-118225143D01*
X131722858Y-118439429D01*
X130865715Y-119296571D01*
X131794286Y-119296571D01*
X132222857Y-117796571D02*
X132722857Y-119296571D01*
X133222857Y-117796571D01*
X134865714Y-119296571D02*
X134865714Y-117796571D01*
X135580000Y-119296571D02*
X135580000Y-117796571D01*
X136437143Y-119296571D01*
X136437143Y-117796571D01*
D12*
X191770000Y-149860000D02*
X191770000Y-48260000D01*
X115570000Y-48260000D02*
X115570000Y-149860000D01*
X115570000Y-149860000D02*
X191770000Y-149860000D01*
X191770000Y-48260000D02*
X115570000Y-48260000D01*
X165425000Y-129550000D02*
X165425000Y-129050000D01*
X164375000Y-129050000D02*
X164375000Y-129550000D01*
X167875000Y-129050000D02*
X167875000Y-129550000D01*
X168925000Y-129550000D02*
X168925000Y-129050000D01*
X165608000Y-100838000D02*
X168656000Y-100838000D01*
X168656000Y-100838000D02*
X168656000Y-93726000D01*
X168656000Y-93726000D02*
X165608000Y-93726000D01*
X162560000Y-100838000D02*
X161798000Y-100838000D01*
X161798000Y-100838000D02*
X159512000Y-99314000D01*
X159512000Y-99314000D02*
X159512000Y-95250000D01*
X159512000Y-95250000D02*
X161798000Y-93726000D01*
X161798000Y-93726000D02*
X162560000Y-93726000D01*
X157654000Y-96814000D02*
X156404000Y-96814000D01*
X157654000Y-96814000D02*
X157654000Y-95314000D01*
X147654000Y-96814000D02*
X147654000Y-95314000D01*
X147654000Y-96814000D02*
X148904000Y-96814000D01*
X117820000Y-109170000D02*
X117420000Y-109170000D01*
X117820000Y-105670000D02*
X117420000Y-105670000D01*
X117820000Y-98670000D02*
X117420000Y-98670000D01*
X117820000Y-102170000D02*
X117420000Y-102170000D01*
X117820000Y-95170000D02*
X117420000Y-95170000D01*
X117820000Y-91670000D02*
X117420000Y-91670000D01*
X117820000Y-84670000D02*
X117420000Y-84670000D01*
X117820000Y-88170000D02*
X117420000Y-88170000D01*
X117820000Y-81170000D02*
X117420000Y-81170000D01*
X117820000Y-67170000D02*
X117420000Y-67170000D01*
X117820000Y-77670000D02*
X117420000Y-77670000D01*
X117820000Y-74170000D02*
X117420000Y-74170000D01*
X117820000Y-60170000D02*
X117420000Y-60170000D01*
X117820000Y-63670000D02*
X117420000Y-63670000D01*
X117820000Y-70670000D02*
X117420000Y-70670000D01*
X118920000Y-56670000D02*
X118920000Y-112670000D01*
X117820000Y-56670000D02*
X117820000Y-112670000D01*
X125020000Y-56670000D02*
X117420000Y-56670000D01*
X117420000Y-112670000D02*
X125020000Y-112670000D01*
X125020000Y-112670000D02*
X125020000Y-56670000D01*
X129550000Y-49300000D02*
X129550000Y-48900000D01*
X133050000Y-49300000D02*
X133050000Y-48900000D01*
X140050000Y-49300000D02*
X140050000Y-48900000D01*
X136550000Y-49300000D02*
X136550000Y-48900000D01*
X143550000Y-49300000D02*
X143550000Y-48900000D01*
X147050000Y-49300000D02*
X147050000Y-48900000D01*
X154050000Y-49300000D02*
X154050000Y-48900000D01*
X150550000Y-49300000D02*
X150550000Y-48900000D01*
X157550000Y-49300000D02*
X157550000Y-48900000D01*
X171550000Y-49300000D02*
X171550000Y-48900000D01*
X161050000Y-49300000D02*
X161050000Y-48900000D01*
X164550000Y-49300000D02*
X164550000Y-48900000D01*
X178550000Y-49300000D02*
X178550000Y-48900000D01*
X175050000Y-49300000D02*
X175050000Y-48900000D01*
X168050000Y-49300000D02*
X168050000Y-48900000D01*
X182050000Y-50400000D02*
X126050000Y-50400000D01*
X182050000Y-49300000D02*
X126050000Y-49300000D01*
X182050000Y-56500000D02*
X182050000Y-48900000D01*
X126050000Y-48900000D02*
X126050000Y-56500000D01*
X126050000Y-56500000D02*
X182050000Y-56500000D01*
X189520000Y-60375000D02*
X189920000Y-60375000D01*
X189520000Y-63875000D02*
X189920000Y-63875000D01*
X189520000Y-70875000D02*
X189920000Y-70875000D01*
X189520000Y-67375000D02*
X189920000Y-67375000D01*
X189520000Y-74375000D02*
X189920000Y-74375000D01*
X189520000Y-77875000D02*
X189920000Y-77875000D01*
X189520000Y-84875000D02*
X189920000Y-84875000D01*
X189520000Y-81375000D02*
X189920000Y-81375000D01*
X189520000Y-88375000D02*
X189920000Y-88375000D01*
X189520000Y-102375000D02*
X189920000Y-102375000D01*
X189520000Y-91875000D02*
X189920000Y-91875000D01*
X189520000Y-95375000D02*
X189920000Y-95375000D01*
X189520000Y-109375000D02*
X189920000Y-109375000D01*
X189520000Y-105875000D02*
X189920000Y-105875000D01*
X189520000Y-98875000D02*
X189920000Y-98875000D01*
X188420000Y-112875000D02*
X188420000Y-56875000D01*
X189520000Y-112875000D02*
X189520000Y-56875000D01*
X182320000Y-112875000D02*
X189920000Y-112875000D01*
X189920000Y-56875000D02*
X182320000Y-56875000D01*
X182320000Y-56875000D02*
X182320000Y-112875000D01*
X177750000Y-148880000D02*
X177750000Y-149280000D01*
X174250000Y-148880000D02*
X174250000Y-149280000D01*
X167250000Y-148880000D02*
X167250000Y-149280000D01*
X170750000Y-148880000D02*
X170750000Y-149280000D01*
X163750000Y-148880000D02*
X163750000Y-149280000D01*
X160250000Y-148880000D02*
X160250000Y-149280000D01*
X153250000Y-148880000D02*
X153250000Y-149280000D01*
X156750000Y-148880000D02*
X156750000Y-149280000D01*
X149750000Y-148880000D02*
X149750000Y-149280000D01*
X135750000Y-148880000D02*
X135750000Y-149280000D01*
X146250000Y-148880000D02*
X146250000Y-149280000D01*
X142750000Y-148880000D02*
X142750000Y-149280000D01*
X128750000Y-148880000D02*
X128750000Y-149280000D01*
X132250000Y-148880000D02*
X132250000Y-149280000D01*
X139250000Y-148880000D02*
X139250000Y-149280000D01*
X125250000Y-147780000D02*
X181250000Y-147780000D01*
X125250000Y-148880000D02*
X181250000Y-148880000D01*
X125250000Y-141680000D02*
X125250000Y-149280000D01*
X181250000Y-149280000D02*
X181250000Y-141680000D01*
X181250000Y-141680000D02*
X125250000Y-141680000D01*
X117820000Y-126210000D02*
X117420000Y-126210000D01*
X118920000Y-122710000D02*
X118920000Y-129710000D01*
X117820000Y-122710000D02*
X117820000Y-129710000D01*
X125020000Y-122710000D02*
X117420000Y-122710000D01*
X117420000Y-129710000D02*
X125020000Y-129710000D01*
X125020000Y-129710000D02*
X125020000Y-122710000D01*
X117820000Y-118590000D02*
X117420000Y-118590000D01*
X118920000Y-115090000D02*
X118920000Y-122090000D01*
X117820000Y-115090000D02*
X117820000Y-122090000D01*
X125020000Y-115090000D02*
X117420000Y-115090000D01*
X117420000Y-122090000D02*
X125020000Y-122090000D01*
X125020000Y-122090000D02*
X125020000Y-115090000D01*
X189520000Y-117376000D02*
X189920000Y-117376000D01*
X188420000Y-120876000D02*
X188420000Y-113876000D01*
X189520000Y-120876000D02*
X189520000Y-113876000D01*
X182320000Y-120876000D02*
X189920000Y-120876000D01*
X189920000Y-113876000D02*
X182320000Y-113876000D01*
X182320000Y-113876000D02*
X182320000Y-120876000D01*
X161465260Y-114554000D02*
G75*
G03X161465260Y-114554000I-5001260J0D01*
G01*
X150464520Y-114554000D02*
X150464520Y-109552740D01*
X150464520Y-109552740D02*
X151462740Y-108554520D01*
X151462740Y-108554520D02*
X161465260Y-108554520D01*
X161465260Y-108554520D02*
X162463480Y-109552740D01*
X162463480Y-109552740D02*
X162463480Y-119555260D01*
X162463480Y-119555260D02*
X161465260Y-120553480D01*
X161465260Y-120553480D02*
X151462740Y-120553480D01*
X151462740Y-120553480D02*
X150464520Y-119555260D01*
X150464520Y-119555260D02*
X150464520Y-114554000D01*
X134145000Y-93730000D02*
X134145000Y-94230000D01*
X135095000Y-94230000D02*
X135095000Y-93730000D01*
X145030000Y-65565000D02*
X144530000Y-65565000D01*
X144530000Y-66515000D02*
X145030000Y-66515000D01*
X173449000Y-78990000D02*
X173449000Y-78490000D01*
X172499000Y-78490000D02*
X172499000Y-78990000D01*
X160024000Y-132047000D02*
X160524000Y-132047000D01*
X160524000Y-131097000D02*
X160024000Y-131097000D01*
X165149000Y-108474000D02*
X165149000Y-110474000D01*
X168099000Y-110474000D02*
X168099000Y-108474000D01*
X169893000Y-96262000D02*
X169893000Y-95762000D01*
X168943000Y-95762000D02*
X168943000Y-96262000D01*
X168943000Y-98302000D02*
X168943000Y-98802000D01*
X169893000Y-98802000D02*
X169893000Y-98302000D01*
X165275000Y-125250000D02*
X165275000Y-125750000D01*
X166325000Y-125750000D02*
X166325000Y-125250000D01*
X162975000Y-125250000D02*
X162975000Y-125750000D01*
X164025000Y-125750000D02*
X164025000Y-125250000D01*
X189520000Y-125504000D02*
X189920000Y-125504000D01*
X188420000Y-129004000D02*
X188420000Y-122004000D01*
X189520000Y-129004000D02*
X189520000Y-122004000D01*
X182320000Y-129004000D02*
X189920000Y-129004000D01*
X189920000Y-122004000D02*
X182320000Y-122004000D01*
X182320000Y-122004000D02*
X182320000Y-129004000D01*
X189520000Y-133632000D02*
X189920000Y-133632000D01*
X188420000Y-137132000D02*
X188420000Y-130132000D01*
X189520000Y-137132000D02*
X189520000Y-130132000D01*
X182320000Y-137132000D02*
X189920000Y-137132000D01*
X189920000Y-130132000D02*
X182320000Y-130132000D01*
X182320000Y-130132000D02*
X182320000Y-137132000D01*
X144780000Y-113665000D02*
X142748000Y-113665000D01*
X142367000Y-113538000D02*
X145288000Y-113538000D01*
X145542000Y-113411000D02*
X141986000Y-113411000D01*
X141605000Y-113284000D02*
X145923000Y-113284000D01*
X146177000Y-113157000D02*
X141351000Y-113157000D01*
X141224000Y-113030000D02*
X146304000Y-113030000D01*
X138557000Y-114046000D02*
X148971000Y-114046000D01*
X148971000Y-114046000D02*
X148971000Y-104394000D01*
X148971000Y-104394000D02*
X148209000Y-103632000D01*
X148209000Y-103632000D02*
X139319000Y-103632000D01*
X139319000Y-103632000D02*
X138557000Y-104394000D01*
X138557000Y-104394000D02*
X138557000Y-114046000D01*
X143764000Y-104267000D02*
X143764000Y-105029000D01*
X143383000Y-104648000D02*
X144145000Y-104648000D01*
X148717000Y-108839000D02*
G75*
G03X148717000Y-108839000I-4953000J0D01*
G01*
X163577220Y-105407040D02*
X165101220Y-105407040D01*
X154433220Y-105407040D02*
X152909220Y-105407040D01*
X155449220Y-102613040D02*
X155449220Y-108201040D01*
X155195220Y-102613040D02*
X155195220Y-108201040D01*
X154941220Y-102613040D02*
X154941220Y-108201040D01*
X154433220Y-108201040D02*
X154433220Y-102613040D01*
X154433220Y-102613040D02*
X163577220Y-102613040D01*
X163577220Y-102613040D02*
X163577220Y-108201040D01*
X163577220Y-108201040D02*
X154433220Y-108201040D01*
X158604000Y-122871000D02*
X158259000Y-122871000D01*
X158604000Y-130621000D02*
X158259000Y-130621000D01*
X146704000Y-130621000D02*
X147049000Y-130621000D01*
X146704000Y-122871000D02*
X147049000Y-122871000D01*
X158604000Y-122871000D02*
X158604000Y-130621000D01*
X146704000Y-122871000D02*
X146704000Y-130621000D01*
X158259000Y-122871000D02*
X158259000Y-121046000D01*
X164273000Y-80410000D02*
X164273000Y-80755000D01*
X172023000Y-80410000D02*
X172023000Y-80755000D01*
X172023000Y-92310000D02*
X172023000Y-91965000D01*
X164273000Y-92310000D02*
X164273000Y-91965000D01*
X164273000Y-80410000D02*
X172023000Y-80410000D01*
X164273000Y-92310000D02*
X172023000Y-92310000D01*
X164273000Y-80755000D02*
X162448000Y-80755000D01*
X146450000Y-74741000D02*
X146795000Y-74741000D01*
X146450000Y-66991000D02*
X146795000Y-66991000D01*
X158350000Y-66991000D02*
X158005000Y-66991000D01*
X158350000Y-74741000D02*
X158005000Y-74741000D01*
X146450000Y-74741000D02*
X146450000Y-66991000D01*
X158350000Y-74741000D02*
X158350000Y-66991000D01*
X146795000Y-74741000D02*
X146795000Y-76566000D01*
X143067000Y-92310000D02*
X143067000Y-91965000D01*
X135317000Y-92310000D02*
X135317000Y-91965000D01*
X135317000Y-80410000D02*
X135317000Y-80755000D01*
X143067000Y-80410000D02*
X143067000Y-80755000D01*
X143067000Y-92310000D02*
X135317000Y-92310000D01*
X143067000Y-80410000D02*
X135317000Y-80410000D01*
X143067000Y-91965000D02*
X144892000Y-91965000D01*
X131656000Y-139996000D02*
X131656000Y-138896000D01*
X131656000Y-138896000D02*
X129456000Y-138896000D01*
X129456000Y-138896000D02*
X129456000Y-139996000D01*
X129456000Y-139996000D02*
X131606000Y-139996000D01*
X131606000Y-139996000D02*
X131656000Y-139996000D01*
X138768000Y-139996000D02*
X138768000Y-138896000D01*
X138768000Y-138896000D02*
X136568000Y-138896000D01*
X136568000Y-138896000D02*
X136568000Y-139996000D01*
X136568000Y-139996000D02*
X138718000Y-139996000D01*
X138718000Y-139996000D02*
X138768000Y-139996000D01*
X145880000Y-139996000D02*
X145880000Y-138896000D01*
X145880000Y-138896000D02*
X143680000Y-138896000D01*
X143680000Y-138896000D02*
X143680000Y-139996000D01*
X143680000Y-139996000D02*
X145830000Y-139996000D01*
X145830000Y-139996000D02*
X145880000Y-139996000D01*
X152484000Y-139996000D02*
X152484000Y-138896000D01*
X152484000Y-138896000D02*
X150284000Y-138896000D01*
X150284000Y-138896000D02*
X150284000Y-139996000D01*
X150284000Y-139996000D02*
X152434000Y-139996000D01*
X152434000Y-139996000D02*
X152484000Y-139996000D01*
X159596000Y-139996000D02*
X159596000Y-138896000D01*
X159596000Y-138896000D02*
X157396000Y-138896000D01*
X157396000Y-138896000D02*
X157396000Y-139996000D01*
X157396000Y-139996000D02*
X159546000Y-139996000D01*
X159546000Y-139996000D02*
X159596000Y-139996000D01*
X166708000Y-139996000D02*
X166708000Y-138896000D01*
X166708000Y-138896000D02*
X164508000Y-138896000D01*
X164508000Y-138896000D02*
X164508000Y-139996000D01*
X164508000Y-139996000D02*
X166658000Y-139996000D01*
X166658000Y-139996000D02*
X166708000Y-139996000D01*
X173312000Y-139742000D02*
X173312000Y-138642000D01*
X173312000Y-138642000D02*
X171112000Y-138642000D01*
X171112000Y-138642000D02*
X171112000Y-139742000D01*
X171112000Y-139742000D02*
X173262000Y-139742000D01*
X173262000Y-139742000D02*
X173312000Y-139742000D01*
X180678000Y-139742000D02*
X180678000Y-138642000D01*
X180678000Y-138642000D02*
X178478000Y-138642000D01*
X178478000Y-138642000D02*
X178478000Y-139742000D01*
X178478000Y-139742000D02*
X180628000Y-139742000D01*
X180628000Y-139742000D02*
X180678000Y-139742000D01*
X180382000Y-106596000D02*
X179282000Y-106596000D01*
X179282000Y-106596000D02*
X179282000Y-108796000D01*
X179282000Y-108796000D02*
X180382000Y-108796000D01*
X180382000Y-108796000D02*
X180382000Y-106646000D01*
X180382000Y-106646000D02*
X180382000Y-106596000D01*
X180382000Y-99738000D02*
X179282000Y-99738000D01*
X179282000Y-99738000D02*
X179282000Y-101938000D01*
X179282000Y-101938000D02*
X180382000Y-101938000D01*
X180382000Y-101938000D02*
X180382000Y-99788000D01*
X180382000Y-99788000D02*
X180382000Y-99738000D01*
X180382000Y-92626000D02*
X179282000Y-92626000D01*
X179282000Y-92626000D02*
X179282000Y-94826000D01*
X179282000Y-94826000D02*
X180382000Y-94826000D01*
X180382000Y-94826000D02*
X180382000Y-92676000D01*
X180382000Y-92676000D02*
X180382000Y-92626000D01*
X180636000Y-85514000D02*
X179536000Y-85514000D01*
X179536000Y-85514000D02*
X179536000Y-87714000D01*
X179536000Y-87714000D02*
X180636000Y-87714000D01*
X180636000Y-87714000D02*
X180636000Y-85564000D01*
X180636000Y-85564000D02*
X180636000Y-85514000D01*
X180636000Y-78402000D02*
X179536000Y-78402000D01*
X179536000Y-78402000D02*
X179536000Y-80602000D01*
X179536000Y-80602000D02*
X180636000Y-80602000D01*
X180636000Y-80602000D02*
X180636000Y-78452000D01*
X180636000Y-78452000D02*
X180636000Y-78402000D01*
X180636000Y-71544000D02*
X179536000Y-71544000D01*
X179536000Y-71544000D02*
X179536000Y-73744000D01*
X179536000Y-73744000D02*
X180636000Y-73744000D01*
X180636000Y-73744000D02*
X180636000Y-71594000D01*
X180636000Y-71594000D02*
X180636000Y-71544000D01*
X180636000Y-64686000D02*
X179536000Y-64686000D01*
X179536000Y-64686000D02*
X179536000Y-66886000D01*
X179536000Y-66886000D02*
X180636000Y-66886000D01*
X180636000Y-66886000D02*
X180636000Y-64736000D01*
X180636000Y-64736000D02*
X180636000Y-64686000D01*
X180650000Y-58200000D02*
X179550000Y-58200000D01*
X179550000Y-58200000D02*
X179550000Y-60400000D01*
X179550000Y-60400000D02*
X180650000Y-60400000D01*
X180650000Y-60400000D02*
X180650000Y-58250000D01*
X180650000Y-58250000D02*
X180650000Y-58200000D01*
X173398000Y-58378000D02*
X173398000Y-59478000D01*
X173398000Y-59478000D02*
X175598000Y-59478000D01*
X175598000Y-59478000D02*
X175598000Y-58378000D01*
X175598000Y-58378000D02*
X173448000Y-58378000D01*
X173448000Y-58378000D02*
X173398000Y-58378000D01*
X168000000Y-58850000D02*
X168000000Y-59950000D01*
X168000000Y-59950000D02*
X170200000Y-59950000D01*
X170200000Y-59950000D02*
X170200000Y-58850000D01*
X170200000Y-58850000D02*
X168050000Y-58850000D01*
X168050000Y-58850000D02*
X168000000Y-58850000D01*
X161714000Y-58124000D02*
X161714000Y-59224000D01*
X161714000Y-59224000D02*
X163914000Y-59224000D01*
X163914000Y-59224000D02*
X163914000Y-58124000D01*
X163914000Y-58124000D02*
X161764000Y-58124000D01*
X161764000Y-58124000D02*
X161714000Y-58124000D01*
X154602000Y-58124000D02*
X154602000Y-59224000D01*
X154602000Y-59224000D02*
X156802000Y-59224000D01*
X156802000Y-59224000D02*
X156802000Y-58124000D01*
X156802000Y-58124000D02*
X154652000Y-58124000D01*
X154652000Y-58124000D02*
X154602000Y-58124000D01*
X147490000Y-58124000D02*
X147490000Y-59224000D01*
X147490000Y-59224000D02*
X149690000Y-59224000D01*
X149690000Y-59224000D02*
X149690000Y-58124000D01*
X149690000Y-58124000D02*
X147540000Y-58124000D01*
X147540000Y-58124000D02*
X147490000Y-58124000D01*
X140886000Y-58124000D02*
X140886000Y-59224000D01*
X140886000Y-59224000D02*
X143086000Y-59224000D01*
X143086000Y-59224000D02*
X143086000Y-58124000D01*
X143086000Y-58124000D02*
X140936000Y-58124000D01*
X140936000Y-58124000D02*
X140886000Y-58124000D01*
X135000000Y-59550000D02*
X135000000Y-60650000D01*
X135000000Y-60650000D02*
X137200000Y-60650000D01*
X137200000Y-60650000D02*
X137200000Y-59550000D01*
X137200000Y-59550000D02*
X135050000Y-59550000D01*
X135050000Y-59550000D02*
X135000000Y-59550000D01*
X129300000Y-58150000D02*
X129300000Y-59250000D01*
X129300000Y-59250000D02*
X131500000Y-59250000D01*
X131500000Y-59250000D02*
X131500000Y-58150000D01*
X131500000Y-58150000D02*
X129350000Y-58150000D01*
X129350000Y-58150000D02*
X129300000Y-58150000D01*
X126704000Y-63076000D02*
X127804000Y-63076000D01*
X127804000Y-63076000D02*
X127804000Y-60876000D01*
X127804000Y-60876000D02*
X126704000Y-60876000D01*
X126704000Y-60876000D02*
X126704000Y-63026000D01*
X126704000Y-63026000D02*
X126704000Y-63076000D01*
X126958000Y-70188000D02*
X128058000Y-70188000D01*
X128058000Y-70188000D02*
X128058000Y-67988000D01*
X128058000Y-67988000D02*
X126958000Y-67988000D01*
X126958000Y-67988000D02*
X126958000Y-70138000D01*
X126958000Y-70138000D02*
X126958000Y-70188000D01*
X126958000Y-77046000D02*
X128058000Y-77046000D01*
X128058000Y-77046000D02*
X128058000Y-74846000D01*
X128058000Y-74846000D02*
X126958000Y-74846000D01*
X126958000Y-74846000D02*
X126958000Y-76996000D01*
X126958000Y-76996000D02*
X126958000Y-77046000D01*
X126704000Y-84158000D02*
X127804000Y-84158000D01*
X127804000Y-84158000D02*
X127804000Y-81958000D01*
X127804000Y-81958000D02*
X126704000Y-81958000D01*
X126704000Y-81958000D02*
X126704000Y-84108000D01*
X126704000Y-84108000D02*
X126704000Y-84158000D01*
X126704000Y-91016000D02*
X127804000Y-91016000D01*
X127804000Y-91016000D02*
X127804000Y-88816000D01*
X127804000Y-88816000D02*
X126704000Y-88816000D01*
X126704000Y-88816000D02*
X126704000Y-90966000D01*
X126704000Y-90966000D02*
X126704000Y-91016000D01*
X126704000Y-97874000D02*
X127804000Y-97874000D01*
X127804000Y-97874000D02*
X127804000Y-95674000D01*
X127804000Y-95674000D02*
X126704000Y-95674000D01*
X126704000Y-95674000D02*
X126704000Y-97824000D01*
X126704000Y-97824000D02*
X126704000Y-97874000D01*
X126958000Y-104986000D02*
X128058000Y-104986000D01*
X128058000Y-104986000D02*
X128058000Y-102786000D01*
X128058000Y-102786000D02*
X126958000Y-102786000D01*
X126958000Y-102786000D02*
X126958000Y-104936000D01*
X126958000Y-104936000D02*
X126958000Y-104986000D01*
X127212000Y-111844000D02*
X128312000Y-111844000D01*
X128312000Y-111844000D02*
X128312000Y-109644000D01*
X128312000Y-109644000D02*
X127212000Y-109644000D01*
X127212000Y-109644000D02*
X127212000Y-111794000D01*
X127212000Y-111794000D02*
X127212000Y-111844000D01*
X128200000Y-140900000D02*
X128200000Y-139500000D01*
X128200000Y-139500000D02*
X125900000Y-139500000D01*
X125900000Y-139500000D02*
X125900000Y-140900000D01*
X125900000Y-140900000D02*
X128200000Y-140900000D01*
X135300000Y-140900000D02*
X135300000Y-139500000D01*
X135300000Y-139500000D02*
X133000000Y-139500000D01*
X133000000Y-139500000D02*
X133000000Y-140900000D01*
X133000000Y-140900000D02*
X135300000Y-140900000D01*
X142400000Y-140900000D02*
X142400000Y-139500000D01*
X142400000Y-139500000D02*
X140100000Y-139500000D01*
X140100000Y-139500000D02*
X140100000Y-140900000D01*
X140100000Y-140900000D02*
X142400000Y-140900000D01*
X149200000Y-140900000D02*
X149200000Y-139500000D01*
X149200000Y-139500000D02*
X146900000Y-139500000D01*
X146900000Y-139500000D02*
X146900000Y-140900000D01*
X146900000Y-140900000D02*
X149200000Y-140900000D01*
X156200000Y-140900000D02*
X156200000Y-139500000D01*
X156200000Y-139500000D02*
X153900000Y-139500000D01*
X153900000Y-139500000D02*
X153900000Y-140900000D01*
X153900000Y-140900000D02*
X156200000Y-140900000D01*
X163300000Y-140800000D02*
X163300000Y-139400000D01*
X163300000Y-139400000D02*
X161000000Y-139400000D01*
X161000000Y-139400000D02*
X161000000Y-140800000D01*
X161000000Y-140800000D02*
X163300000Y-140800000D01*
X170100000Y-140800000D02*
X170100000Y-139400000D01*
X170100000Y-139400000D02*
X167800000Y-139400000D01*
X167800000Y-139400000D02*
X167800000Y-140800000D01*
X167800000Y-140800000D02*
X170100000Y-140800000D01*
X177000000Y-140800000D02*
X177000000Y-139400000D01*
X177000000Y-139400000D02*
X174700000Y-139400000D01*
X174700000Y-139400000D02*
X174700000Y-140800000D01*
X174700000Y-140800000D02*
X177000000Y-140800000D01*
X181300000Y-110200000D02*
X179900000Y-110200000D01*
X179900000Y-110200000D02*
X179900000Y-112500000D01*
X179900000Y-112500000D02*
X181300000Y-112500000D01*
X181300000Y-112500000D02*
X181300000Y-110200000D01*
X181200000Y-103200000D02*
X179800000Y-103200000D01*
X179800000Y-103200000D02*
X179800000Y-105500000D01*
X179800000Y-105500000D02*
X181200000Y-105500000D01*
X181200000Y-105500000D02*
X181200000Y-103200000D01*
X181300000Y-96200000D02*
X179900000Y-96200000D01*
X179900000Y-96200000D02*
X179900000Y-98500000D01*
X179900000Y-98500000D02*
X181300000Y-98500000D01*
X181300000Y-98500000D02*
X181300000Y-96200000D01*
X181500000Y-89000000D02*
X180100000Y-89000000D01*
X180100000Y-89000000D02*
X180100000Y-91300000D01*
X180100000Y-91300000D02*
X181500000Y-91300000D01*
X181500000Y-91300000D02*
X181500000Y-89000000D01*
X181600000Y-82000000D02*
X180200000Y-82000000D01*
X180200000Y-82000000D02*
X180200000Y-84300000D01*
X180200000Y-84300000D02*
X181600000Y-84300000D01*
X181600000Y-84300000D02*
X181600000Y-82000000D01*
X181600000Y-74900000D02*
X180200000Y-74900000D01*
X180200000Y-74900000D02*
X180200000Y-77200000D01*
X180200000Y-77200000D02*
X181600000Y-77200000D01*
X181600000Y-77200000D02*
X181600000Y-74900000D01*
X181600000Y-68100000D02*
X180200000Y-68100000D01*
X180200000Y-68100000D02*
X180200000Y-70400000D01*
X180200000Y-70400000D02*
X181600000Y-70400000D01*
X181600000Y-70400000D02*
X181600000Y-68100000D01*
X181700000Y-61400000D02*
X180300000Y-61400000D01*
X180300000Y-61400000D02*
X180300000Y-63700000D01*
X180300000Y-63700000D02*
X181700000Y-63700000D01*
X181700000Y-63700000D02*
X181700000Y-61400000D01*
X176000000Y-56800000D02*
X176000000Y-58200000D01*
X176000000Y-58200000D02*
X178300000Y-58200000D01*
X178300000Y-58200000D02*
X178300000Y-56800000D01*
X178300000Y-56800000D02*
X176000000Y-56800000D01*
X170800000Y-56900000D02*
X170800000Y-58300000D01*
X170800000Y-58300000D02*
X173100000Y-58300000D01*
X173100000Y-58300000D02*
X173100000Y-56900000D01*
X173100000Y-56900000D02*
X170800000Y-56900000D01*
X165000000Y-57100000D02*
X165000000Y-58500000D01*
X165000000Y-58500000D02*
X167300000Y-58500000D01*
X167300000Y-58500000D02*
X167300000Y-57100000D01*
X167300000Y-57100000D02*
X165000000Y-57100000D01*
X158000000Y-57300000D02*
X158000000Y-58700000D01*
X158000000Y-58700000D02*
X160300000Y-58700000D01*
X160300000Y-58700000D02*
X160300000Y-57300000D01*
X160300000Y-57300000D02*
X158000000Y-57300000D01*
X150900000Y-57200000D02*
X150900000Y-58600000D01*
X150900000Y-58600000D02*
X153200000Y-58600000D01*
X153200000Y-58600000D02*
X153200000Y-57200000D01*
X153200000Y-57200000D02*
X150900000Y-57200000D01*
X144100000Y-57100000D02*
X144100000Y-58500000D01*
X144100000Y-58500000D02*
X146400000Y-58500000D01*
X146400000Y-58500000D02*
X146400000Y-57100000D01*
X146400000Y-57100000D02*
X144100000Y-57100000D01*
X137500000Y-57000000D02*
X137500000Y-58400000D01*
X137500000Y-58400000D02*
X139800000Y-58400000D01*
X139800000Y-58400000D02*
X139800000Y-57000000D01*
X139800000Y-57000000D02*
X137500000Y-57000000D01*
X132400000Y-57000000D02*
X132400000Y-58400000D01*
X132400000Y-58400000D02*
X134700000Y-58400000D01*
X134700000Y-58400000D02*
X134700000Y-57000000D01*
X134700000Y-57000000D02*
X132400000Y-57000000D01*
X125700000Y-59700000D02*
X127100000Y-59700000D01*
X127100000Y-59700000D02*
X127100000Y-57400000D01*
X127100000Y-57400000D02*
X125700000Y-57400000D01*
X125700000Y-57400000D02*
X125700000Y-59700000D01*
X125700000Y-66600000D02*
X127100000Y-66600000D01*
X127100000Y-66600000D02*
X127100000Y-64300000D01*
X127100000Y-64300000D02*
X125700000Y-64300000D01*
X125700000Y-64300000D02*
X125700000Y-66600000D01*
X125800000Y-73500000D02*
X127200000Y-73500000D01*
X127200000Y-73500000D02*
X127200000Y-71200000D01*
X127200000Y-71200000D02*
X125800000Y-71200000D01*
X125800000Y-71200000D02*
X125800000Y-73500000D01*
X125700000Y-80500000D02*
X127100000Y-80500000D01*
X127100000Y-80500000D02*
X127100000Y-78200000D01*
X127100000Y-78200000D02*
X125700000Y-78200000D01*
X125700000Y-78200000D02*
X125700000Y-80500000D01*
X125900000Y-87700000D02*
X127300000Y-87700000D01*
X127300000Y-87700000D02*
X127300000Y-85400000D01*
X127300000Y-85400000D02*
X125900000Y-85400000D01*
X125900000Y-85400000D02*
X125900000Y-87700000D01*
X125800000Y-94400000D02*
X127200000Y-94400000D01*
X127200000Y-94400000D02*
X127200000Y-92100000D01*
X127200000Y-92100000D02*
X125800000Y-92100000D01*
X125800000Y-92100000D02*
X125800000Y-94400000D01*
X125900000Y-101400000D02*
X127300000Y-101400000D01*
X127300000Y-101400000D02*
X127300000Y-99100000D01*
X127300000Y-99100000D02*
X125900000Y-99100000D01*
X125900000Y-99100000D02*
X125900000Y-101400000D01*
X126000000Y-108500000D02*
X127400000Y-108500000D01*
X127400000Y-108500000D02*
X127400000Y-106200000D01*
X127400000Y-106200000D02*
X126000000Y-106200000D01*
X126000000Y-106200000D02*
X126000000Y-108500000D01*
X163752381Y-129166666D02*
X163276190Y-129500000D01*
X163752381Y-129738095D02*
X162752381Y-129738095D01*
X162752381Y-129357142D01*
X162800000Y-129261904D01*
X162847619Y-129214285D01*
X162942857Y-129166666D01*
X163085714Y-129166666D01*
X163180952Y-129214285D01*
X163228571Y-129261904D01*
X163276190Y-129357142D01*
X163276190Y-129738095D01*
X162847619Y-128785714D02*
X162800000Y-128738095D01*
X162752381Y-128642857D01*
X162752381Y-128404761D01*
X162800000Y-128309523D01*
X162847619Y-128261904D01*
X162942857Y-128214285D01*
X163038095Y-128214285D01*
X163180952Y-128261904D01*
X163752381Y-128833333D01*
X163752381Y-128214285D01*
X170552381Y-129366666D02*
X170076190Y-129700000D01*
X170552381Y-129938095D02*
X169552381Y-129938095D01*
X169552381Y-129557142D01*
X169600000Y-129461904D01*
X169647619Y-129414285D01*
X169742857Y-129366666D01*
X169885714Y-129366666D01*
X169980952Y-129414285D01*
X170028571Y-129461904D01*
X170076190Y-129557142D01*
X170076190Y-129938095D01*
X170552381Y-128414285D02*
X170552381Y-128985714D01*
X170552381Y-128700000D02*
X169552381Y-128700000D01*
X169695238Y-128795238D01*
X169790476Y-128890476D01*
X169838095Y-128985714D01*
X167252381Y-102961905D02*
X168061905Y-102961905D01*
X168157143Y-102914286D01*
X168204762Y-102866667D01*
X168252381Y-102771429D01*
X168252381Y-102580952D01*
X168204762Y-102485714D01*
X168157143Y-102438095D01*
X168061905Y-102390476D01*
X167252381Y-102390476D01*
X167347619Y-101961905D02*
X167300000Y-101914286D01*
X167252381Y-101819048D01*
X167252381Y-101580952D01*
X167300000Y-101485714D01*
X167347619Y-101438095D01*
X167442857Y-101390476D01*
X167538095Y-101390476D01*
X167680952Y-101438095D01*
X168252381Y-102009524D01*
X168252381Y-101390476D01*
X145288095Y-95718381D02*
X145288095Y-96527905D01*
X145335714Y-96623143D01*
X145383333Y-96670762D01*
X145478571Y-96718381D01*
X145669048Y-96718381D01*
X145764286Y-96670762D01*
X145811905Y-96623143D01*
X145859524Y-96527905D01*
X145859524Y-95718381D01*
X146859524Y-96718381D02*
X146288095Y-96718381D01*
X146573809Y-96718381D02*
X146573809Y-95718381D01*
X146478571Y-95861238D01*
X146383333Y-95956476D01*
X146288095Y-96004095D01*
X126452381Y-113538095D02*
X125452381Y-113538095D01*
X125452381Y-113157142D01*
X125500000Y-113061904D01*
X125547619Y-113014285D01*
X125642857Y-112966666D01*
X125785714Y-112966666D01*
X125880952Y-113014285D01*
X125928571Y-113061904D01*
X125976190Y-113157142D01*
X125976190Y-113538095D01*
X126452381Y-112490476D02*
X126452381Y-112300000D01*
X126404762Y-112204761D01*
X126357143Y-112157142D01*
X126214286Y-112061904D01*
X126023810Y-112014285D01*
X125642857Y-112014285D01*
X125547619Y-112061904D01*
X125500000Y-112109523D01*
X125452381Y-112204761D01*
X125452381Y-112395238D01*
X125500000Y-112490476D01*
X125547619Y-112538095D01*
X125642857Y-112585714D01*
X125880952Y-112585714D01*
X125976190Y-112538095D01*
X126023810Y-112490476D01*
X126071429Y-112395238D01*
X126071429Y-112204761D01*
X126023810Y-112109523D01*
X125976190Y-112061904D01*
X125880952Y-112014285D01*
X182421905Y-50512381D02*
X182421905Y-49512381D01*
X182802858Y-49512381D01*
X182898096Y-49560000D01*
X182945715Y-49607619D01*
X182993334Y-49702857D01*
X182993334Y-49845714D01*
X182945715Y-49940952D01*
X182898096Y-49988571D01*
X182802858Y-50036190D01*
X182421905Y-50036190D01*
X183564762Y-49940952D02*
X183469524Y-49893333D01*
X183421905Y-49845714D01*
X183374286Y-49750476D01*
X183374286Y-49702857D01*
X183421905Y-49607619D01*
X183469524Y-49560000D01*
X183564762Y-49512381D01*
X183755239Y-49512381D01*
X183850477Y-49560000D01*
X183898096Y-49607619D01*
X183945715Y-49702857D01*
X183945715Y-49750476D01*
X183898096Y-49845714D01*
X183850477Y-49893333D01*
X183755239Y-49940952D01*
X183564762Y-49940952D01*
X183469524Y-49988571D01*
X183421905Y-50036190D01*
X183374286Y-50131429D01*
X183374286Y-50321905D01*
X183421905Y-50417143D01*
X183469524Y-50464762D01*
X183564762Y-50512381D01*
X183755239Y-50512381D01*
X183850477Y-50464762D01*
X183898096Y-50417143D01*
X183945715Y-50321905D01*
X183945715Y-50131429D01*
X183898096Y-50036190D01*
X183850477Y-49988571D01*
X183755239Y-49940952D01*
X182152381Y-114438095D02*
X181152381Y-114438095D01*
X181152381Y-114057142D01*
X181200000Y-113961904D01*
X181247619Y-113914285D01*
X181342857Y-113866666D01*
X181485714Y-113866666D01*
X181580952Y-113914285D01*
X181628571Y-113961904D01*
X181676190Y-114057142D01*
X181676190Y-114438095D01*
X181152381Y-113533333D02*
X181152381Y-112866666D01*
X182152381Y-113295238D01*
X123261905Y-149252381D02*
X123261905Y-148252381D01*
X123642858Y-148252381D01*
X123738096Y-148300000D01*
X123785715Y-148347619D01*
X123833334Y-148442857D01*
X123833334Y-148585714D01*
X123785715Y-148680952D01*
X123738096Y-148728571D01*
X123642858Y-148776190D01*
X123261905Y-148776190D01*
X124690477Y-148252381D02*
X124500000Y-148252381D01*
X124404762Y-148300000D01*
X124357143Y-148347619D01*
X124261905Y-148490476D01*
X124214286Y-148680952D01*
X124214286Y-149061905D01*
X124261905Y-149157143D01*
X124309524Y-149204762D01*
X124404762Y-149252381D01*
X124595239Y-149252381D01*
X124690477Y-149204762D01*
X124738096Y-149157143D01*
X124785715Y-149061905D01*
X124785715Y-148823810D01*
X124738096Y-148728571D01*
X124690477Y-148680952D01*
X124595239Y-148633333D01*
X124404762Y-148633333D01*
X124309524Y-148680952D01*
X124261905Y-148728571D01*
X124214286Y-148823810D01*
X126436381Y-129770095D02*
X125436381Y-129770095D01*
X125436381Y-129389142D01*
X125484000Y-129293904D01*
X125531619Y-129246285D01*
X125626857Y-129198666D01*
X125769714Y-129198666D01*
X125864952Y-129246285D01*
X125912571Y-129293904D01*
X125960190Y-129389142D01*
X125960190Y-129770095D01*
X125436381Y-128293904D02*
X125436381Y-128770095D01*
X125912571Y-128817714D01*
X125864952Y-128770095D01*
X125817333Y-128674857D01*
X125817333Y-128436761D01*
X125864952Y-128341523D01*
X125912571Y-128293904D01*
X126007810Y-128246285D01*
X126245905Y-128246285D01*
X126341143Y-128293904D01*
X126388762Y-128341523D01*
X126436381Y-128436761D01*
X126436381Y-128674857D01*
X126388762Y-128770095D01*
X126341143Y-128817714D01*
X126436381Y-116054095D02*
X125436381Y-116054095D01*
X125436381Y-115673142D01*
X125484000Y-115577904D01*
X125531619Y-115530285D01*
X125626857Y-115482666D01*
X125769714Y-115482666D01*
X125864952Y-115530285D01*
X125912571Y-115577904D01*
X125960190Y-115673142D01*
X125960190Y-116054095D01*
X125769714Y-114625523D02*
X126436381Y-114625523D01*
X125388762Y-114863619D02*
X126103048Y-115101714D01*
X126103048Y-114482666D01*
X181852381Y-117938095D02*
X180852381Y-117938095D01*
X180852381Y-117557142D01*
X180900000Y-117461904D01*
X180947619Y-117414285D01*
X181042857Y-117366666D01*
X181185714Y-117366666D01*
X181280952Y-117414285D01*
X181328571Y-117461904D01*
X181376190Y-117557142D01*
X181376190Y-117938095D01*
X180852381Y-117033333D02*
X180852381Y-116414285D01*
X181233333Y-116747619D01*
X181233333Y-116604761D01*
X181280952Y-116509523D01*
X181328571Y-116461904D01*
X181423810Y-116414285D01*
X181661905Y-116414285D01*
X181757143Y-116461904D01*
X181804762Y-116509523D01*
X181852381Y-116604761D01*
X181852381Y-116890476D01*
X181804762Y-116985714D01*
X181757143Y-117033333D01*
X164028381Y-118022666D02*
X164028381Y-118498857D01*
X163028381Y-118498857D01*
X164028381Y-117165523D02*
X164028381Y-117736952D01*
X164028381Y-117451238D02*
X163028381Y-117451238D01*
X163171238Y-117546476D01*
X163266476Y-117641714D01*
X163314095Y-117736952D01*
X133277143Y-94146666D02*
X133324762Y-94194285D01*
X133372381Y-94337142D01*
X133372381Y-94432380D01*
X133324762Y-94575238D01*
X133229524Y-94670476D01*
X133134286Y-94718095D01*
X132943810Y-94765714D01*
X132800952Y-94765714D01*
X132610476Y-94718095D01*
X132515238Y-94670476D01*
X132420000Y-94575238D01*
X132372381Y-94432380D01*
X132372381Y-94337142D01*
X132420000Y-94194285D01*
X132467619Y-94146666D01*
X132800952Y-93575238D02*
X132753333Y-93670476D01*
X132705714Y-93718095D01*
X132610476Y-93765714D01*
X132562857Y-93765714D01*
X132467619Y-93718095D01*
X132420000Y-93670476D01*
X132372381Y-93575238D01*
X132372381Y-93384761D01*
X132420000Y-93289523D01*
X132467619Y-93241904D01*
X132562857Y-93194285D01*
X132610476Y-93194285D01*
X132705714Y-93241904D01*
X132753333Y-93289523D01*
X132800952Y-93384761D01*
X132800952Y-93575238D01*
X132848571Y-93670476D01*
X132896190Y-93718095D01*
X132991429Y-93765714D01*
X133181905Y-93765714D01*
X133277143Y-93718095D01*
X133324762Y-93670476D01*
X133372381Y-93575238D01*
X133372381Y-93384761D01*
X133324762Y-93289523D01*
X133277143Y-93241904D01*
X133181905Y-93194285D01*
X132991429Y-93194285D01*
X132896190Y-93241904D01*
X132848571Y-93289523D01*
X132800952Y-93384761D01*
X144613334Y-64697143D02*
X144565715Y-64744762D01*
X144422858Y-64792381D01*
X144327620Y-64792381D01*
X144184762Y-64744762D01*
X144089524Y-64649524D01*
X144041905Y-64554286D01*
X143994286Y-64363810D01*
X143994286Y-64220952D01*
X144041905Y-64030476D01*
X144089524Y-63935238D01*
X144184762Y-63840000D01*
X144327620Y-63792381D01*
X144422858Y-63792381D01*
X144565715Y-63840000D01*
X144613334Y-63887619D01*
X144946667Y-63792381D02*
X145613334Y-63792381D01*
X145184762Y-64792381D01*
X175031143Y-78906666D02*
X175078762Y-78954285D01*
X175126381Y-79097142D01*
X175126381Y-79192380D01*
X175078762Y-79335238D01*
X174983524Y-79430476D01*
X174888286Y-79478095D01*
X174697810Y-79525714D01*
X174554952Y-79525714D01*
X174364476Y-79478095D01*
X174269238Y-79430476D01*
X174174000Y-79335238D01*
X174126381Y-79192380D01*
X174126381Y-79097142D01*
X174174000Y-78954285D01*
X174221619Y-78906666D01*
X174126381Y-78049523D02*
X174126381Y-78240000D01*
X174174000Y-78335238D01*
X174221619Y-78382857D01*
X174364476Y-78478095D01*
X174554952Y-78525714D01*
X174935905Y-78525714D01*
X175031143Y-78478095D01*
X175078762Y-78430476D01*
X175126381Y-78335238D01*
X175126381Y-78144761D01*
X175078762Y-78049523D01*
X175031143Y-78001904D01*
X174935905Y-77954285D01*
X174697810Y-77954285D01*
X174602571Y-78001904D01*
X174554952Y-78049523D01*
X174507333Y-78144761D01*
X174507333Y-78335238D01*
X174554952Y-78430476D01*
X174602571Y-78478095D01*
X174697810Y-78525714D01*
X160107334Y-133629143D02*
X160059715Y-133676762D01*
X159916858Y-133724381D01*
X159821620Y-133724381D01*
X159678762Y-133676762D01*
X159583524Y-133581524D01*
X159535905Y-133486286D01*
X159488286Y-133295810D01*
X159488286Y-133152952D01*
X159535905Y-132962476D01*
X159583524Y-132867238D01*
X159678762Y-132772000D01*
X159821620Y-132724381D01*
X159916858Y-132724381D01*
X160059715Y-132772000D01*
X160107334Y-132819619D01*
X161012096Y-132724381D02*
X160535905Y-132724381D01*
X160488286Y-133200571D01*
X160535905Y-133152952D01*
X160631143Y-133105333D01*
X160869239Y-133105333D01*
X160964477Y-133152952D01*
X161012096Y-133200571D01*
X161059715Y-133295810D01*
X161059715Y-133533905D01*
X161012096Y-133629143D01*
X160964477Y-133676762D01*
X160869239Y-133724381D01*
X160631143Y-133724381D01*
X160535905Y-133676762D01*
X160488286Y-133629143D01*
X164281143Y-109640666D02*
X164328762Y-109688285D01*
X164376381Y-109831142D01*
X164376381Y-109926380D01*
X164328762Y-110069238D01*
X164233524Y-110164476D01*
X164138286Y-110212095D01*
X163947810Y-110259714D01*
X163804952Y-110259714D01*
X163614476Y-110212095D01*
X163519238Y-110164476D01*
X163424000Y-110069238D01*
X163376381Y-109926380D01*
X163376381Y-109831142D01*
X163424000Y-109688285D01*
X163471619Y-109640666D01*
X163709714Y-108783523D02*
X164376381Y-108783523D01*
X163328762Y-109021619D02*
X164043048Y-109259714D01*
X164043048Y-108640666D01*
X171475143Y-96178666D02*
X171522762Y-96226285D01*
X171570381Y-96369142D01*
X171570381Y-96464380D01*
X171522762Y-96607238D01*
X171427524Y-96702476D01*
X171332286Y-96750095D01*
X171141810Y-96797714D01*
X170998952Y-96797714D01*
X170808476Y-96750095D01*
X170713238Y-96702476D01*
X170618000Y-96607238D01*
X170570381Y-96464380D01*
X170570381Y-96369142D01*
X170618000Y-96226285D01*
X170665619Y-96178666D01*
X170570381Y-95845333D02*
X170570381Y-95226285D01*
X170951333Y-95559619D01*
X170951333Y-95416761D01*
X170998952Y-95321523D01*
X171046571Y-95273904D01*
X171141810Y-95226285D01*
X171379905Y-95226285D01*
X171475143Y-95273904D01*
X171522762Y-95321523D01*
X171570381Y-95416761D01*
X171570381Y-95702476D01*
X171522762Y-95797714D01*
X171475143Y-95845333D01*
X171457143Y-99166666D02*
X171504762Y-99214285D01*
X171552381Y-99357142D01*
X171552381Y-99452380D01*
X171504762Y-99595238D01*
X171409524Y-99690476D01*
X171314286Y-99738095D01*
X171123810Y-99785714D01*
X170980952Y-99785714D01*
X170790476Y-99738095D01*
X170695238Y-99690476D01*
X170600000Y-99595238D01*
X170552381Y-99452380D01*
X170552381Y-99357142D01*
X170600000Y-99214285D01*
X170647619Y-99166666D01*
X170647619Y-98785714D02*
X170600000Y-98738095D01*
X170552381Y-98642857D01*
X170552381Y-98404761D01*
X170600000Y-98309523D01*
X170647619Y-98261904D01*
X170742857Y-98214285D01*
X170838095Y-98214285D01*
X170980952Y-98261904D01*
X171552381Y-98833333D01*
X171552381Y-98214285D01*
X167752381Y-126566666D02*
X167276190Y-126900000D01*
X167752381Y-127138095D02*
X166752381Y-127138095D01*
X166752381Y-126757142D01*
X166800000Y-126661904D01*
X166847619Y-126614285D01*
X166942857Y-126566666D01*
X167085714Y-126566666D01*
X167180952Y-126614285D01*
X167228571Y-126661904D01*
X167276190Y-126757142D01*
X167276190Y-127138095D01*
X167085714Y-125709523D02*
X167752381Y-125709523D01*
X166704762Y-125947619D02*
X167419048Y-126185714D01*
X167419048Y-125566666D01*
X162552381Y-125166666D02*
X162076190Y-125500000D01*
X162552381Y-125738095D02*
X161552381Y-125738095D01*
X161552381Y-125357142D01*
X161600000Y-125261904D01*
X161647619Y-125214285D01*
X161742857Y-125166666D01*
X161885714Y-125166666D01*
X161980952Y-125214285D01*
X162028571Y-125261904D01*
X162076190Y-125357142D01*
X162076190Y-125738095D01*
X161552381Y-124833333D02*
X161552381Y-124214285D01*
X161933333Y-124547619D01*
X161933333Y-124404761D01*
X161980952Y-124309523D01*
X162028571Y-124261904D01*
X162123810Y-124214285D01*
X162361905Y-124214285D01*
X162457143Y-124261904D01*
X162504762Y-124309523D01*
X162552381Y-124404761D01*
X162552381Y-124690476D01*
X162504762Y-124785714D01*
X162457143Y-124833333D01*
X182062381Y-129516095D02*
X181062381Y-129516095D01*
X181062381Y-129135142D01*
X181110000Y-129039904D01*
X181157619Y-128992285D01*
X181252857Y-128944666D01*
X181395714Y-128944666D01*
X181490952Y-128992285D01*
X181538571Y-129039904D01*
X181586190Y-129135142D01*
X181586190Y-129516095D01*
X181157619Y-128563714D02*
X181110000Y-128516095D01*
X181062381Y-128420857D01*
X181062381Y-128182761D01*
X181110000Y-128087523D01*
X181157619Y-128039904D01*
X181252857Y-127992285D01*
X181348095Y-127992285D01*
X181490952Y-128039904D01*
X182062381Y-128611333D01*
X182062381Y-127992285D01*
X185110381Y-139168095D02*
X184110381Y-139168095D01*
X184110381Y-138787142D01*
X184158000Y-138691904D01*
X184205619Y-138644285D01*
X184300857Y-138596666D01*
X184443714Y-138596666D01*
X184538952Y-138644285D01*
X184586571Y-138691904D01*
X184634190Y-138787142D01*
X184634190Y-139168095D01*
X185110381Y-137644285D02*
X185110381Y-138215714D01*
X185110381Y-137930000D02*
X184110381Y-137930000D01*
X184253238Y-138025238D01*
X184348476Y-138120476D01*
X184396095Y-138215714D01*
X137771143Y-109005666D02*
X137818762Y-109053285D01*
X137866381Y-109196142D01*
X137866381Y-109291380D01*
X137818762Y-109434238D01*
X137723524Y-109529476D01*
X137628286Y-109577095D01*
X137437810Y-109624714D01*
X137294952Y-109624714D01*
X137104476Y-109577095D01*
X137009238Y-109529476D01*
X136914000Y-109434238D01*
X136866381Y-109291380D01*
X136866381Y-109196142D01*
X136914000Y-109053285D01*
X136961619Y-109005666D01*
X137866381Y-108053285D02*
X137866381Y-108624714D01*
X137866381Y-108339000D02*
X136866381Y-108339000D01*
X137009238Y-108434238D01*
X137104476Y-108529476D01*
X137152095Y-108624714D01*
X163853905Y-103830381D02*
X163853905Y-102830381D01*
X164092000Y-102830381D01*
X164234858Y-102878000D01*
X164330096Y-102973238D01*
X164377715Y-103068476D01*
X164425334Y-103258952D01*
X164425334Y-103401810D01*
X164377715Y-103592286D01*
X164330096Y-103687524D01*
X164234858Y-103782762D01*
X164092000Y-103830381D01*
X163853905Y-103830381D01*
X165377715Y-103830381D02*
X164806286Y-103830381D01*
X165092000Y-103830381D02*
X165092000Y-102830381D01*
X164996762Y-102973238D01*
X164901524Y-103068476D01*
X164806286Y-103116095D01*
X159981381Y-127722190D02*
X158981381Y-127722190D01*
X159886143Y-126674571D02*
X159933762Y-126722190D01*
X159981381Y-126865047D01*
X159981381Y-126960285D01*
X159933762Y-127103143D01*
X159838524Y-127198381D01*
X159743286Y-127246000D01*
X159552810Y-127293619D01*
X159409952Y-127293619D01*
X159219476Y-127246000D01*
X159124238Y-127198381D01*
X159029000Y-127103143D01*
X158981381Y-126960285D01*
X158981381Y-126865047D01*
X159029000Y-126722190D01*
X159076619Y-126674571D01*
X159981381Y-125722190D02*
X159981381Y-126293619D01*
X159981381Y-126007905D02*
X158981381Y-126007905D01*
X159124238Y-126103143D01*
X159219476Y-126198381D01*
X159267095Y-126293619D01*
X167171810Y-79937381D02*
X167171810Y-78937381D01*
X168219429Y-79842143D02*
X168171810Y-79889762D01*
X168028953Y-79937381D01*
X167933715Y-79937381D01*
X167790857Y-79889762D01*
X167695619Y-79794524D01*
X167648000Y-79699286D01*
X167600381Y-79508810D01*
X167600381Y-79365952D01*
X167648000Y-79175476D01*
X167695619Y-79080238D01*
X167790857Y-78985000D01*
X167933715Y-78937381D01*
X168028953Y-78937381D01*
X168171810Y-78985000D01*
X168219429Y-79032619D01*
X168600381Y-79032619D02*
X168648000Y-78985000D01*
X168743238Y-78937381D01*
X168981334Y-78937381D01*
X169076572Y-78985000D01*
X169124191Y-79032619D01*
X169171810Y-79127857D01*
X169171810Y-79223095D01*
X169124191Y-79365952D01*
X168552762Y-79937381D01*
X169171810Y-79937381D01*
X145977381Y-71842190D02*
X144977381Y-71842190D01*
X145882143Y-70794571D02*
X145929762Y-70842190D01*
X145977381Y-70985047D01*
X145977381Y-71080285D01*
X145929762Y-71223143D01*
X145834524Y-71318381D01*
X145739286Y-71366000D01*
X145548810Y-71413619D01*
X145405952Y-71413619D01*
X145215476Y-71366000D01*
X145120238Y-71318381D01*
X145025000Y-71223143D01*
X144977381Y-71080285D01*
X144977381Y-70985047D01*
X145025000Y-70842190D01*
X145072619Y-70794571D01*
X144977381Y-70461238D02*
X144977381Y-69842190D01*
X145358333Y-70175524D01*
X145358333Y-70032666D01*
X145405952Y-69937428D01*
X145453571Y-69889809D01*
X145548810Y-69842190D01*
X145786905Y-69842190D01*
X145882143Y-69889809D01*
X145929762Y-69937428D01*
X145977381Y-70032666D01*
X145977381Y-70318381D01*
X145929762Y-70413619D01*
X145882143Y-70461238D01*
X138215810Y-93687381D02*
X138215810Y-92687381D01*
X139263429Y-93592143D02*
X139215810Y-93639762D01*
X139072953Y-93687381D01*
X138977715Y-93687381D01*
X138834857Y-93639762D01*
X138739619Y-93544524D01*
X138692000Y-93449286D01*
X138644381Y-93258810D01*
X138644381Y-93115952D01*
X138692000Y-92925476D01*
X138739619Y-92830238D01*
X138834857Y-92735000D01*
X138977715Y-92687381D01*
X139072953Y-92687381D01*
X139215810Y-92735000D01*
X139263429Y-92782619D01*
X140120572Y-93020714D02*
X140120572Y-93687381D01*
X139882476Y-92639762D02*
X139644381Y-93354048D01*
X140263429Y-93354048D01*
X130504762Y-137247619D02*
X130409524Y-137200000D01*
X130314286Y-137104762D01*
X130171429Y-136961905D01*
X130076190Y-136914286D01*
X129980952Y-136914286D01*
X130028571Y-137152381D02*
X129933333Y-137104762D01*
X129838095Y-137009524D01*
X129790476Y-136819048D01*
X129790476Y-136485714D01*
X129838095Y-136295238D01*
X129933333Y-136200000D01*
X130028571Y-136152381D01*
X130219048Y-136152381D01*
X130314286Y-136200000D01*
X130409524Y-136295238D01*
X130457143Y-136485714D01*
X130457143Y-136819048D01*
X130409524Y-137009524D01*
X130314286Y-137104762D01*
X130219048Y-137152381D01*
X130028571Y-137152381D01*
X131409524Y-137152381D02*
X130838095Y-137152381D01*
X131123809Y-137152381D02*
X131123809Y-136152381D01*
X131028571Y-136295238D01*
X130933333Y-136390476D01*
X130838095Y-136438095D01*
X137604762Y-137347619D02*
X137509524Y-137300000D01*
X137414286Y-137204762D01*
X137271429Y-137061905D01*
X137176190Y-137014286D01*
X137080952Y-137014286D01*
X137128571Y-137252381D02*
X137033333Y-137204762D01*
X136938095Y-137109524D01*
X136890476Y-136919048D01*
X136890476Y-136585714D01*
X136938095Y-136395238D01*
X137033333Y-136300000D01*
X137128571Y-136252381D01*
X137319048Y-136252381D01*
X137414286Y-136300000D01*
X137509524Y-136395238D01*
X137557143Y-136585714D01*
X137557143Y-136919048D01*
X137509524Y-137109524D01*
X137414286Y-137204762D01*
X137319048Y-137252381D01*
X137128571Y-137252381D01*
X137938095Y-136347619D02*
X137985714Y-136300000D01*
X138080952Y-136252381D01*
X138319048Y-136252381D01*
X138414286Y-136300000D01*
X138461905Y-136347619D01*
X138509524Y-136442857D01*
X138509524Y-136538095D01*
X138461905Y-136680952D01*
X137890476Y-137252381D01*
X138509524Y-137252381D01*
X144604762Y-137547619D02*
X144509524Y-137500000D01*
X144414286Y-137404762D01*
X144271429Y-137261905D01*
X144176190Y-137214286D01*
X144080952Y-137214286D01*
X144128571Y-137452381D02*
X144033333Y-137404762D01*
X143938095Y-137309524D01*
X143890476Y-137119048D01*
X143890476Y-136785714D01*
X143938095Y-136595238D01*
X144033333Y-136500000D01*
X144128571Y-136452381D01*
X144319048Y-136452381D01*
X144414286Y-136500000D01*
X144509524Y-136595238D01*
X144557143Y-136785714D01*
X144557143Y-137119048D01*
X144509524Y-137309524D01*
X144414286Y-137404762D01*
X144319048Y-137452381D01*
X144128571Y-137452381D01*
X144890476Y-136452381D02*
X145509524Y-136452381D01*
X145176190Y-136833333D01*
X145319048Y-136833333D01*
X145414286Y-136880952D01*
X145461905Y-136928571D01*
X145509524Y-137023810D01*
X145509524Y-137261905D01*
X145461905Y-137357143D01*
X145414286Y-137404762D01*
X145319048Y-137452381D01*
X145033333Y-137452381D01*
X144938095Y-137404762D01*
X144890476Y-137357143D01*
X151204762Y-137647619D02*
X151109524Y-137600000D01*
X151014286Y-137504762D01*
X150871429Y-137361905D01*
X150776190Y-137314286D01*
X150680952Y-137314286D01*
X150728571Y-137552381D02*
X150633333Y-137504762D01*
X150538095Y-137409524D01*
X150490476Y-137219048D01*
X150490476Y-136885714D01*
X150538095Y-136695238D01*
X150633333Y-136600000D01*
X150728571Y-136552381D01*
X150919048Y-136552381D01*
X151014286Y-136600000D01*
X151109524Y-136695238D01*
X151157143Y-136885714D01*
X151157143Y-137219048D01*
X151109524Y-137409524D01*
X151014286Y-137504762D01*
X150919048Y-137552381D01*
X150728571Y-137552381D01*
X152014286Y-136885714D02*
X152014286Y-137552381D01*
X151776190Y-136504762D02*
X151538095Y-137219048D01*
X152157143Y-137219048D01*
X158204762Y-137447619D02*
X158109524Y-137400000D01*
X158014286Y-137304762D01*
X157871429Y-137161905D01*
X157776190Y-137114286D01*
X157680952Y-137114286D01*
X157728571Y-137352381D02*
X157633333Y-137304762D01*
X157538095Y-137209524D01*
X157490476Y-137019048D01*
X157490476Y-136685714D01*
X157538095Y-136495238D01*
X157633333Y-136400000D01*
X157728571Y-136352381D01*
X157919048Y-136352381D01*
X158014286Y-136400000D01*
X158109524Y-136495238D01*
X158157143Y-136685714D01*
X158157143Y-137019048D01*
X158109524Y-137209524D01*
X158014286Y-137304762D01*
X157919048Y-137352381D01*
X157728571Y-137352381D01*
X159061905Y-136352381D02*
X158585714Y-136352381D01*
X158538095Y-136828571D01*
X158585714Y-136780952D01*
X158680952Y-136733333D01*
X158919048Y-136733333D01*
X159014286Y-136780952D01*
X159061905Y-136828571D01*
X159109524Y-136923810D01*
X159109524Y-137161905D01*
X159061905Y-137257143D01*
X159014286Y-137304762D01*
X158919048Y-137352381D01*
X158680952Y-137352381D01*
X158585714Y-137304762D01*
X158538095Y-137257143D01*
X165304762Y-137447619D02*
X165209524Y-137400000D01*
X165114286Y-137304762D01*
X164971429Y-137161905D01*
X164876190Y-137114286D01*
X164780952Y-137114286D01*
X164828571Y-137352381D02*
X164733333Y-137304762D01*
X164638095Y-137209524D01*
X164590476Y-137019048D01*
X164590476Y-136685714D01*
X164638095Y-136495238D01*
X164733333Y-136400000D01*
X164828571Y-136352381D01*
X165019048Y-136352381D01*
X165114286Y-136400000D01*
X165209524Y-136495238D01*
X165257143Y-136685714D01*
X165257143Y-137019048D01*
X165209524Y-137209524D01*
X165114286Y-137304762D01*
X165019048Y-137352381D01*
X164828571Y-137352381D01*
X166114286Y-136352381D02*
X165923809Y-136352381D01*
X165828571Y-136400000D01*
X165780952Y-136447619D01*
X165685714Y-136590476D01*
X165638095Y-136780952D01*
X165638095Y-137161905D01*
X165685714Y-137257143D01*
X165733333Y-137304762D01*
X165828571Y-137352381D01*
X166019048Y-137352381D01*
X166114286Y-137304762D01*
X166161905Y-137257143D01*
X166209524Y-137161905D01*
X166209524Y-136923810D01*
X166161905Y-136828571D01*
X166114286Y-136780952D01*
X166019048Y-136733333D01*
X165828571Y-136733333D01*
X165733333Y-136780952D01*
X165685714Y-136828571D01*
X165638095Y-136923810D01*
X172004762Y-137347619D02*
X171909524Y-137300000D01*
X171814286Y-137204762D01*
X171671429Y-137061905D01*
X171576190Y-137014286D01*
X171480952Y-137014286D01*
X171528571Y-137252381D02*
X171433333Y-137204762D01*
X171338095Y-137109524D01*
X171290476Y-136919048D01*
X171290476Y-136585714D01*
X171338095Y-136395238D01*
X171433333Y-136300000D01*
X171528571Y-136252381D01*
X171719048Y-136252381D01*
X171814286Y-136300000D01*
X171909524Y-136395238D01*
X171957143Y-136585714D01*
X171957143Y-136919048D01*
X171909524Y-137109524D01*
X171814286Y-137204762D01*
X171719048Y-137252381D01*
X171528571Y-137252381D01*
X172290476Y-136252381D02*
X172957143Y-136252381D01*
X172528571Y-137252381D01*
X178704762Y-137347619D02*
X178609524Y-137300000D01*
X178514286Y-137204762D01*
X178371429Y-137061905D01*
X178276190Y-137014286D01*
X178180952Y-137014286D01*
X178228571Y-137252381D02*
X178133333Y-137204762D01*
X178038095Y-137109524D01*
X177990476Y-136919048D01*
X177990476Y-136585714D01*
X178038095Y-136395238D01*
X178133333Y-136300000D01*
X178228571Y-136252381D01*
X178419048Y-136252381D01*
X178514286Y-136300000D01*
X178609524Y-136395238D01*
X178657143Y-136585714D01*
X178657143Y-136919048D01*
X178609524Y-137109524D01*
X178514286Y-137204762D01*
X178419048Y-137252381D01*
X178228571Y-137252381D01*
X179228571Y-136680952D02*
X179133333Y-136633333D01*
X179085714Y-136585714D01*
X179038095Y-136490476D01*
X179038095Y-136442857D01*
X179085714Y-136347619D01*
X179133333Y-136300000D01*
X179228571Y-136252381D01*
X179419048Y-136252381D01*
X179514286Y-136300000D01*
X179561905Y-136347619D01*
X179609524Y-136442857D01*
X179609524Y-136490476D01*
X179561905Y-136585714D01*
X179514286Y-136633333D01*
X179419048Y-136680952D01*
X179228571Y-136680952D01*
X179133333Y-136728571D01*
X179085714Y-136776190D01*
X179038095Y-136871429D01*
X179038095Y-137061905D01*
X179085714Y-137157143D01*
X179133333Y-137204762D01*
X179228571Y-137252381D01*
X179419048Y-137252381D01*
X179514286Y-137204762D01*
X179561905Y-137157143D01*
X179609524Y-137061905D01*
X179609524Y-136871429D01*
X179561905Y-136776190D01*
X179514286Y-136728571D01*
X179419048Y-136680952D01*
X178247619Y-107895238D02*
X178200000Y-107990476D01*
X178104762Y-108085714D01*
X177961905Y-108228571D01*
X177914286Y-108323810D01*
X177914286Y-108419048D01*
X178152381Y-108371429D02*
X178104762Y-108466667D01*
X178009524Y-108561905D01*
X177819048Y-108609524D01*
X177485714Y-108609524D01*
X177295238Y-108561905D01*
X177200000Y-108466667D01*
X177152381Y-108371429D01*
X177152381Y-108180952D01*
X177200000Y-108085714D01*
X177295238Y-107990476D01*
X177485714Y-107942857D01*
X177819048Y-107942857D01*
X178009524Y-107990476D01*
X178104762Y-108085714D01*
X178152381Y-108180952D01*
X178152381Y-108371429D01*
X178152381Y-107466667D02*
X178152381Y-107276191D01*
X178104762Y-107180952D01*
X178057143Y-107133333D01*
X177914286Y-107038095D01*
X177723810Y-106990476D01*
X177342857Y-106990476D01*
X177247619Y-107038095D01*
X177200000Y-107085714D01*
X177152381Y-107180952D01*
X177152381Y-107371429D01*
X177200000Y-107466667D01*
X177247619Y-107514286D01*
X177342857Y-107561905D01*
X177580952Y-107561905D01*
X177676190Y-107514286D01*
X177723810Y-107466667D01*
X177771429Y-107371429D01*
X177771429Y-107180952D01*
X177723810Y-107085714D01*
X177676190Y-107038095D01*
X177580952Y-106990476D01*
X178047619Y-101471428D02*
X178000000Y-101566666D01*
X177904762Y-101661904D01*
X177761905Y-101804761D01*
X177714286Y-101900000D01*
X177714286Y-101995238D01*
X177952381Y-101947619D02*
X177904762Y-102042857D01*
X177809524Y-102138095D01*
X177619048Y-102185714D01*
X177285714Y-102185714D01*
X177095238Y-102138095D01*
X177000000Y-102042857D01*
X176952381Y-101947619D01*
X176952381Y-101757142D01*
X177000000Y-101661904D01*
X177095238Y-101566666D01*
X177285714Y-101519047D01*
X177619048Y-101519047D01*
X177809524Y-101566666D01*
X177904762Y-101661904D01*
X177952381Y-101757142D01*
X177952381Y-101947619D01*
X177952381Y-100566666D02*
X177952381Y-101138095D01*
X177952381Y-100852381D02*
X176952381Y-100852381D01*
X177095238Y-100947619D01*
X177190476Y-101042857D01*
X177238095Y-101138095D01*
X176952381Y-99947619D02*
X176952381Y-99852380D01*
X177000000Y-99757142D01*
X177047619Y-99709523D01*
X177142857Y-99661904D01*
X177333333Y-99614285D01*
X177571429Y-99614285D01*
X177761905Y-99661904D01*
X177857143Y-99709523D01*
X177904762Y-99757142D01*
X177952381Y-99852380D01*
X177952381Y-99947619D01*
X177904762Y-100042857D01*
X177857143Y-100090476D01*
X177761905Y-100138095D01*
X177571429Y-100185714D01*
X177333333Y-100185714D01*
X177142857Y-100138095D01*
X177047619Y-100090476D01*
X177000000Y-100042857D01*
X176952381Y-99947619D01*
X178147619Y-94371428D02*
X178100000Y-94466666D01*
X178004762Y-94561904D01*
X177861905Y-94704761D01*
X177814286Y-94800000D01*
X177814286Y-94895238D01*
X178052381Y-94847619D02*
X178004762Y-94942857D01*
X177909524Y-95038095D01*
X177719048Y-95085714D01*
X177385714Y-95085714D01*
X177195238Y-95038095D01*
X177100000Y-94942857D01*
X177052381Y-94847619D01*
X177052381Y-94657142D01*
X177100000Y-94561904D01*
X177195238Y-94466666D01*
X177385714Y-94419047D01*
X177719048Y-94419047D01*
X177909524Y-94466666D01*
X178004762Y-94561904D01*
X178052381Y-94657142D01*
X178052381Y-94847619D01*
X178052381Y-93466666D02*
X178052381Y-94038095D01*
X178052381Y-93752381D02*
X177052381Y-93752381D01*
X177195238Y-93847619D01*
X177290476Y-93942857D01*
X177338095Y-94038095D01*
X178052381Y-92514285D02*
X178052381Y-93085714D01*
X178052381Y-92800000D02*
X177052381Y-92800000D01*
X177195238Y-92895238D01*
X177290476Y-92990476D01*
X177338095Y-93085714D01*
X178347619Y-87271428D02*
X178300000Y-87366666D01*
X178204762Y-87461904D01*
X178061905Y-87604761D01*
X178014286Y-87700000D01*
X178014286Y-87795238D01*
X178252381Y-87747619D02*
X178204762Y-87842857D01*
X178109524Y-87938095D01*
X177919048Y-87985714D01*
X177585714Y-87985714D01*
X177395238Y-87938095D01*
X177300000Y-87842857D01*
X177252381Y-87747619D01*
X177252381Y-87557142D01*
X177300000Y-87461904D01*
X177395238Y-87366666D01*
X177585714Y-87319047D01*
X177919048Y-87319047D01*
X178109524Y-87366666D01*
X178204762Y-87461904D01*
X178252381Y-87557142D01*
X178252381Y-87747619D01*
X178252381Y-86366666D02*
X178252381Y-86938095D01*
X178252381Y-86652381D02*
X177252381Y-86652381D01*
X177395238Y-86747619D01*
X177490476Y-86842857D01*
X177538095Y-86938095D01*
X177347619Y-85985714D02*
X177300000Y-85938095D01*
X177252381Y-85842857D01*
X177252381Y-85604761D01*
X177300000Y-85509523D01*
X177347619Y-85461904D01*
X177442857Y-85414285D01*
X177538095Y-85414285D01*
X177680952Y-85461904D01*
X178252381Y-86033333D01*
X178252381Y-85414285D01*
X178347619Y-80171428D02*
X178300000Y-80266666D01*
X178204762Y-80361904D01*
X178061905Y-80504761D01*
X178014286Y-80600000D01*
X178014286Y-80695238D01*
X178252381Y-80647619D02*
X178204762Y-80742857D01*
X178109524Y-80838095D01*
X177919048Y-80885714D01*
X177585714Y-80885714D01*
X177395238Y-80838095D01*
X177300000Y-80742857D01*
X177252381Y-80647619D01*
X177252381Y-80457142D01*
X177300000Y-80361904D01*
X177395238Y-80266666D01*
X177585714Y-80219047D01*
X177919048Y-80219047D01*
X178109524Y-80266666D01*
X178204762Y-80361904D01*
X178252381Y-80457142D01*
X178252381Y-80647619D01*
X178252381Y-79266666D02*
X178252381Y-79838095D01*
X178252381Y-79552381D02*
X177252381Y-79552381D01*
X177395238Y-79647619D01*
X177490476Y-79742857D01*
X177538095Y-79838095D01*
X177252381Y-78933333D02*
X177252381Y-78314285D01*
X177633333Y-78647619D01*
X177633333Y-78504761D01*
X177680952Y-78409523D01*
X177728571Y-78361904D01*
X177823810Y-78314285D01*
X178061905Y-78314285D01*
X178157143Y-78361904D01*
X178204762Y-78409523D01*
X178252381Y-78504761D01*
X178252381Y-78790476D01*
X178204762Y-78885714D01*
X178157143Y-78933333D01*
X178347619Y-73171428D02*
X178300000Y-73266666D01*
X178204762Y-73361904D01*
X178061905Y-73504761D01*
X178014286Y-73600000D01*
X178014286Y-73695238D01*
X178252381Y-73647619D02*
X178204762Y-73742857D01*
X178109524Y-73838095D01*
X177919048Y-73885714D01*
X177585714Y-73885714D01*
X177395238Y-73838095D01*
X177300000Y-73742857D01*
X177252381Y-73647619D01*
X177252381Y-73457142D01*
X177300000Y-73361904D01*
X177395238Y-73266666D01*
X177585714Y-73219047D01*
X177919048Y-73219047D01*
X178109524Y-73266666D01*
X178204762Y-73361904D01*
X178252381Y-73457142D01*
X178252381Y-73647619D01*
X178252381Y-72266666D02*
X178252381Y-72838095D01*
X178252381Y-72552381D02*
X177252381Y-72552381D01*
X177395238Y-72647619D01*
X177490476Y-72742857D01*
X177538095Y-72838095D01*
X177585714Y-71409523D02*
X178252381Y-71409523D01*
X177204762Y-71647619D02*
X177919048Y-71885714D01*
X177919048Y-71266666D01*
X178347619Y-66371428D02*
X178300000Y-66466666D01*
X178204762Y-66561904D01*
X178061905Y-66704761D01*
X178014286Y-66800000D01*
X178014286Y-66895238D01*
X178252381Y-66847619D02*
X178204762Y-66942857D01*
X178109524Y-67038095D01*
X177919048Y-67085714D01*
X177585714Y-67085714D01*
X177395238Y-67038095D01*
X177300000Y-66942857D01*
X177252381Y-66847619D01*
X177252381Y-66657142D01*
X177300000Y-66561904D01*
X177395238Y-66466666D01*
X177585714Y-66419047D01*
X177919048Y-66419047D01*
X178109524Y-66466666D01*
X178204762Y-66561904D01*
X178252381Y-66657142D01*
X178252381Y-66847619D01*
X178252381Y-65466666D02*
X178252381Y-66038095D01*
X178252381Y-65752381D02*
X177252381Y-65752381D01*
X177395238Y-65847619D01*
X177490476Y-65942857D01*
X177538095Y-66038095D01*
X177252381Y-64561904D02*
X177252381Y-65038095D01*
X177728571Y-65085714D01*
X177680952Y-65038095D01*
X177633333Y-64942857D01*
X177633333Y-64704761D01*
X177680952Y-64609523D01*
X177728571Y-64561904D01*
X177823810Y-64514285D01*
X178061905Y-64514285D01*
X178157143Y-64561904D01*
X178204762Y-64609523D01*
X178252381Y-64704761D01*
X178252381Y-64942857D01*
X178204762Y-65038095D01*
X178157143Y-65085714D01*
X178347619Y-60571428D02*
X178300000Y-60666666D01*
X178204762Y-60761904D01*
X178061905Y-60904761D01*
X178014286Y-61000000D01*
X178014286Y-61095238D01*
X178252381Y-61047619D02*
X178204762Y-61142857D01*
X178109524Y-61238095D01*
X177919048Y-61285714D01*
X177585714Y-61285714D01*
X177395238Y-61238095D01*
X177300000Y-61142857D01*
X177252381Y-61047619D01*
X177252381Y-60857142D01*
X177300000Y-60761904D01*
X177395238Y-60666666D01*
X177585714Y-60619047D01*
X177919048Y-60619047D01*
X178109524Y-60666666D01*
X178204762Y-60761904D01*
X178252381Y-60857142D01*
X178252381Y-61047619D01*
X178252381Y-59666666D02*
X178252381Y-60238095D01*
X178252381Y-59952381D02*
X177252381Y-59952381D01*
X177395238Y-60047619D01*
X177490476Y-60142857D01*
X177538095Y-60238095D01*
X177252381Y-58809523D02*
X177252381Y-59000000D01*
X177300000Y-59095238D01*
X177347619Y-59142857D01*
X177490476Y-59238095D01*
X177680952Y-59285714D01*
X178061905Y-59285714D01*
X178157143Y-59238095D01*
X178204762Y-59190476D01*
X178252381Y-59095238D01*
X178252381Y-58904761D01*
X178204762Y-58809523D01*
X178157143Y-58761904D01*
X178061905Y-58714285D01*
X177823810Y-58714285D01*
X177728571Y-58761904D01*
X177680952Y-58809523D01*
X177633333Y-58904761D01*
X177633333Y-59095238D01*
X177680952Y-59190476D01*
X177728571Y-59238095D01*
X177823810Y-59285714D01*
X173428572Y-64347619D02*
X173333334Y-64300000D01*
X173238096Y-64204762D01*
X173095239Y-64061905D01*
X173000000Y-64014286D01*
X172904762Y-64014286D01*
X172952381Y-64252381D02*
X172857143Y-64204762D01*
X172761905Y-64109524D01*
X172714286Y-63919048D01*
X172714286Y-63585714D01*
X172761905Y-63395238D01*
X172857143Y-63300000D01*
X172952381Y-63252381D01*
X173142858Y-63252381D01*
X173238096Y-63300000D01*
X173333334Y-63395238D01*
X173380953Y-63585714D01*
X173380953Y-63919048D01*
X173333334Y-64109524D01*
X173238096Y-64204762D01*
X173142858Y-64252381D01*
X172952381Y-64252381D01*
X174333334Y-64252381D02*
X173761905Y-64252381D01*
X174047619Y-64252381D02*
X174047619Y-63252381D01*
X173952381Y-63395238D01*
X173857143Y-63490476D01*
X173761905Y-63538095D01*
X174666667Y-63252381D02*
X175333334Y-63252381D01*
X174904762Y-64252381D01*
X168228572Y-62447619D02*
X168133334Y-62400000D01*
X168038096Y-62304762D01*
X167895239Y-62161905D01*
X167800000Y-62114286D01*
X167704762Y-62114286D01*
X167752381Y-62352381D02*
X167657143Y-62304762D01*
X167561905Y-62209524D01*
X167514286Y-62019048D01*
X167514286Y-61685714D01*
X167561905Y-61495238D01*
X167657143Y-61400000D01*
X167752381Y-61352381D01*
X167942858Y-61352381D01*
X168038096Y-61400000D01*
X168133334Y-61495238D01*
X168180953Y-61685714D01*
X168180953Y-62019048D01*
X168133334Y-62209524D01*
X168038096Y-62304762D01*
X167942858Y-62352381D01*
X167752381Y-62352381D01*
X169133334Y-62352381D02*
X168561905Y-62352381D01*
X168847619Y-62352381D02*
X168847619Y-61352381D01*
X168752381Y-61495238D01*
X168657143Y-61590476D01*
X168561905Y-61638095D01*
X169704762Y-61780952D02*
X169609524Y-61733333D01*
X169561905Y-61685714D01*
X169514286Y-61590476D01*
X169514286Y-61542857D01*
X169561905Y-61447619D01*
X169609524Y-61400000D01*
X169704762Y-61352381D01*
X169895239Y-61352381D01*
X169990477Y-61400000D01*
X170038096Y-61447619D01*
X170085715Y-61542857D01*
X170085715Y-61590476D01*
X170038096Y-61685714D01*
X169990477Y-61733333D01*
X169895239Y-61780952D01*
X169704762Y-61780952D01*
X169609524Y-61828571D01*
X169561905Y-61876190D01*
X169514286Y-61971429D01*
X169514286Y-62161905D01*
X169561905Y-62257143D01*
X169609524Y-62304762D01*
X169704762Y-62352381D01*
X169895239Y-62352381D01*
X169990477Y-62304762D01*
X170038096Y-62257143D01*
X170085715Y-62161905D01*
X170085715Y-61971429D01*
X170038096Y-61876190D01*
X169990477Y-61828571D01*
X169895239Y-61780952D01*
X162428572Y-61547619D02*
X162333334Y-61500000D01*
X162238096Y-61404762D01*
X162095239Y-61261905D01*
X162000000Y-61214286D01*
X161904762Y-61214286D01*
X161952381Y-61452381D02*
X161857143Y-61404762D01*
X161761905Y-61309524D01*
X161714286Y-61119048D01*
X161714286Y-60785714D01*
X161761905Y-60595238D01*
X161857143Y-60500000D01*
X161952381Y-60452381D01*
X162142858Y-60452381D01*
X162238096Y-60500000D01*
X162333334Y-60595238D01*
X162380953Y-60785714D01*
X162380953Y-61119048D01*
X162333334Y-61309524D01*
X162238096Y-61404762D01*
X162142858Y-61452381D01*
X161952381Y-61452381D01*
X163333334Y-61452381D02*
X162761905Y-61452381D01*
X163047619Y-61452381D02*
X163047619Y-60452381D01*
X162952381Y-60595238D01*
X162857143Y-60690476D01*
X162761905Y-60738095D01*
X163809524Y-61452381D02*
X164000000Y-61452381D01*
X164095239Y-61404762D01*
X164142858Y-61357143D01*
X164238096Y-61214286D01*
X164285715Y-61023810D01*
X164285715Y-60642857D01*
X164238096Y-60547619D01*
X164190477Y-60500000D01*
X164095239Y-60452381D01*
X163904762Y-60452381D01*
X163809524Y-60500000D01*
X163761905Y-60547619D01*
X163714286Y-60642857D01*
X163714286Y-60880952D01*
X163761905Y-60976190D01*
X163809524Y-61023810D01*
X163904762Y-61071429D01*
X164095239Y-61071429D01*
X164190477Y-61023810D01*
X164238096Y-60976190D01*
X164285715Y-60880952D01*
X155228572Y-61747619D02*
X155133334Y-61700000D01*
X155038096Y-61604762D01*
X154895239Y-61461905D01*
X154800000Y-61414286D01*
X154704762Y-61414286D01*
X154752381Y-61652381D02*
X154657143Y-61604762D01*
X154561905Y-61509524D01*
X154514286Y-61319048D01*
X154514286Y-60985714D01*
X154561905Y-60795238D01*
X154657143Y-60700000D01*
X154752381Y-60652381D01*
X154942858Y-60652381D01*
X155038096Y-60700000D01*
X155133334Y-60795238D01*
X155180953Y-60985714D01*
X155180953Y-61319048D01*
X155133334Y-61509524D01*
X155038096Y-61604762D01*
X154942858Y-61652381D01*
X154752381Y-61652381D01*
X155561905Y-60747619D02*
X155609524Y-60700000D01*
X155704762Y-60652381D01*
X155942858Y-60652381D01*
X156038096Y-60700000D01*
X156085715Y-60747619D01*
X156133334Y-60842857D01*
X156133334Y-60938095D01*
X156085715Y-61080952D01*
X155514286Y-61652381D01*
X156133334Y-61652381D01*
X156752381Y-60652381D02*
X156847620Y-60652381D01*
X156942858Y-60700000D01*
X156990477Y-60747619D01*
X157038096Y-60842857D01*
X157085715Y-61033333D01*
X157085715Y-61271429D01*
X157038096Y-61461905D01*
X156990477Y-61557143D01*
X156942858Y-61604762D01*
X156847620Y-61652381D01*
X156752381Y-61652381D01*
X156657143Y-61604762D01*
X156609524Y-61557143D01*
X156561905Y-61461905D01*
X156514286Y-61271429D01*
X156514286Y-61033333D01*
X156561905Y-60842857D01*
X156609524Y-60747619D01*
X156657143Y-60700000D01*
X156752381Y-60652381D01*
X147928572Y-61547619D02*
X147833334Y-61500000D01*
X147738096Y-61404762D01*
X147595239Y-61261905D01*
X147500000Y-61214286D01*
X147404762Y-61214286D01*
X147452381Y-61452381D02*
X147357143Y-61404762D01*
X147261905Y-61309524D01*
X147214286Y-61119048D01*
X147214286Y-60785714D01*
X147261905Y-60595238D01*
X147357143Y-60500000D01*
X147452381Y-60452381D01*
X147642858Y-60452381D01*
X147738096Y-60500000D01*
X147833334Y-60595238D01*
X147880953Y-60785714D01*
X147880953Y-61119048D01*
X147833334Y-61309524D01*
X147738096Y-61404762D01*
X147642858Y-61452381D01*
X147452381Y-61452381D01*
X148261905Y-60547619D02*
X148309524Y-60500000D01*
X148404762Y-60452381D01*
X148642858Y-60452381D01*
X148738096Y-60500000D01*
X148785715Y-60547619D01*
X148833334Y-60642857D01*
X148833334Y-60738095D01*
X148785715Y-60880952D01*
X148214286Y-61452381D01*
X148833334Y-61452381D01*
X149785715Y-61452381D02*
X149214286Y-61452381D01*
X149500000Y-61452381D02*
X149500000Y-60452381D01*
X149404762Y-60595238D01*
X149309524Y-60690476D01*
X149214286Y-60738095D01*
X141528572Y-61547619D02*
X141433334Y-61500000D01*
X141338096Y-61404762D01*
X141195239Y-61261905D01*
X141100000Y-61214286D01*
X141004762Y-61214286D01*
X141052381Y-61452381D02*
X140957143Y-61404762D01*
X140861905Y-61309524D01*
X140814286Y-61119048D01*
X140814286Y-60785714D01*
X140861905Y-60595238D01*
X140957143Y-60500000D01*
X141052381Y-60452381D01*
X141242858Y-60452381D01*
X141338096Y-60500000D01*
X141433334Y-60595238D01*
X141480953Y-60785714D01*
X141480953Y-61119048D01*
X141433334Y-61309524D01*
X141338096Y-61404762D01*
X141242858Y-61452381D01*
X141052381Y-61452381D01*
X141861905Y-60547619D02*
X141909524Y-60500000D01*
X142004762Y-60452381D01*
X142242858Y-60452381D01*
X142338096Y-60500000D01*
X142385715Y-60547619D01*
X142433334Y-60642857D01*
X142433334Y-60738095D01*
X142385715Y-60880952D01*
X141814286Y-61452381D01*
X142433334Y-61452381D01*
X142814286Y-60547619D02*
X142861905Y-60500000D01*
X142957143Y-60452381D01*
X143195239Y-60452381D01*
X143290477Y-60500000D01*
X143338096Y-60547619D01*
X143385715Y-60642857D01*
X143385715Y-60738095D01*
X143338096Y-60880952D01*
X142766667Y-61452381D01*
X143385715Y-61452381D01*
X135528572Y-63047619D02*
X135433334Y-63000000D01*
X135338096Y-62904762D01*
X135195239Y-62761905D01*
X135100000Y-62714286D01*
X135004762Y-62714286D01*
X135052381Y-62952381D02*
X134957143Y-62904762D01*
X134861905Y-62809524D01*
X134814286Y-62619048D01*
X134814286Y-62285714D01*
X134861905Y-62095238D01*
X134957143Y-62000000D01*
X135052381Y-61952381D01*
X135242858Y-61952381D01*
X135338096Y-62000000D01*
X135433334Y-62095238D01*
X135480953Y-62285714D01*
X135480953Y-62619048D01*
X135433334Y-62809524D01*
X135338096Y-62904762D01*
X135242858Y-62952381D01*
X135052381Y-62952381D01*
X135861905Y-62047619D02*
X135909524Y-62000000D01*
X136004762Y-61952381D01*
X136242858Y-61952381D01*
X136338096Y-62000000D01*
X136385715Y-62047619D01*
X136433334Y-62142857D01*
X136433334Y-62238095D01*
X136385715Y-62380952D01*
X135814286Y-62952381D01*
X136433334Y-62952381D01*
X136766667Y-61952381D02*
X137385715Y-61952381D01*
X137052381Y-62333333D01*
X137195239Y-62333333D01*
X137290477Y-62380952D01*
X137338096Y-62428571D01*
X137385715Y-62523810D01*
X137385715Y-62761905D01*
X137338096Y-62857143D01*
X137290477Y-62904762D01*
X137195239Y-62952381D01*
X136909524Y-62952381D01*
X136814286Y-62904762D01*
X136766667Y-62857143D01*
X129728572Y-61647619D02*
X129633334Y-61600000D01*
X129538096Y-61504762D01*
X129395239Y-61361905D01*
X129300000Y-61314286D01*
X129204762Y-61314286D01*
X129252381Y-61552381D02*
X129157143Y-61504762D01*
X129061905Y-61409524D01*
X129014286Y-61219048D01*
X129014286Y-60885714D01*
X129061905Y-60695238D01*
X129157143Y-60600000D01*
X129252381Y-60552381D01*
X129442858Y-60552381D01*
X129538096Y-60600000D01*
X129633334Y-60695238D01*
X129680953Y-60885714D01*
X129680953Y-61219048D01*
X129633334Y-61409524D01*
X129538096Y-61504762D01*
X129442858Y-61552381D01*
X129252381Y-61552381D01*
X130061905Y-60647619D02*
X130109524Y-60600000D01*
X130204762Y-60552381D01*
X130442858Y-60552381D01*
X130538096Y-60600000D01*
X130585715Y-60647619D01*
X130633334Y-60742857D01*
X130633334Y-60838095D01*
X130585715Y-60980952D01*
X130014286Y-61552381D01*
X130633334Y-61552381D01*
X131490477Y-60885714D02*
X131490477Y-61552381D01*
X131252381Y-60504762D02*
X131014286Y-61219048D01*
X131633334Y-61219048D01*
X130247619Y-63971428D02*
X130200000Y-64066666D01*
X130104762Y-64161904D01*
X129961905Y-64304761D01*
X129914286Y-64400000D01*
X129914286Y-64495238D01*
X130152381Y-64447619D02*
X130104762Y-64542857D01*
X130009524Y-64638095D01*
X129819048Y-64685714D01*
X129485714Y-64685714D01*
X129295238Y-64638095D01*
X129200000Y-64542857D01*
X129152381Y-64447619D01*
X129152381Y-64257142D01*
X129200000Y-64161904D01*
X129295238Y-64066666D01*
X129485714Y-64019047D01*
X129819048Y-64019047D01*
X130009524Y-64066666D01*
X130104762Y-64161904D01*
X130152381Y-64257142D01*
X130152381Y-64447619D01*
X129247619Y-63638095D02*
X129200000Y-63590476D01*
X129152381Y-63495238D01*
X129152381Y-63257142D01*
X129200000Y-63161904D01*
X129247619Y-63114285D01*
X129342857Y-63066666D01*
X129438095Y-63066666D01*
X129580952Y-63114285D01*
X130152381Y-63685714D01*
X130152381Y-63066666D01*
X129152381Y-62161904D02*
X129152381Y-62638095D01*
X129628571Y-62685714D01*
X129580952Y-62638095D01*
X129533333Y-62542857D01*
X129533333Y-62304761D01*
X129580952Y-62209523D01*
X129628571Y-62161904D01*
X129723810Y-62114285D01*
X129961905Y-62114285D01*
X130057143Y-62161904D01*
X130104762Y-62209523D01*
X130152381Y-62304761D01*
X130152381Y-62542857D01*
X130104762Y-62638095D01*
X130057143Y-62685714D01*
X130447619Y-69671428D02*
X130400000Y-69766666D01*
X130304762Y-69861904D01*
X130161905Y-70004761D01*
X130114286Y-70100000D01*
X130114286Y-70195238D01*
X130352381Y-70147619D02*
X130304762Y-70242857D01*
X130209524Y-70338095D01*
X130019048Y-70385714D01*
X129685714Y-70385714D01*
X129495238Y-70338095D01*
X129400000Y-70242857D01*
X129352381Y-70147619D01*
X129352381Y-69957142D01*
X129400000Y-69861904D01*
X129495238Y-69766666D01*
X129685714Y-69719047D01*
X130019048Y-69719047D01*
X130209524Y-69766666D01*
X130304762Y-69861904D01*
X130352381Y-69957142D01*
X130352381Y-70147619D01*
X129447619Y-69338095D02*
X129400000Y-69290476D01*
X129352381Y-69195238D01*
X129352381Y-68957142D01*
X129400000Y-68861904D01*
X129447619Y-68814285D01*
X129542857Y-68766666D01*
X129638095Y-68766666D01*
X129780952Y-68814285D01*
X130352381Y-69385714D01*
X130352381Y-68766666D01*
X129352381Y-67909523D02*
X129352381Y-68100000D01*
X129400000Y-68195238D01*
X129447619Y-68242857D01*
X129590476Y-68338095D01*
X129780952Y-68385714D01*
X130161905Y-68385714D01*
X130257143Y-68338095D01*
X130304762Y-68290476D01*
X130352381Y-68195238D01*
X130352381Y-68004761D01*
X130304762Y-67909523D01*
X130257143Y-67861904D01*
X130161905Y-67814285D01*
X129923810Y-67814285D01*
X129828571Y-67861904D01*
X129780952Y-67909523D01*
X129733333Y-68004761D01*
X129733333Y-68195238D01*
X129780952Y-68290476D01*
X129828571Y-68338095D01*
X129923810Y-68385714D01*
X130447619Y-76571428D02*
X130400000Y-76666666D01*
X130304762Y-76761904D01*
X130161905Y-76904761D01*
X130114286Y-77000000D01*
X130114286Y-77095238D01*
X130352381Y-77047619D02*
X130304762Y-77142857D01*
X130209524Y-77238095D01*
X130019048Y-77285714D01*
X129685714Y-77285714D01*
X129495238Y-77238095D01*
X129400000Y-77142857D01*
X129352381Y-77047619D01*
X129352381Y-76857142D01*
X129400000Y-76761904D01*
X129495238Y-76666666D01*
X129685714Y-76619047D01*
X130019048Y-76619047D01*
X130209524Y-76666666D01*
X130304762Y-76761904D01*
X130352381Y-76857142D01*
X130352381Y-77047619D01*
X129447619Y-76238095D02*
X129400000Y-76190476D01*
X129352381Y-76095238D01*
X129352381Y-75857142D01*
X129400000Y-75761904D01*
X129447619Y-75714285D01*
X129542857Y-75666666D01*
X129638095Y-75666666D01*
X129780952Y-75714285D01*
X130352381Y-76285714D01*
X130352381Y-75666666D01*
X129352381Y-75333333D02*
X129352381Y-74666666D01*
X130352381Y-75095238D01*
X130147619Y-83871428D02*
X130100000Y-83966666D01*
X130004762Y-84061904D01*
X129861905Y-84204761D01*
X129814286Y-84300000D01*
X129814286Y-84395238D01*
X130052381Y-84347619D02*
X130004762Y-84442857D01*
X129909524Y-84538095D01*
X129719048Y-84585714D01*
X129385714Y-84585714D01*
X129195238Y-84538095D01*
X129100000Y-84442857D01*
X129052381Y-84347619D01*
X129052381Y-84157142D01*
X129100000Y-84061904D01*
X129195238Y-83966666D01*
X129385714Y-83919047D01*
X129719048Y-83919047D01*
X129909524Y-83966666D01*
X130004762Y-84061904D01*
X130052381Y-84157142D01*
X130052381Y-84347619D01*
X129147619Y-83538095D02*
X129100000Y-83490476D01*
X129052381Y-83395238D01*
X129052381Y-83157142D01*
X129100000Y-83061904D01*
X129147619Y-83014285D01*
X129242857Y-82966666D01*
X129338095Y-82966666D01*
X129480952Y-83014285D01*
X130052381Y-83585714D01*
X130052381Y-82966666D01*
X129480952Y-82395238D02*
X129433333Y-82490476D01*
X129385714Y-82538095D01*
X129290476Y-82585714D01*
X129242857Y-82585714D01*
X129147619Y-82538095D01*
X129100000Y-82490476D01*
X129052381Y-82395238D01*
X129052381Y-82204761D01*
X129100000Y-82109523D01*
X129147619Y-82061904D01*
X129242857Y-82014285D01*
X129290476Y-82014285D01*
X129385714Y-82061904D01*
X129433333Y-82109523D01*
X129480952Y-82204761D01*
X129480952Y-82395238D01*
X129528571Y-82490476D01*
X129576190Y-82538095D01*
X129671429Y-82585714D01*
X129861905Y-82585714D01*
X129957143Y-82538095D01*
X130004762Y-82490476D01*
X130052381Y-82395238D01*
X130052381Y-82204761D01*
X130004762Y-82109523D01*
X129957143Y-82061904D01*
X129861905Y-82014285D01*
X129671429Y-82014285D01*
X129576190Y-82061904D01*
X129528571Y-82109523D01*
X129480952Y-82204761D01*
X130347619Y-90571428D02*
X130300000Y-90666666D01*
X130204762Y-90761904D01*
X130061905Y-90904761D01*
X130014286Y-91000000D01*
X130014286Y-91095238D01*
X130252381Y-91047619D02*
X130204762Y-91142857D01*
X130109524Y-91238095D01*
X129919048Y-91285714D01*
X129585714Y-91285714D01*
X129395238Y-91238095D01*
X129300000Y-91142857D01*
X129252381Y-91047619D01*
X129252381Y-90857142D01*
X129300000Y-90761904D01*
X129395238Y-90666666D01*
X129585714Y-90619047D01*
X129919048Y-90619047D01*
X130109524Y-90666666D01*
X130204762Y-90761904D01*
X130252381Y-90857142D01*
X130252381Y-91047619D01*
X129347619Y-90238095D02*
X129300000Y-90190476D01*
X129252381Y-90095238D01*
X129252381Y-89857142D01*
X129300000Y-89761904D01*
X129347619Y-89714285D01*
X129442857Y-89666666D01*
X129538095Y-89666666D01*
X129680952Y-89714285D01*
X130252381Y-90285714D01*
X130252381Y-89666666D01*
X130252381Y-89190476D02*
X130252381Y-89000000D01*
X130204762Y-88904761D01*
X130157143Y-88857142D01*
X130014286Y-88761904D01*
X129823810Y-88714285D01*
X129442857Y-88714285D01*
X129347619Y-88761904D01*
X129300000Y-88809523D01*
X129252381Y-88904761D01*
X129252381Y-89095238D01*
X129300000Y-89190476D01*
X129347619Y-89238095D01*
X129442857Y-89285714D01*
X129680952Y-89285714D01*
X129776190Y-89238095D01*
X129823810Y-89190476D01*
X129871429Y-89095238D01*
X129871429Y-88904761D01*
X129823810Y-88809523D01*
X129776190Y-88761904D01*
X129680952Y-88714285D01*
X130147619Y-97271428D02*
X130100000Y-97366666D01*
X130004762Y-97461904D01*
X129861905Y-97604761D01*
X129814286Y-97700000D01*
X129814286Y-97795238D01*
X130052381Y-97747619D02*
X130004762Y-97842857D01*
X129909524Y-97938095D01*
X129719048Y-97985714D01*
X129385714Y-97985714D01*
X129195238Y-97938095D01*
X129100000Y-97842857D01*
X129052381Y-97747619D01*
X129052381Y-97557142D01*
X129100000Y-97461904D01*
X129195238Y-97366666D01*
X129385714Y-97319047D01*
X129719048Y-97319047D01*
X129909524Y-97366666D01*
X130004762Y-97461904D01*
X130052381Y-97557142D01*
X130052381Y-97747619D01*
X129052381Y-96985714D02*
X129052381Y-96366666D01*
X129433333Y-96700000D01*
X129433333Y-96557142D01*
X129480952Y-96461904D01*
X129528571Y-96414285D01*
X129623810Y-96366666D01*
X129861905Y-96366666D01*
X129957143Y-96414285D01*
X130004762Y-96461904D01*
X130052381Y-96557142D01*
X130052381Y-96842857D01*
X130004762Y-96938095D01*
X129957143Y-96985714D01*
X129052381Y-95747619D02*
X129052381Y-95652380D01*
X129100000Y-95557142D01*
X129147619Y-95509523D01*
X129242857Y-95461904D01*
X129433333Y-95414285D01*
X129671429Y-95414285D01*
X129861905Y-95461904D01*
X129957143Y-95509523D01*
X130004762Y-95557142D01*
X130052381Y-95652380D01*
X130052381Y-95747619D01*
X130004762Y-95842857D01*
X129957143Y-95890476D01*
X129861905Y-95938095D01*
X129671429Y-95985714D01*
X129433333Y-95985714D01*
X129242857Y-95938095D01*
X129147619Y-95890476D01*
X129100000Y-95842857D01*
X129052381Y-95747619D01*
X130347619Y-104371428D02*
X130300000Y-104466666D01*
X130204762Y-104561904D01*
X130061905Y-104704761D01*
X130014286Y-104800000D01*
X130014286Y-104895238D01*
X130252381Y-104847619D02*
X130204762Y-104942857D01*
X130109524Y-105038095D01*
X129919048Y-105085714D01*
X129585714Y-105085714D01*
X129395238Y-105038095D01*
X129300000Y-104942857D01*
X129252381Y-104847619D01*
X129252381Y-104657142D01*
X129300000Y-104561904D01*
X129395238Y-104466666D01*
X129585714Y-104419047D01*
X129919048Y-104419047D01*
X130109524Y-104466666D01*
X130204762Y-104561904D01*
X130252381Y-104657142D01*
X130252381Y-104847619D01*
X129252381Y-104085714D02*
X129252381Y-103466666D01*
X129633333Y-103800000D01*
X129633333Y-103657142D01*
X129680952Y-103561904D01*
X129728571Y-103514285D01*
X129823810Y-103466666D01*
X130061905Y-103466666D01*
X130157143Y-103514285D01*
X130204762Y-103561904D01*
X130252381Y-103657142D01*
X130252381Y-103942857D01*
X130204762Y-104038095D01*
X130157143Y-104085714D01*
X130252381Y-102514285D02*
X130252381Y-103085714D01*
X130252381Y-102800000D02*
X129252381Y-102800000D01*
X129395238Y-102895238D01*
X129490476Y-102990476D01*
X129538095Y-103085714D01*
X130747619Y-111371428D02*
X130700000Y-111466666D01*
X130604762Y-111561904D01*
X130461905Y-111704761D01*
X130414286Y-111800000D01*
X130414286Y-111895238D01*
X130652381Y-111847619D02*
X130604762Y-111942857D01*
X130509524Y-112038095D01*
X130319048Y-112085714D01*
X129985714Y-112085714D01*
X129795238Y-112038095D01*
X129700000Y-111942857D01*
X129652381Y-111847619D01*
X129652381Y-111657142D01*
X129700000Y-111561904D01*
X129795238Y-111466666D01*
X129985714Y-111419047D01*
X130319048Y-111419047D01*
X130509524Y-111466666D01*
X130604762Y-111561904D01*
X130652381Y-111657142D01*
X130652381Y-111847619D01*
X129652381Y-111085714D02*
X129652381Y-110466666D01*
X130033333Y-110800000D01*
X130033333Y-110657142D01*
X130080952Y-110561904D01*
X130128571Y-110514285D01*
X130223810Y-110466666D01*
X130461905Y-110466666D01*
X130557143Y-110514285D01*
X130604762Y-110561904D01*
X130652381Y-110657142D01*
X130652381Y-110942857D01*
X130604762Y-111038095D01*
X130557143Y-111085714D01*
X129747619Y-110085714D02*
X129700000Y-110038095D01*
X129652381Y-109942857D01*
X129652381Y-109704761D01*
X129700000Y-109609523D01*
X129747619Y-109561904D01*
X129842857Y-109514285D01*
X129938095Y-109514285D01*
X130080952Y-109561904D01*
X130652381Y-110133333D01*
X130652381Y-109514285D01*
X126361905Y-137052381D02*
X126361905Y-136052381D01*
X126600000Y-136052381D01*
X126742858Y-136100000D01*
X126838096Y-136195238D01*
X126885715Y-136290476D01*
X126933334Y-136480952D01*
X126933334Y-136623810D01*
X126885715Y-136814286D01*
X126838096Y-136909524D01*
X126742858Y-137004762D01*
X126600000Y-137052381D01*
X126361905Y-137052381D01*
X127314286Y-136147619D02*
X127361905Y-136100000D01*
X127457143Y-136052381D01*
X127695239Y-136052381D01*
X127790477Y-136100000D01*
X127838096Y-136147619D01*
X127885715Y-136242857D01*
X127885715Y-136338095D01*
X127838096Y-136480952D01*
X127266667Y-137052381D01*
X127885715Y-137052381D01*
X133461905Y-137052381D02*
X133461905Y-136052381D01*
X133700000Y-136052381D01*
X133842858Y-136100000D01*
X133938096Y-136195238D01*
X133985715Y-136290476D01*
X134033334Y-136480952D01*
X134033334Y-136623810D01*
X133985715Y-136814286D01*
X133938096Y-136909524D01*
X133842858Y-137004762D01*
X133700000Y-137052381D01*
X133461905Y-137052381D01*
X134366667Y-136052381D02*
X134985715Y-136052381D01*
X134652381Y-136433333D01*
X134795239Y-136433333D01*
X134890477Y-136480952D01*
X134938096Y-136528571D01*
X134985715Y-136623810D01*
X134985715Y-136861905D01*
X134938096Y-136957143D01*
X134890477Y-137004762D01*
X134795239Y-137052381D01*
X134509524Y-137052381D01*
X134414286Y-137004762D01*
X134366667Y-136957143D01*
X140561905Y-137052381D02*
X140561905Y-136052381D01*
X140800000Y-136052381D01*
X140942858Y-136100000D01*
X141038096Y-136195238D01*
X141085715Y-136290476D01*
X141133334Y-136480952D01*
X141133334Y-136623810D01*
X141085715Y-136814286D01*
X141038096Y-136909524D01*
X140942858Y-137004762D01*
X140800000Y-137052381D01*
X140561905Y-137052381D01*
X141990477Y-136385714D02*
X141990477Y-137052381D01*
X141752381Y-136004762D02*
X141514286Y-136719048D01*
X142133334Y-136719048D01*
X147361905Y-137052381D02*
X147361905Y-136052381D01*
X147600000Y-136052381D01*
X147742858Y-136100000D01*
X147838096Y-136195238D01*
X147885715Y-136290476D01*
X147933334Y-136480952D01*
X147933334Y-136623810D01*
X147885715Y-136814286D01*
X147838096Y-136909524D01*
X147742858Y-137004762D01*
X147600000Y-137052381D01*
X147361905Y-137052381D01*
X148838096Y-136052381D02*
X148361905Y-136052381D01*
X148314286Y-136528571D01*
X148361905Y-136480952D01*
X148457143Y-136433333D01*
X148695239Y-136433333D01*
X148790477Y-136480952D01*
X148838096Y-136528571D01*
X148885715Y-136623810D01*
X148885715Y-136861905D01*
X148838096Y-136957143D01*
X148790477Y-137004762D01*
X148695239Y-137052381D01*
X148457143Y-137052381D01*
X148361905Y-137004762D01*
X148314286Y-136957143D01*
X154361905Y-137052381D02*
X154361905Y-136052381D01*
X154600000Y-136052381D01*
X154742858Y-136100000D01*
X154838096Y-136195238D01*
X154885715Y-136290476D01*
X154933334Y-136480952D01*
X154933334Y-136623810D01*
X154885715Y-136814286D01*
X154838096Y-136909524D01*
X154742858Y-137004762D01*
X154600000Y-137052381D01*
X154361905Y-137052381D01*
X155790477Y-136052381D02*
X155600000Y-136052381D01*
X155504762Y-136100000D01*
X155457143Y-136147619D01*
X155361905Y-136290476D01*
X155314286Y-136480952D01*
X155314286Y-136861905D01*
X155361905Y-136957143D01*
X155409524Y-137004762D01*
X155504762Y-137052381D01*
X155695239Y-137052381D01*
X155790477Y-137004762D01*
X155838096Y-136957143D01*
X155885715Y-136861905D01*
X155885715Y-136623810D01*
X155838096Y-136528571D01*
X155790477Y-136480952D01*
X155695239Y-136433333D01*
X155504762Y-136433333D01*
X155409524Y-136480952D01*
X155361905Y-136528571D01*
X155314286Y-136623810D01*
X161461905Y-136952381D02*
X161461905Y-135952381D01*
X161700000Y-135952381D01*
X161842858Y-136000000D01*
X161938096Y-136095238D01*
X161985715Y-136190476D01*
X162033334Y-136380952D01*
X162033334Y-136523810D01*
X161985715Y-136714286D01*
X161938096Y-136809524D01*
X161842858Y-136904762D01*
X161700000Y-136952381D01*
X161461905Y-136952381D01*
X162366667Y-135952381D02*
X163033334Y-135952381D01*
X162604762Y-136952381D01*
X168261905Y-136952381D02*
X168261905Y-135952381D01*
X168500000Y-135952381D01*
X168642858Y-136000000D01*
X168738096Y-136095238D01*
X168785715Y-136190476D01*
X168833334Y-136380952D01*
X168833334Y-136523810D01*
X168785715Y-136714286D01*
X168738096Y-136809524D01*
X168642858Y-136904762D01*
X168500000Y-136952381D01*
X168261905Y-136952381D01*
X169404762Y-136380952D02*
X169309524Y-136333333D01*
X169261905Y-136285714D01*
X169214286Y-136190476D01*
X169214286Y-136142857D01*
X169261905Y-136047619D01*
X169309524Y-136000000D01*
X169404762Y-135952381D01*
X169595239Y-135952381D01*
X169690477Y-136000000D01*
X169738096Y-136047619D01*
X169785715Y-136142857D01*
X169785715Y-136190476D01*
X169738096Y-136285714D01*
X169690477Y-136333333D01*
X169595239Y-136380952D01*
X169404762Y-136380952D01*
X169309524Y-136428571D01*
X169261905Y-136476190D01*
X169214286Y-136571429D01*
X169214286Y-136761905D01*
X169261905Y-136857143D01*
X169309524Y-136904762D01*
X169404762Y-136952381D01*
X169595239Y-136952381D01*
X169690477Y-136904762D01*
X169738096Y-136857143D01*
X169785715Y-136761905D01*
X169785715Y-136571429D01*
X169738096Y-136476190D01*
X169690477Y-136428571D01*
X169595239Y-136380952D01*
X175161905Y-136952381D02*
X175161905Y-135952381D01*
X175400000Y-135952381D01*
X175542858Y-136000000D01*
X175638096Y-136095238D01*
X175685715Y-136190476D01*
X175733334Y-136380952D01*
X175733334Y-136523810D01*
X175685715Y-136714286D01*
X175638096Y-136809524D01*
X175542858Y-136904762D01*
X175400000Y-136952381D01*
X175161905Y-136952381D01*
X176209524Y-136952381D02*
X176400000Y-136952381D01*
X176495239Y-136904762D01*
X176542858Y-136857143D01*
X176638096Y-136714286D01*
X176685715Y-136523810D01*
X176685715Y-136142857D01*
X176638096Y-136047619D01*
X176590477Y-136000000D01*
X176495239Y-135952381D01*
X176304762Y-135952381D01*
X176209524Y-136000000D01*
X176161905Y-136047619D01*
X176114286Y-136142857D01*
X176114286Y-136380952D01*
X176161905Y-136476190D01*
X176209524Y-136523810D01*
X176304762Y-136571429D01*
X176495239Y-136571429D01*
X176590477Y-136523810D01*
X176638096Y-136476190D01*
X176685715Y-136380952D01*
X177452381Y-112514286D02*
X176452381Y-112514286D01*
X176452381Y-112276191D01*
X176500000Y-112133333D01*
X176595238Y-112038095D01*
X176690476Y-111990476D01*
X176880952Y-111942857D01*
X177023810Y-111942857D01*
X177214286Y-111990476D01*
X177309524Y-112038095D01*
X177404762Y-112133333D01*
X177452381Y-112276191D01*
X177452381Y-112514286D01*
X177452381Y-110990476D02*
X177452381Y-111561905D01*
X177452381Y-111276191D02*
X176452381Y-111276191D01*
X176595238Y-111371429D01*
X176690476Y-111466667D01*
X176738095Y-111561905D01*
X176452381Y-110371429D02*
X176452381Y-110276190D01*
X176500000Y-110180952D01*
X176547619Y-110133333D01*
X176642857Y-110085714D01*
X176833333Y-110038095D01*
X177071429Y-110038095D01*
X177261905Y-110085714D01*
X177357143Y-110133333D01*
X177404762Y-110180952D01*
X177452381Y-110276190D01*
X177452381Y-110371429D01*
X177404762Y-110466667D01*
X177357143Y-110514286D01*
X177261905Y-110561905D01*
X177071429Y-110609524D01*
X176833333Y-110609524D01*
X176642857Y-110561905D01*
X176547619Y-110514286D01*
X176500000Y-110466667D01*
X176452381Y-110371429D01*
X177352381Y-105514286D02*
X176352381Y-105514286D01*
X176352381Y-105276191D01*
X176400000Y-105133333D01*
X176495238Y-105038095D01*
X176590476Y-104990476D01*
X176780952Y-104942857D01*
X176923810Y-104942857D01*
X177114286Y-104990476D01*
X177209524Y-105038095D01*
X177304762Y-105133333D01*
X177352381Y-105276191D01*
X177352381Y-105514286D01*
X177352381Y-103990476D02*
X177352381Y-104561905D01*
X177352381Y-104276191D02*
X176352381Y-104276191D01*
X176495238Y-104371429D01*
X176590476Y-104466667D01*
X176638095Y-104561905D01*
X177352381Y-103038095D02*
X177352381Y-103609524D01*
X177352381Y-103323810D02*
X176352381Y-103323810D01*
X176495238Y-103419048D01*
X176590476Y-103514286D01*
X176638095Y-103609524D01*
X177452381Y-98514286D02*
X176452381Y-98514286D01*
X176452381Y-98276191D01*
X176500000Y-98133333D01*
X176595238Y-98038095D01*
X176690476Y-97990476D01*
X176880952Y-97942857D01*
X177023810Y-97942857D01*
X177214286Y-97990476D01*
X177309524Y-98038095D01*
X177404762Y-98133333D01*
X177452381Y-98276191D01*
X177452381Y-98514286D01*
X177452381Y-96990476D02*
X177452381Y-97561905D01*
X177452381Y-97276191D02*
X176452381Y-97276191D01*
X176595238Y-97371429D01*
X176690476Y-97466667D01*
X176738095Y-97561905D01*
X176547619Y-96609524D02*
X176500000Y-96561905D01*
X176452381Y-96466667D01*
X176452381Y-96228571D01*
X176500000Y-96133333D01*
X176547619Y-96085714D01*
X176642857Y-96038095D01*
X176738095Y-96038095D01*
X176880952Y-96085714D01*
X177452381Y-96657143D01*
X177452381Y-96038095D01*
X177652381Y-91314286D02*
X176652381Y-91314286D01*
X176652381Y-91076191D01*
X176700000Y-90933333D01*
X176795238Y-90838095D01*
X176890476Y-90790476D01*
X177080952Y-90742857D01*
X177223810Y-90742857D01*
X177414286Y-90790476D01*
X177509524Y-90838095D01*
X177604762Y-90933333D01*
X177652381Y-91076191D01*
X177652381Y-91314286D01*
X177652381Y-89790476D02*
X177652381Y-90361905D01*
X177652381Y-90076191D02*
X176652381Y-90076191D01*
X176795238Y-90171429D01*
X176890476Y-90266667D01*
X176938095Y-90361905D01*
X176652381Y-89457143D02*
X176652381Y-88838095D01*
X177033333Y-89171429D01*
X177033333Y-89028571D01*
X177080952Y-88933333D01*
X177128571Y-88885714D01*
X177223810Y-88838095D01*
X177461905Y-88838095D01*
X177557143Y-88885714D01*
X177604762Y-88933333D01*
X177652381Y-89028571D01*
X177652381Y-89314286D01*
X177604762Y-89409524D01*
X177557143Y-89457143D01*
X177752381Y-84314286D02*
X176752381Y-84314286D01*
X176752381Y-84076191D01*
X176800000Y-83933333D01*
X176895238Y-83838095D01*
X176990476Y-83790476D01*
X177180952Y-83742857D01*
X177323810Y-83742857D01*
X177514286Y-83790476D01*
X177609524Y-83838095D01*
X177704762Y-83933333D01*
X177752381Y-84076191D01*
X177752381Y-84314286D01*
X177752381Y-82790476D02*
X177752381Y-83361905D01*
X177752381Y-83076191D02*
X176752381Y-83076191D01*
X176895238Y-83171429D01*
X176990476Y-83266667D01*
X177038095Y-83361905D01*
X177085714Y-81933333D02*
X177752381Y-81933333D01*
X176704762Y-82171429D02*
X177419048Y-82409524D01*
X177419048Y-81790476D01*
X177752381Y-77214286D02*
X176752381Y-77214286D01*
X176752381Y-76976191D01*
X176800000Y-76833333D01*
X176895238Y-76738095D01*
X176990476Y-76690476D01*
X177180952Y-76642857D01*
X177323810Y-76642857D01*
X177514286Y-76690476D01*
X177609524Y-76738095D01*
X177704762Y-76833333D01*
X177752381Y-76976191D01*
X177752381Y-77214286D01*
X177752381Y-75690476D02*
X177752381Y-76261905D01*
X177752381Y-75976191D02*
X176752381Y-75976191D01*
X176895238Y-76071429D01*
X176990476Y-76166667D01*
X177038095Y-76261905D01*
X176752381Y-74785714D02*
X176752381Y-75261905D01*
X177228571Y-75309524D01*
X177180952Y-75261905D01*
X177133333Y-75166667D01*
X177133333Y-74928571D01*
X177180952Y-74833333D01*
X177228571Y-74785714D01*
X177323810Y-74738095D01*
X177561905Y-74738095D01*
X177657143Y-74785714D01*
X177704762Y-74833333D01*
X177752381Y-74928571D01*
X177752381Y-75166667D01*
X177704762Y-75261905D01*
X177657143Y-75309524D01*
X177752381Y-70414286D02*
X176752381Y-70414286D01*
X176752381Y-70176191D01*
X176800000Y-70033333D01*
X176895238Y-69938095D01*
X176990476Y-69890476D01*
X177180952Y-69842857D01*
X177323810Y-69842857D01*
X177514286Y-69890476D01*
X177609524Y-69938095D01*
X177704762Y-70033333D01*
X177752381Y-70176191D01*
X177752381Y-70414286D01*
X177752381Y-68890476D02*
X177752381Y-69461905D01*
X177752381Y-69176191D02*
X176752381Y-69176191D01*
X176895238Y-69271429D01*
X176990476Y-69366667D01*
X177038095Y-69461905D01*
X176752381Y-68033333D02*
X176752381Y-68223810D01*
X176800000Y-68319048D01*
X176847619Y-68366667D01*
X176990476Y-68461905D01*
X177180952Y-68509524D01*
X177561905Y-68509524D01*
X177657143Y-68461905D01*
X177704762Y-68414286D01*
X177752381Y-68319048D01*
X177752381Y-68128571D01*
X177704762Y-68033333D01*
X177657143Y-67985714D01*
X177561905Y-67938095D01*
X177323810Y-67938095D01*
X177228571Y-67985714D01*
X177180952Y-68033333D01*
X177133333Y-68128571D01*
X177133333Y-68319048D01*
X177180952Y-68414286D01*
X177228571Y-68461905D01*
X177323810Y-68509524D01*
X177652381Y-63914286D02*
X176652381Y-63914286D01*
X176652381Y-63676191D01*
X176700000Y-63533333D01*
X176795238Y-63438095D01*
X176890476Y-63390476D01*
X177080952Y-63342857D01*
X177223810Y-63342857D01*
X177414286Y-63390476D01*
X177509524Y-63438095D01*
X177604762Y-63533333D01*
X177652381Y-63676191D01*
X177652381Y-63914286D01*
X177652381Y-62390476D02*
X177652381Y-62961905D01*
X177652381Y-62676191D02*
X176652381Y-62676191D01*
X176795238Y-62771429D01*
X176890476Y-62866667D01*
X176938095Y-62961905D01*
X176652381Y-62057143D02*
X176652381Y-61390476D01*
X177652381Y-61819048D01*
X179385714Y-57852381D02*
X179385714Y-56852381D01*
X179623809Y-56852381D01*
X179766667Y-56900000D01*
X179861905Y-56995238D01*
X179909524Y-57090476D01*
X179957143Y-57280952D01*
X179957143Y-57423810D01*
X179909524Y-57614286D01*
X179861905Y-57709524D01*
X179766667Y-57804762D01*
X179623809Y-57852381D01*
X179385714Y-57852381D01*
X180909524Y-57852381D02*
X180338095Y-57852381D01*
X180623809Y-57852381D02*
X180623809Y-56852381D01*
X180528571Y-56995238D01*
X180433333Y-57090476D01*
X180338095Y-57138095D01*
X181480952Y-57280952D02*
X181385714Y-57233333D01*
X181338095Y-57185714D01*
X181290476Y-57090476D01*
X181290476Y-57042857D01*
X181338095Y-56947619D01*
X181385714Y-56900000D01*
X181480952Y-56852381D01*
X181671429Y-56852381D01*
X181766667Y-56900000D01*
X181814286Y-56947619D01*
X181861905Y-57042857D01*
X181861905Y-57090476D01*
X181814286Y-57185714D01*
X181766667Y-57233333D01*
X181671429Y-57280952D01*
X181480952Y-57280952D01*
X181385714Y-57328571D01*
X181338095Y-57376190D01*
X181290476Y-57471429D01*
X181290476Y-57661905D01*
X181338095Y-57757143D01*
X181385714Y-57804762D01*
X181480952Y-57852381D01*
X181671429Y-57852381D01*
X181766667Y-57804762D01*
X181814286Y-57757143D01*
X181861905Y-57661905D01*
X181861905Y-57471429D01*
X181814286Y-57376190D01*
X181766667Y-57328571D01*
X181671429Y-57280952D01*
X170685714Y-61652381D02*
X170685714Y-60652381D01*
X170923809Y-60652381D01*
X171066667Y-60700000D01*
X171161905Y-60795238D01*
X171209524Y-60890476D01*
X171257143Y-61080952D01*
X171257143Y-61223810D01*
X171209524Y-61414286D01*
X171161905Y-61509524D01*
X171066667Y-61604762D01*
X170923809Y-61652381D01*
X170685714Y-61652381D01*
X172209524Y-61652381D02*
X171638095Y-61652381D01*
X171923809Y-61652381D02*
X171923809Y-60652381D01*
X171828571Y-60795238D01*
X171733333Y-60890476D01*
X171638095Y-60938095D01*
X172685714Y-61652381D02*
X172876190Y-61652381D01*
X172971429Y-61604762D01*
X173019048Y-61557143D01*
X173114286Y-61414286D01*
X173161905Y-61223810D01*
X173161905Y-60842857D01*
X173114286Y-60747619D01*
X173066667Y-60700000D01*
X172971429Y-60652381D01*
X172780952Y-60652381D01*
X172685714Y-60700000D01*
X172638095Y-60747619D01*
X172590476Y-60842857D01*
X172590476Y-61080952D01*
X172638095Y-61176190D01*
X172685714Y-61223810D01*
X172780952Y-61271429D01*
X172971429Y-61271429D01*
X173066667Y-61223810D01*
X173114286Y-61176190D01*
X173161905Y-61080952D01*
X164885714Y-61852381D02*
X164885714Y-60852381D01*
X165123809Y-60852381D01*
X165266667Y-60900000D01*
X165361905Y-60995238D01*
X165409524Y-61090476D01*
X165457143Y-61280952D01*
X165457143Y-61423810D01*
X165409524Y-61614286D01*
X165361905Y-61709524D01*
X165266667Y-61804762D01*
X165123809Y-61852381D01*
X164885714Y-61852381D01*
X165838095Y-60947619D02*
X165885714Y-60900000D01*
X165980952Y-60852381D01*
X166219048Y-60852381D01*
X166314286Y-60900000D01*
X166361905Y-60947619D01*
X166409524Y-61042857D01*
X166409524Y-61138095D01*
X166361905Y-61280952D01*
X165790476Y-61852381D01*
X166409524Y-61852381D01*
X167028571Y-60852381D02*
X167123810Y-60852381D01*
X167219048Y-60900000D01*
X167266667Y-60947619D01*
X167314286Y-61042857D01*
X167361905Y-61233333D01*
X167361905Y-61471429D01*
X167314286Y-61661905D01*
X167266667Y-61757143D01*
X167219048Y-61804762D01*
X167123810Y-61852381D01*
X167028571Y-61852381D01*
X166933333Y-61804762D01*
X166885714Y-61757143D01*
X166838095Y-61661905D01*
X166790476Y-61471429D01*
X166790476Y-61233333D01*
X166838095Y-61042857D01*
X166885714Y-60947619D01*
X166933333Y-60900000D01*
X167028571Y-60852381D01*
X157885714Y-62052381D02*
X157885714Y-61052381D01*
X158123809Y-61052381D01*
X158266667Y-61100000D01*
X158361905Y-61195238D01*
X158409524Y-61290476D01*
X158457143Y-61480952D01*
X158457143Y-61623810D01*
X158409524Y-61814286D01*
X158361905Y-61909524D01*
X158266667Y-62004762D01*
X158123809Y-62052381D01*
X157885714Y-62052381D01*
X158838095Y-61147619D02*
X158885714Y-61100000D01*
X158980952Y-61052381D01*
X159219048Y-61052381D01*
X159314286Y-61100000D01*
X159361905Y-61147619D01*
X159409524Y-61242857D01*
X159409524Y-61338095D01*
X159361905Y-61480952D01*
X158790476Y-62052381D01*
X159409524Y-62052381D01*
X160361905Y-62052381D02*
X159790476Y-62052381D01*
X160076190Y-62052381D02*
X160076190Y-61052381D01*
X159980952Y-61195238D01*
X159885714Y-61290476D01*
X159790476Y-61338095D01*
X150785714Y-61952381D02*
X150785714Y-60952381D01*
X151023809Y-60952381D01*
X151166667Y-61000000D01*
X151261905Y-61095238D01*
X151309524Y-61190476D01*
X151357143Y-61380952D01*
X151357143Y-61523810D01*
X151309524Y-61714286D01*
X151261905Y-61809524D01*
X151166667Y-61904762D01*
X151023809Y-61952381D01*
X150785714Y-61952381D01*
X151738095Y-61047619D02*
X151785714Y-61000000D01*
X151880952Y-60952381D01*
X152119048Y-60952381D01*
X152214286Y-61000000D01*
X152261905Y-61047619D01*
X152309524Y-61142857D01*
X152309524Y-61238095D01*
X152261905Y-61380952D01*
X151690476Y-61952381D01*
X152309524Y-61952381D01*
X152690476Y-61047619D02*
X152738095Y-61000000D01*
X152833333Y-60952381D01*
X153071429Y-60952381D01*
X153166667Y-61000000D01*
X153214286Y-61047619D01*
X153261905Y-61142857D01*
X153261905Y-61238095D01*
X153214286Y-61380952D01*
X152642857Y-61952381D01*
X153261905Y-61952381D01*
X143985714Y-61852381D02*
X143985714Y-60852381D01*
X144223809Y-60852381D01*
X144366667Y-60900000D01*
X144461905Y-60995238D01*
X144509524Y-61090476D01*
X144557143Y-61280952D01*
X144557143Y-61423810D01*
X144509524Y-61614286D01*
X144461905Y-61709524D01*
X144366667Y-61804762D01*
X144223809Y-61852381D01*
X143985714Y-61852381D01*
X144938095Y-60947619D02*
X144985714Y-60900000D01*
X145080952Y-60852381D01*
X145319048Y-60852381D01*
X145414286Y-60900000D01*
X145461905Y-60947619D01*
X145509524Y-61042857D01*
X145509524Y-61138095D01*
X145461905Y-61280952D01*
X144890476Y-61852381D01*
X145509524Y-61852381D01*
X145842857Y-60852381D02*
X146461905Y-60852381D01*
X146128571Y-61233333D01*
X146271429Y-61233333D01*
X146366667Y-61280952D01*
X146414286Y-61328571D01*
X146461905Y-61423810D01*
X146461905Y-61661905D01*
X146414286Y-61757143D01*
X146366667Y-61804762D01*
X146271429Y-61852381D01*
X145985714Y-61852381D01*
X145890476Y-61804762D01*
X145842857Y-61757143D01*
X137585714Y-59852381D02*
X137585714Y-58852381D01*
X137823809Y-58852381D01*
X137966667Y-58900000D01*
X138061905Y-58995238D01*
X138109524Y-59090476D01*
X138157143Y-59280952D01*
X138157143Y-59423810D01*
X138109524Y-59614286D01*
X138061905Y-59709524D01*
X137966667Y-59804762D01*
X137823809Y-59852381D01*
X137585714Y-59852381D01*
X138538095Y-58947619D02*
X138585714Y-58900000D01*
X138680952Y-58852381D01*
X138919048Y-58852381D01*
X139014286Y-58900000D01*
X139061905Y-58947619D01*
X139109524Y-59042857D01*
X139109524Y-59138095D01*
X139061905Y-59280952D01*
X138490476Y-59852381D01*
X139109524Y-59852381D01*
X139966667Y-59185714D02*
X139966667Y-59852381D01*
X139728571Y-58804762D02*
X139490476Y-59519048D01*
X140109524Y-59519048D01*
X131885714Y-62752381D02*
X131885714Y-61752381D01*
X132123809Y-61752381D01*
X132266667Y-61800000D01*
X132361905Y-61895238D01*
X132409524Y-61990476D01*
X132457143Y-62180952D01*
X132457143Y-62323810D01*
X132409524Y-62514286D01*
X132361905Y-62609524D01*
X132266667Y-62704762D01*
X132123809Y-62752381D01*
X131885714Y-62752381D01*
X132838095Y-61847619D02*
X132885714Y-61800000D01*
X132980952Y-61752381D01*
X133219048Y-61752381D01*
X133314286Y-61800000D01*
X133361905Y-61847619D01*
X133409524Y-61942857D01*
X133409524Y-62038095D01*
X133361905Y-62180952D01*
X132790476Y-62752381D01*
X133409524Y-62752381D01*
X134314286Y-61752381D02*
X133838095Y-61752381D01*
X133790476Y-62228571D01*
X133838095Y-62180952D01*
X133933333Y-62133333D01*
X134171429Y-62133333D01*
X134266667Y-62180952D01*
X134314286Y-62228571D01*
X134361905Y-62323810D01*
X134361905Y-62561905D01*
X134314286Y-62657143D01*
X134266667Y-62704762D01*
X134171429Y-62752381D01*
X133933333Y-62752381D01*
X133838095Y-62704762D01*
X133790476Y-62657143D01*
X125552381Y-56214286D02*
X124552381Y-56214286D01*
X124552381Y-55976191D01*
X124600000Y-55833333D01*
X124695238Y-55738095D01*
X124790476Y-55690476D01*
X124980952Y-55642857D01*
X125123810Y-55642857D01*
X125314286Y-55690476D01*
X125409524Y-55738095D01*
X125504762Y-55833333D01*
X125552381Y-55976191D01*
X125552381Y-56214286D01*
X124647619Y-55261905D02*
X124600000Y-55214286D01*
X124552381Y-55119048D01*
X124552381Y-54880952D01*
X124600000Y-54785714D01*
X124647619Y-54738095D01*
X124742857Y-54690476D01*
X124838095Y-54690476D01*
X124980952Y-54738095D01*
X125552381Y-55309524D01*
X125552381Y-54690476D01*
X124552381Y-53833333D02*
X124552381Y-54023810D01*
X124600000Y-54119048D01*
X124647619Y-54166667D01*
X124790476Y-54261905D01*
X124980952Y-54309524D01*
X125361905Y-54309524D01*
X125457143Y-54261905D01*
X125504762Y-54214286D01*
X125552381Y-54119048D01*
X125552381Y-53928571D01*
X125504762Y-53833333D01*
X125457143Y-53785714D01*
X125361905Y-53738095D01*
X125123810Y-53738095D01*
X125028571Y-53785714D01*
X124980952Y-53833333D01*
X124933333Y-53928571D01*
X124933333Y-54119048D01*
X124980952Y-54214286D01*
X125028571Y-54261905D01*
X125123810Y-54309524D01*
X128352381Y-66014286D02*
X127352381Y-66014286D01*
X127352381Y-65776191D01*
X127400000Y-65633333D01*
X127495238Y-65538095D01*
X127590476Y-65490476D01*
X127780952Y-65442857D01*
X127923810Y-65442857D01*
X128114286Y-65490476D01*
X128209524Y-65538095D01*
X128304762Y-65633333D01*
X128352381Y-65776191D01*
X128352381Y-66014286D01*
X127447619Y-65061905D02*
X127400000Y-65014286D01*
X127352381Y-64919048D01*
X127352381Y-64680952D01*
X127400000Y-64585714D01*
X127447619Y-64538095D01*
X127542857Y-64490476D01*
X127638095Y-64490476D01*
X127780952Y-64538095D01*
X128352381Y-65109524D01*
X128352381Y-64490476D01*
X127352381Y-64157143D02*
X127352381Y-63490476D01*
X128352381Y-63919048D01*
X130552381Y-73614286D02*
X129552381Y-73614286D01*
X129552381Y-73376191D01*
X129600000Y-73233333D01*
X129695238Y-73138095D01*
X129790476Y-73090476D01*
X129980952Y-73042857D01*
X130123810Y-73042857D01*
X130314286Y-73090476D01*
X130409524Y-73138095D01*
X130504762Y-73233333D01*
X130552381Y-73376191D01*
X130552381Y-73614286D01*
X129647619Y-72661905D02*
X129600000Y-72614286D01*
X129552381Y-72519048D01*
X129552381Y-72280952D01*
X129600000Y-72185714D01*
X129647619Y-72138095D01*
X129742857Y-72090476D01*
X129838095Y-72090476D01*
X129980952Y-72138095D01*
X130552381Y-72709524D01*
X130552381Y-72090476D01*
X129980952Y-71519048D02*
X129933333Y-71614286D01*
X129885714Y-71661905D01*
X129790476Y-71709524D01*
X129742857Y-71709524D01*
X129647619Y-71661905D01*
X129600000Y-71614286D01*
X129552381Y-71519048D01*
X129552381Y-71328571D01*
X129600000Y-71233333D01*
X129647619Y-71185714D01*
X129742857Y-71138095D01*
X129790476Y-71138095D01*
X129885714Y-71185714D01*
X129933333Y-71233333D01*
X129980952Y-71328571D01*
X129980952Y-71519048D01*
X130028571Y-71614286D01*
X130076190Y-71661905D01*
X130171429Y-71709524D01*
X130361905Y-71709524D01*
X130457143Y-71661905D01*
X130504762Y-71614286D01*
X130552381Y-71519048D01*
X130552381Y-71328571D01*
X130504762Y-71233333D01*
X130457143Y-71185714D01*
X130361905Y-71138095D01*
X130171429Y-71138095D01*
X130076190Y-71185714D01*
X130028571Y-71233333D01*
X129980952Y-71328571D01*
X130452381Y-80614286D02*
X129452381Y-80614286D01*
X129452381Y-80376191D01*
X129500000Y-80233333D01*
X129595238Y-80138095D01*
X129690476Y-80090476D01*
X129880952Y-80042857D01*
X130023810Y-80042857D01*
X130214286Y-80090476D01*
X130309524Y-80138095D01*
X130404762Y-80233333D01*
X130452381Y-80376191D01*
X130452381Y-80614286D01*
X129547619Y-79661905D02*
X129500000Y-79614286D01*
X129452381Y-79519048D01*
X129452381Y-79280952D01*
X129500000Y-79185714D01*
X129547619Y-79138095D01*
X129642857Y-79090476D01*
X129738095Y-79090476D01*
X129880952Y-79138095D01*
X130452381Y-79709524D01*
X130452381Y-79090476D01*
X130452381Y-78614286D02*
X130452381Y-78423810D01*
X130404762Y-78328571D01*
X130357143Y-78280952D01*
X130214286Y-78185714D01*
X130023810Y-78138095D01*
X129642857Y-78138095D01*
X129547619Y-78185714D01*
X129500000Y-78233333D01*
X129452381Y-78328571D01*
X129452381Y-78519048D01*
X129500000Y-78614286D01*
X129547619Y-78661905D01*
X129642857Y-78709524D01*
X129880952Y-78709524D01*
X129976190Y-78661905D01*
X130023810Y-78614286D01*
X130071429Y-78519048D01*
X130071429Y-78328571D01*
X130023810Y-78233333D01*
X129976190Y-78185714D01*
X129880952Y-78138095D01*
X130652381Y-87814286D02*
X129652381Y-87814286D01*
X129652381Y-87576191D01*
X129700000Y-87433333D01*
X129795238Y-87338095D01*
X129890476Y-87290476D01*
X130080952Y-87242857D01*
X130223810Y-87242857D01*
X130414286Y-87290476D01*
X130509524Y-87338095D01*
X130604762Y-87433333D01*
X130652381Y-87576191D01*
X130652381Y-87814286D01*
X129652381Y-86909524D02*
X129652381Y-86290476D01*
X130033333Y-86623810D01*
X130033333Y-86480952D01*
X130080952Y-86385714D01*
X130128571Y-86338095D01*
X130223810Y-86290476D01*
X130461905Y-86290476D01*
X130557143Y-86338095D01*
X130604762Y-86385714D01*
X130652381Y-86480952D01*
X130652381Y-86766667D01*
X130604762Y-86861905D01*
X130557143Y-86909524D01*
X129652381Y-85671429D02*
X129652381Y-85576190D01*
X129700000Y-85480952D01*
X129747619Y-85433333D01*
X129842857Y-85385714D01*
X130033333Y-85338095D01*
X130271429Y-85338095D01*
X130461905Y-85385714D01*
X130557143Y-85433333D01*
X130604762Y-85480952D01*
X130652381Y-85576190D01*
X130652381Y-85671429D01*
X130604762Y-85766667D01*
X130557143Y-85814286D01*
X130461905Y-85861905D01*
X130271429Y-85909524D01*
X130033333Y-85909524D01*
X129842857Y-85861905D01*
X129747619Y-85814286D01*
X129700000Y-85766667D01*
X129652381Y-85671429D01*
X130552381Y-94514286D02*
X129552381Y-94514286D01*
X129552381Y-94276191D01*
X129600000Y-94133333D01*
X129695238Y-94038095D01*
X129790476Y-93990476D01*
X129980952Y-93942857D01*
X130123810Y-93942857D01*
X130314286Y-93990476D01*
X130409524Y-94038095D01*
X130504762Y-94133333D01*
X130552381Y-94276191D01*
X130552381Y-94514286D01*
X129552381Y-93609524D02*
X129552381Y-92990476D01*
X129933333Y-93323810D01*
X129933333Y-93180952D01*
X129980952Y-93085714D01*
X130028571Y-93038095D01*
X130123810Y-92990476D01*
X130361905Y-92990476D01*
X130457143Y-93038095D01*
X130504762Y-93085714D01*
X130552381Y-93180952D01*
X130552381Y-93466667D01*
X130504762Y-93561905D01*
X130457143Y-93609524D01*
X130552381Y-92038095D02*
X130552381Y-92609524D01*
X130552381Y-92323810D02*
X129552381Y-92323810D01*
X129695238Y-92419048D01*
X129790476Y-92514286D01*
X129838095Y-92609524D01*
X130652381Y-101514286D02*
X129652381Y-101514286D01*
X129652381Y-101276191D01*
X129700000Y-101133333D01*
X129795238Y-101038095D01*
X129890476Y-100990476D01*
X130080952Y-100942857D01*
X130223810Y-100942857D01*
X130414286Y-100990476D01*
X130509524Y-101038095D01*
X130604762Y-101133333D01*
X130652381Y-101276191D01*
X130652381Y-101514286D01*
X129652381Y-100609524D02*
X129652381Y-99990476D01*
X130033333Y-100323810D01*
X130033333Y-100180952D01*
X130080952Y-100085714D01*
X130128571Y-100038095D01*
X130223810Y-99990476D01*
X130461905Y-99990476D01*
X130557143Y-100038095D01*
X130604762Y-100085714D01*
X130652381Y-100180952D01*
X130652381Y-100466667D01*
X130604762Y-100561905D01*
X130557143Y-100609524D01*
X129747619Y-99609524D02*
X129700000Y-99561905D01*
X129652381Y-99466667D01*
X129652381Y-99228571D01*
X129700000Y-99133333D01*
X129747619Y-99085714D01*
X129842857Y-99038095D01*
X129938095Y-99038095D01*
X130080952Y-99085714D01*
X130652381Y-99657143D01*
X130652381Y-99038095D01*
X130752381Y-108614286D02*
X129752381Y-108614286D01*
X129752381Y-108376191D01*
X129800000Y-108233333D01*
X129895238Y-108138095D01*
X129990476Y-108090476D01*
X130180952Y-108042857D01*
X130323810Y-108042857D01*
X130514286Y-108090476D01*
X130609524Y-108138095D01*
X130704762Y-108233333D01*
X130752381Y-108376191D01*
X130752381Y-108614286D01*
X129752381Y-107709524D02*
X129752381Y-107090476D01*
X130133333Y-107423810D01*
X130133333Y-107280952D01*
X130180952Y-107185714D01*
X130228571Y-107138095D01*
X130323810Y-107090476D01*
X130561905Y-107090476D01*
X130657143Y-107138095D01*
X130704762Y-107185714D01*
X130752381Y-107280952D01*
X130752381Y-107566667D01*
X130704762Y-107661905D01*
X130657143Y-107709524D01*
X129752381Y-106757143D02*
X129752381Y-106138095D01*
X130133333Y-106471429D01*
X130133333Y-106328571D01*
X130180952Y-106233333D01*
X130228571Y-106185714D01*
X130323810Y-106138095D01*
X130561905Y-106138095D01*
X130657143Y-106185714D01*
X130704762Y-106233333D01*
X130752381Y-106328571D01*
X130752381Y-106614286D01*
X130704762Y-106709524D01*
X130657143Y-106757143D01*
M02*
