G04 #@! TF.FileFunction,Paste,Top*
%FSLAX46Y46*%
G04 Gerber Fmt 4.6, Leading zero omitted, Abs format (unit mm)*
G04 Created by KiCad (PCBNEW 4.0.1-stable) date 3/21/2017 11:52:48 AM*
%MOMM*%
G01*
G04 APERTURE LIST*
%ADD10C,0.100000*%
%ADD11C,0.150000*%
%ADD12R,1.100000X4.600000*%
%ADD13R,10.800000X9.400000*%
%ADD14R,0.600000X0.400000*%
%ADD15R,0.500000X0.600000*%
%ADD16R,2.500000X1.000000*%
%ADD17R,0.600000X0.500000*%
%ADD18R,2.900680X5.400040*%
%ADD19R,2.032000X3.657600*%
%ADD20R,2.032000X1.016000*%
%ADD21R,2.400300X4.000500*%
%ADD22R,0.600000X2.000000*%
%ADD23R,2.000000X0.600000*%
%ADD24R,0.457200X0.711200*%
%ADD25R,0.711200X0.457200*%
%ADD26R,2.200000X1.100000*%
%ADD27R,1.000000X0.800000*%
%ADD28R,1.100000X2.200000*%
%ADD29R,0.800000X1.000000*%
G04 APERTURE END LIST*
D10*
D11*
X191770000Y-149860000D02*
X191770000Y-48260000D01*
X115570000Y-48260000D02*
X115570000Y-149860000D01*
X115570000Y-149860000D02*
X191770000Y-149860000D01*
X191770000Y-48260000D02*
X115570000Y-48260000D01*
D12*
X156054000Y-99314000D03*
X154354000Y-99314000D03*
X150954000Y-99314000D03*
D13*
X152654000Y-90164000D03*
D12*
X152654000Y-99314000D03*
X149254000Y-99314000D03*
D14*
X163500000Y-125950000D03*
X163500000Y-125050000D03*
X165800000Y-125950000D03*
X165800000Y-125050000D03*
D15*
X169418000Y-99102000D03*
X169418000Y-98002000D03*
X169418000Y-95462000D03*
X169418000Y-96562000D03*
D16*
X166624000Y-110974000D03*
X166624000Y-107974000D03*
D17*
X160824000Y-131572000D03*
X159724000Y-131572000D03*
D15*
X172974000Y-78190000D03*
X172974000Y-79290000D03*
D17*
X144230000Y-66040000D03*
X145330000Y-66040000D03*
D15*
X134620000Y-94530000D03*
X134620000Y-93430000D03*
D18*
X151462740Y-114554000D03*
X161465260Y-114554000D03*
D19*
X160782000Y-97282000D03*
D20*
X167386000Y-97282000D03*
X167386000Y-94996000D03*
X167386000Y-99568000D03*
D14*
X168400000Y-129750000D03*
X168400000Y-128850000D03*
X164900000Y-128850000D03*
X164900000Y-129750000D03*
D21*
X143764000Y-104838500D03*
X143764000Y-112839500D03*
D22*
X157734000Y-122046000D03*
X156464000Y-122046000D03*
X155194000Y-122046000D03*
X153924000Y-122046000D03*
X152654000Y-122046000D03*
X151384000Y-122046000D03*
X150114000Y-122046000D03*
X148844000Y-122046000D03*
X147574000Y-122046000D03*
X147574000Y-131446000D03*
X148844000Y-131446000D03*
X150114000Y-131446000D03*
X151384000Y-131446000D03*
X152654000Y-131446000D03*
X153924000Y-131446000D03*
X155194000Y-131446000D03*
X156464000Y-131446000D03*
X157734000Y-131446000D03*
D23*
X163448000Y-81280000D03*
X163448000Y-82550000D03*
X163448000Y-83820000D03*
X163448000Y-85090000D03*
X163448000Y-86360000D03*
X163448000Y-87630000D03*
X163448000Y-88900000D03*
X163448000Y-90170000D03*
X163448000Y-91440000D03*
X172848000Y-91440000D03*
X172848000Y-90170000D03*
X172848000Y-88900000D03*
X172848000Y-87630000D03*
X172848000Y-86360000D03*
X172848000Y-85090000D03*
X172848000Y-83820000D03*
X172848000Y-82550000D03*
X172848000Y-81280000D03*
D22*
X147320000Y-75566000D03*
X148590000Y-75566000D03*
X149860000Y-75566000D03*
X151130000Y-75566000D03*
X152400000Y-75566000D03*
X153670000Y-75566000D03*
X154940000Y-75566000D03*
X156210000Y-75566000D03*
X157480000Y-75566000D03*
X157480000Y-66166000D03*
X156210000Y-66166000D03*
X154940000Y-66166000D03*
X153670000Y-66166000D03*
X152400000Y-66166000D03*
X151130000Y-66166000D03*
X149860000Y-66166000D03*
X148590000Y-66166000D03*
X147320000Y-66166000D03*
D23*
X143892000Y-91440000D03*
X143892000Y-90170000D03*
X143892000Y-88900000D03*
X143892000Y-87630000D03*
X143892000Y-86360000D03*
X143892000Y-85090000D03*
X143892000Y-83820000D03*
X143892000Y-82550000D03*
X143892000Y-81280000D03*
X134492000Y-81280000D03*
X134492000Y-82550000D03*
X134492000Y-83820000D03*
X134492000Y-85090000D03*
X134492000Y-86360000D03*
X134492000Y-87630000D03*
X134492000Y-88900000D03*
X134492000Y-90170000D03*
X134492000Y-91440000D03*
D24*
X131216400Y-138430000D03*
X129895600Y-138430000D03*
X130556000Y-140462000D03*
X138328400Y-138430000D03*
X137007600Y-138430000D03*
X137668000Y-140462000D03*
X145440400Y-138430000D03*
X144119600Y-138430000D03*
X144780000Y-140462000D03*
X152044400Y-138430000D03*
X150723600Y-138430000D03*
X151384000Y-140462000D03*
X159156400Y-138430000D03*
X157835600Y-138430000D03*
X158496000Y-140462000D03*
X166268400Y-138430000D03*
X164947600Y-138430000D03*
X165608000Y-140462000D03*
X172872400Y-138176000D03*
X171551600Y-138176000D03*
X172212000Y-140208000D03*
X180238400Y-138176000D03*
X178917600Y-138176000D03*
X179578000Y-140208000D03*
D25*
X178816000Y-107035600D03*
X178816000Y-108356400D03*
X180848000Y-107696000D03*
X178816000Y-100177600D03*
X178816000Y-101498400D03*
X180848000Y-100838000D03*
X178816000Y-93065600D03*
X178816000Y-94386400D03*
X180848000Y-93726000D03*
X179070000Y-85953600D03*
X179070000Y-87274400D03*
X181102000Y-86614000D03*
X179070000Y-78841600D03*
X179070000Y-80162400D03*
X181102000Y-79502000D03*
X179070000Y-71983600D03*
X179070000Y-73304400D03*
X181102000Y-72644000D03*
X179070000Y-65125600D03*
X179070000Y-66446400D03*
X181102000Y-65786000D03*
X179084000Y-58639600D03*
X179084000Y-59960400D03*
X181116000Y-59300000D03*
D24*
X173837600Y-59944000D03*
X175158400Y-59944000D03*
X174498000Y-57912000D03*
X168439600Y-60416000D03*
X169760400Y-60416000D03*
X169100000Y-58384000D03*
X162153600Y-59690000D03*
X163474400Y-59690000D03*
X162814000Y-57658000D03*
X155041600Y-59690000D03*
X156362400Y-59690000D03*
X155702000Y-57658000D03*
X147929600Y-59690000D03*
X149250400Y-59690000D03*
X148590000Y-57658000D03*
X141325600Y-59690000D03*
X142646400Y-59690000D03*
X141986000Y-57658000D03*
X135439600Y-61116000D03*
X136760400Y-61116000D03*
X136100000Y-59084000D03*
X129739600Y-59716000D03*
X131060400Y-59716000D03*
X130400000Y-57684000D03*
D25*
X128270000Y-62636400D03*
X128270000Y-61315600D03*
X126238000Y-61976000D03*
X128524000Y-69748400D03*
X128524000Y-68427600D03*
X126492000Y-69088000D03*
X128524000Y-76606400D03*
X128524000Y-75285600D03*
X126492000Y-75946000D03*
X128270000Y-83718400D03*
X128270000Y-82397600D03*
X126238000Y-83058000D03*
X128270000Y-90576400D03*
X128270000Y-89255600D03*
X126238000Y-89916000D03*
X128270000Y-97434400D03*
X128270000Y-96113600D03*
X126238000Y-96774000D03*
X128524000Y-104546400D03*
X128524000Y-103225600D03*
X126492000Y-103886000D03*
X128778000Y-111404400D03*
X128778000Y-110083600D03*
X126746000Y-110744000D03*
D26*
X126200000Y-140300000D03*
D27*
X128300000Y-140300000D03*
D26*
X133300000Y-140400000D03*
D27*
X135400000Y-140400000D03*
D26*
X140600000Y-140400000D03*
D27*
X142700000Y-140400000D03*
D26*
X147300000Y-140300000D03*
D27*
X149400000Y-140300000D03*
D26*
X154400000Y-140500000D03*
D27*
X156500000Y-140500000D03*
D26*
X161300000Y-140500000D03*
D27*
X163400000Y-140500000D03*
D26*
X168500000Y-140500000D03*
D27*
X170600000Y-140500000D03*
D26*
X175400000Y-140400000D03*
D27*
X177500000Y-140400000D03*
D28*
X181100000Y-111300000D03*
D29*
X181100000Y-109200000D03*
D28*
X181000000Y-105000000D03*
D29*
X181000000Y-102900000D03*
D28*
X180700000Y-98000000D03*
D29*
X180700000Y-95900000D03*
D28*
X181100000Y-90900000D03*
D29*
X181100000Y-88800000D03*
D28*
X181100000Y-83700000D03*
D29*
X181100000Y-81600000D03*
D28*
X181100000Y-76900000D03*
D29*
X181100000Y-74800000D03*
D28*
X181200000Y-70000000D03*
D29*
X181200000Y-67900000D03*
D28*
X181200000Y-63200000D03*
D29*
X181200000Y-61100000D03*
D26*
X177800000Y-57500000D03*
D27*
X175700000Y-57500000D03*
D26*
X172600000Y-57500000D03*
D27*
X170500000Y-57500000D03*
D26*
X166900000Y-57800000D03*
D27*
X164800000Y-57800000D03*
D26*
X160100000Y-57900000D03*
D27*
X158000000Y-57900000D03*
D26*
X152900000Y-57900000D03*
D27*
X150800000Y-57900000D03*
D26*
X146000000Y-57600000D03*
D27*
X143900000Y-57600000D03*
D26*
X139400000Y-57700000D03*
D27*
X137300000Y-57700000D03*
D26*
X134400000Y-57600000D03*
D27*
X132300000Y-57600000D03*
D28*
X126200000Y-58100000D03*
D29*
X126200000Y-60200000D03*
D28*
X126400000Y-64800000D03*
D29*
X126400000Y-66900000D03*
D28*
X126500000Y-71800000D03*
D29*
X126500000Y-73900000D03*
D28*
X126300000Y-85700000D03*
D29*
X126300000Y-87800000D03*
D28*
X126400000Y-92600000D03*
D29*
X126400000Y-94700000D03*
D28*
X126500000Y-99600000D03*
D29*
X126500000Y-101700000D03*
D28*
X126400000Y-106600000D03*
D29*
X126400000Y-108700000D03*
D28*
X126300000Y-78800000D03*
D29*
X126300000Y-80900000D03*
M02*
