G04 #@! TF.FileFunction,Soldermask,Top*
%FSLAX46Y46*%
G04 Gerber Fmt 4.6, Leading zero omitted, Abs format (unit mm)*
G04 Created by KiCad (PCBNEW 4.0.1-stable) date 8/4/2016 1:38:13 PM*
%MOMM*%
G01*
G04 APERTURE LIST*
%ADD10C,0.100000*%
%ADD11C,0.150000*%
%ADD12C,2.800000*%
%ADD13R,2.800000X2.800000*%
%ADD14R,1.000000X0.800000*%
%ADD15R,2.800300X4.400500*%
%ADD16R,0.900000X1.000000*%
%ADD17R,2.900000X1.400000*%
%ADD18R,1.000000X0.900000*%
%ADD19C,2.940000*%
%ADD20R,2.940000X2.940000*%
%ADD21R,1.000000X2.400000*%
%ADD22R,2.400000X1.000000*%
%ADD23R,3.300680X5.800040*%
%ADD24R,0.857200X1.111200*%
%ADD25R,1.111200X0.857200*%
%ADD26R,1.500000X5.000000*%
%ADD27R,11.200000X9.800000*%
%ADD28R,2.432000X4.057600*%
%ADD29R,2.432000X1.416000*%
%ADD30C,1.924000*%
G04 APERTURE END LIST*
D10*
D11*
X191770000Y-149860000D02*
X191770000Y-48260000D01*
X115570000Y-48260000D02*
X115570000Y-149860000D01*
X115570000Y-149860000D02*
X191770000Y-149860000D01*
X191770000Y-48260000D02*
X115570000Y-48260000D01*
D12*
X185420000Y-131882000D03*
D13*
X185420000Y-135382000D03*
D12*
X185420000Y-123754000D03*
D13*
X185420000Y-127254000D03*
D14*
X163500000Y-125950000D03*
X163500000Y-125050000D03*
X165800000Y-125950000D03*
X165800000Y-125050000D03*
D15*
X143764000Y-104838500D03*
X143764000Y-112839500D03*
D16*
X169418000Y-99102000D03*
X169418000Y-98002000D03*
X169418000Y-95462000D03*
X169418000Y-96562000D03*
D17*
X166624000Y-110974000D03*
X166624000Y-107974000D03*
D18*
X160824000Y-131572000D03*
X159724000Y-131572000D03*
D16*
X172974000Y-78190000D03*
X172974000Y-79290000D03*
D18*
X144230000Y-66040000D03*
X145330000Y-66040000D03*
D16*
X134620000Y-94530000D03*
X134620000Y-93430000D03*
D19*
X166625220Y-105407040D03*
D20*
X151385220Y-105407040D03*
D21*
X157734000Y-122046000D03*
X156464000Y-122046000D03*
X155194000Y-122046000D03*
X153924000Y-122046000D03*
X152654000Y-122046000D03*
X151384000Y-122046000D03*
X150114000Y-122046000D03*
X148844000Y-122046000D03*
X147574000Y-122046000D03*
X147574000Y-131446000D03*
X148844000Y-131446000D03*
X150114000Y-131446000D03*
X151384000Y-131446000D03*
X152654000Y-131446000D03*
X153924000Y-131446000D03*
X155194000Y-131446000D03*
X156464000Y-131446000D03*
X157734000Y-131446000D03*
D22*
X163448000Y-81280000D03*
X163448000Y-82550000D03*
X163448000Y-83820000D03*
X163448000Y-85090000D03*
X163448000Y-86360000D03*
X163448000Y-87630000D03*
X163448000Y-88900000D03*
X163448000Y-90170000D03*
X163448000Y-91440000D03*
X172848000Y-91440000D03*
X172848000Y-90170000D03*
X172848000Y-88900000D03*
X172848000Y-87630000D03*
X172848000Y-86360000D03*
X172848000Y-85090000D03*
X172848000Y-83820000D03*
X172848000Y-82550000D03*
X172848000Y-81280000D03*
D21*
X147320000Y-75566000D03*
X148590000Y-75566000D03*
X149860000Y-75566000D03*
X151130000Y-75566000D03*
X152400000Y-75566000D03*
X153670000Y-75566000D03*
X154940000Y-75566000D03*
X156210000Y-75566000D03*
X157480000Y-75566000D03*
X157480000Y-66166000D03*
X156210000Y-66166000D03*
X154940000Y-66166000D03*
X153670000Y-66166000D03*
X152400000Y-66166000D03*
X151130000Y-66166000D03*
X149860000Y-66166000D03*
X148590000Y-66166000D03*
X147320000Y-66166000D03*
D22*
X143892000Y-91440000D03*
X143892000Y-90170000D03*
X143892000Y-88900000D03*
X143892000Y-87630000D03*
X143892000Y-86360000D03*
X143892000Y-85090000D03*
X143892000Y-83820000D03*
X143892000Y-82550000D03*
X143892000Y-81280000D03*
X134492000Y-81280000D03*
X134492000Y-82550000D03*
X134492000Y-83820000D03*
X134492000Y-85090000D03*
X134492000Y-86360000D03*
X134492000Y-87630000D03*
X134492000Y-88900000D03*
X134492000Y-90170000D03*
X134492000Y-91440000D03*
D23*
X151462740Y-114554000D03*
X161465260Y-114554000D03*
D12*
X185420000Y-115626000D03*
D13*
X185420000Y-119126000D03*
D12*
X121920000Y-120340000D03*
D13*
X121920000Y-116840000D03*
D12*
X121920000Y-127960000D03*
D13*
X121920000Y-124460000D03*
D12*
X134000000Y-144780000D03*
X130500000Y-144780000D03*
X137500000Y-144780000D03*
X141000000Y-144780000D03*
X144500000Y-144780000D03*
X148000000Y-144780000D03*
D13*
X127000000Y-144780000D03*
D12*
X151500000Y-144780000D03*
X155000000Y-144780000D03*
X158500000Y-144780000D03*
X162000000Y-144780000D03*
X165500000Y-144780000D03*
X169000000Y-144780000D03*
X172500000Y-144780000D03*
X176000000Y-144780000D03*
X179500000Y-144780000D03*
X185420000Y-104125000D03*
X185420000Y-107625000D03*
X185420000Y-100625000D03*
X185420000Y-97125000D03*
X185420000Y-93625000D03*
X185420000Y-90125000D03*
D13*
X185420000Y-111125000D03*
D12*
X185420000Y-86625000D03*
X185420000Y-83125000D03*
X185420000Y-79625000D03*
X185420000Y-76125000D03*
X185420000Y-72625000D03*
X185420000Y-69125000D03*
X185420000Y-65625000D03*
X185420000Y-62125000D03*
X185420000Y-58625000D03*
X173340000Y-53340000D03*
X176840000Y-53340000D03*
X169840000Y-53340000D03*
X166340000Y-53340000D03*
X162840000Y-53340000D03*
X159340000Y-53340000D03*
D13*
X180340000Y-53340000D03*
D12*
X155840000Y-53340000D03*
X152340000Y-53340000D03*
X148840000Y-53340000D03*
X145340000Y-53340000D03*
X141840000Y-53340000D03*
X138340000Y-53340000D03*
X134840000Y-53340000D03*
X131340000Y-53340000D03*
X127840000Y-53340000D03*
X121920000Y-65420000D03*
X121920000Y-61920000D03*
X121920000Y-68920000D03*
X121920000Y-72420000D03*
X121920000Y-75920000D03*
X121920000Y-79420000D03*
D13*
X121920000Y-58420000D03*
D12*
X121920000Y-82920000D03*
X121920000Y-86420000D03*
X121920000Y-89920000D03*
X121920000Y-93420000D03*
X121920000Y-96920000D03*
X121920000Y-100420000D03*
X121920000Y-103920000D03*
X121920000Y-107420000D03*
X121920000Y-110920000D03*
D24*
X131216400Y-138430000D03*
X129895600Y-138430000D03*
X130556000Y-140462000D03*
X138328400Y-138430000D03*
X137007600Y-138430000D03*
X137668000Y-140462000D03*
X145440400Y-138430000D03*
X144119600Y-138430000D03*
X144780000Y-140462000D03*
X152044400Y-138430000D03*
X150723600Y-138430000D03*
X151384000Y-140462000D03*
X159156400Y-138430000D03*
X157835600Y-138430000D03*
X158496000Y-140462000D03*
X166268400Y-138430000D03*
X164947600Y-138430000D03*
X165608000Y-140462000D03*
X172872400Y-138176000D03*
X171551600Y-138176000D03*
X172212000Y-140208000D03*
X180238400Y-138176000D03*
X178917600Y-138176000D03*
X179578000Y-140208000D03*
D25*
X178816000Y-107035600D03*
X178816000Y-108356400D03*
X180848000Y-107696000D03*
X178816000Y-100177600D03*
X178816000Y-101498400D03*
X180848000Y-100838000D03*
X178816000Y-93065600D03*
X178816000Y-94386400D03*
X180848000Y-93726000D03*
X179070000Y-85953600D03*
X179070000Y-87274400D03*
X181102000Y-86614000D03*
X179070000Y-78841600D03*
X179070000Y-80162400D03*
X181102000Y-79502000D03*
X179070000Y-71983600D03*
X179070000Y-73304400D03*
X181102000Y-72644000D03*
X179070000Y-65125600D03*
X179070000Y-66446400D03*
X181102000Y-65786000D03*
X179070000Y-59791600D03*
X179070000Y-61112400D03*
X181102000Y-60452000D03*
D24*
X173837600Y-59944000D03*
X175158400Y-59944000D03*
X174498000Y-57912000D03*
X168884600Y-60071000D03*
X170205400Y-60071000D03*
X169545000Y-58039000D03*
X162153600Y-59690000D03*
X163474400Y-59690000D03*
X162814000Y-57658000D03*
X155041600Y-59690000D03*
X156362400Y-59690000D03*
X155702000Y-57658000D03*
X147929600Y-59690000D03*
X149250400Y-59690000D03*
X148590000Y-57658000D03*
X141325600Y-59690000D03*
X142646400Y-59690000D03*
X141986000Y-57658000D03*
X136245600Y-59690000D03*
X137566400Y-59690000D03*
X136906000Y-57658000D03*
X131673600Y-59690000D03*
X132994400Y-59690000D03*
X132334000Y-57658000D03*
D25*
X128270000Y-62636400D03*
X128270000Y-61315600D03*
X126238000Y-61976000D03*
X128524000Y-69748400D03*
X128524000Y-68427600D03*
X126492000Y-69088000D03*
X128524000Y-76606400D03*
X128524000Y-75285600D03*
X126492000Y-75946000D03*
X128270000Y-83718400D03*
X128270000Y-82397600D03*
X126238000Y-83058000D03*
X128270000Y-90576400D03*
X128270000Y-89255600D03*
X126238000Y-89916000D03*
X128270000Y-97434400D03*
X128270000Y-96113600D03*
X126238000Y-96774000D03*
X128524000Y-104546400D03*
X128524000Y-103225600D03*
X126492000Y-103886000D03*
X128778000Y-111404400D03*
X128778000Y-110083600D03*
X126746000Y-110744000D03*
D26*
X156054000Y-99314000D03*
X154354000Y-99314000D03*
X150954000Y-99314000D03*
D27*
X152654000Y-90164000D03*
D26*
X152654000Y-99314000D03*
X149254000Y-99314000D03*
D28*
X160782000Y-97282000D03*
D29*
X167386000Y-97282000D03*
X167386000Y-94996000D03*
X167386000Y-99568000D03*
D14*
X168400000Y-129750000D03*
X168400000Y-128850000D03*
X164900000Y-128850000D03*
X164900000Y-129750000D03*
D30*
X147574000Y-79248000D03*
X163068000Y-131572000D03*
X143764000Y-116840000D03*
X141224000Y-116840000D03*
X146050000Y-116840000D03*
X179070000Y-68072000D03*
X128016000Y-138430000D03*
X135128000Y-138430000D03*
X142240000Y-138430000D03*
X148590000Y-138430000D03*
X155702000Y-138430000D03*
X162814000Y-138430000D03*
X169418000Y-138176000D03*
X176784000Y-138176000D03*
X172974000Y-75438000D03*
X142494000Y-66040000D03*
X134366000Y-96012000D03*
X178816000Y-110744000D03*
X178816000Y-103632000D03*
X178816000Y-96774000D03*
X179070000Y-89916000D03*
X179070000Y-82296000D03*
X179070000Y-75184000D03*
X179070000Y-62484000D03*
X177038000Y-57912000D03*
X171958000Y-59944000D03*
X165608000Y-59690000D03*
X158750000Y-59690000D03*
X151384000Y-59690000D03*
X145034000Y-59690000D03*
X139446000Y-59690000D03*
X134366000Y-59690000D03*
X128270000Y-59182000D03*
X128524000Y-67056000D03*
X128524000Y-73152000D03*
X128270000Y-79756000D03*
X128270000Y-87122000D03*
X128270000Y-93726000D03*
X128524000Y-100584000D03*
X128778000Y-107696000D03*
X159512000Y-81026000D03*
M02*
